<svg width="27" height="32" viewBox="0 0 27 32" fill="none" xmlns="http://www.w3.org/2000/svg">
<path fill-rule="evenodd" clip-rule="evenodd" d="M3.76471 9.41177C3.76471 4.2138 7.9785 0 13.1765 0C18.3744 0 22.5882 4.2138 22.5882 9.41177V13.4978C24.7816 14.2729 26.3529 16.3648 26.3529 18.8235V26.3529C26.3529 29.4718 23.8248 32 20.7059 32H5.64706C2.52828 32 0 29.4718 0 26.3529V18.8235C0 16.3648 1.57141 14.2729 3.76471 13.4978V9.41177ZM7.52941 13.1765H18.8235V9.41177C18.8235 6.29299 16.2953 3.76471 13.1765 3.76471C10.0576 3.76471 7.52941 6.29299 7.52941 9.41177V13.1765Z" fill="#6C757D"/>
</svg>
