<svg width="180" height="54" viewBox="0 0 256 54" fill="none" xmlns="http://www.w3.org/2000/svg">
<path d="M7.18444 41.2907L14.84 2.98698H0L0.588889 0.292841H33.2722L32.7422 2.98698H17.9022L10.1878 41.2907H7.18444Z" fill="#F5F5F5"/>
<path d="M35.8228 41.2907L44.0673 0.292841H58.495C63.0491 0.292841 66.5628 1.2885 69.0361 3.27983C71.5487 5.2321 72.805 8.00434 72.805 11.5965C72.805 15.1106 72.0395 18.0781 70.5084 20.4989C68.9773 22.8807 66.7984 24.6963 63.9717 25.9458C61.145 27.1952 57.7884 27.82 53.9017 27.82H40.2395L41.8295 26.4729L38.8262 41.2907H35.8228ZM64.5017 41.2907L56.0806 26.4143H59.3784L67.7995 41.2907H64.5017ZM41.7706 26.6486L40.7695 25.1844H53.9017C58.9269 25.1844 62.8332 24.0716 65.6206 21.846C68.408 19.5813 69.8017 16.2429 69.8017 11.8308C69.8017 8.98048 68.8006 6.79393 66.7984 5.27115C64.8354 3.74837 62.0088 2.98698 58.3184 2.98698H45.2451L46.8351 1.52278L41.7706 26.6486Z" fill="#F5F5F5"/>
<path d="M74.6637 41.2907L101.87 0.292841H104.874L115.591 41.2907H112.529L102.518 2.10846H103.755L78.0204 41.2907H74.6637ZM83.9093 29.7527L85.4404 27.2343H110.056L110.586 29.7527H83.9093Z" fill="#F5F5F5"/>
<path d="M145.208 41.5835C141.164 41.5835 137.729 40.8807 134.902 39.475C132.075 38.0694 129.916 36.0976 128.424 33.5597C126.972 31.0217 126.245 28.0737 126.245 24.7158C126.245 21.397 126.815 18.2538 127.953 15.2863C129.092 12.3189 130.74 9.6833 132.9 7.37961C135.059 5.07592 137.67 3.27983 140.732 1.99133C143.833 0.663775 147.328 0 151.214 0C154.433 0 157.28 0.48807 159.753 1.46421C162.226 2.44035 164.15 3.82646 165.524 5.62256L163.404 7.55531C162.069 5.95445 160.362 4.76356 158.281 3.98265C156.239 3.16269 153.805 2.75271 150.979 2.75271C147.642 2.75271 144.638 3.33839 141.969 4.50976C139.299 5.64208 137.022 7.22343 135.138 9.25379C133.253 11.2451 131.8 13.5683 130.78 16.2234C129.759 18.8395 129.249 21.6312 129.249 24.5987C129.249 27.41 129.857 29.8894 131.074 32.0369C132.291 34.1844 134.097 35.8633 136.492 37.0737C138.926 38.2451 141.91 38.8308 145.443 38.8308C148.27 38.8308 150.822 38.4208 153.099 37.6009C155.415 36.7419 157.398 35.5119 159.046 33.9111L160.872 35.961C159.105 37.718 156.848 39.1041 154.1 40.1193C151.352 41.0954 148.388 41.5835 145.208 41.5835ZM140.496 54C139.554 54 138.671 53.8829 137.846 53.6486C137.022 53.4143 136.296 53.0434 135.668 52.5358L136.786 50.8959C137.297 51.2863 137.866 51.5792 138.494 51.7744C139.162 52.0087 139.888 52.1258 140.673 52.1258C142.008 52.1258 143.048 51.7939 143.794 51.1301C144.54 50.4664 144.913 49.6269 144.913 48.6117C144.913 47.7918 144.619 47.1475 144.03 46.679C143.441 46.2495 142.597 46.0347 141.498 46.0347H140.379L142.793 40.9393H144.736L143.146 44.3948C144.442 44.551 145.443 44.9805 146.15 45.6833C146.896 46.4252 147.269 47.3623 147.269 48.4946C147.269 50.0954 146.64 51.4035 145.384 52.4187C144.128 53.4729 142.499 54 140.496 54Z" fill="#F5F5F5"/>
<path d="M190.591 41.5835C186.547 41.5835 183.112 40.8807 180.285 39.475C177.498 38.0694 175.378 36.0976 173.925 33.5597C172.472 31.0217 171.746 28.0737 171.746 24.7158C171.746 21.397 172.315 18.2538 173.454 15.2863C174.592 12.3189 176.222 9.6833 178.342 7.37961C180.501 5.07592 183.092 3.27983 186.115 1.99133C189.177 0.663775 192.612 0 196.421 0C200.464 0 203.899 0.70282 206.726 2.10846C209.553 3.5141 211.692 5.4859 213.145 8.02386C214.598 10.5618 215.324 13.5098 215.324 16.8677C215.324 20.1866 214.755 23.3297 213.616 26.2972C212.478 29.2646 210.829 31.9002 208.669 34.2039C206.51 36.5076 203.899 38.3232 200.837 39.6508C197.814 40.9393 194.399 41.5835 190.591 41.5835ZM190.885 38.8308C194.144 38.8308 197.088 38.2646 199.718 37.1323C202.349 35.9609 204.587 34.3796 206.432 32.3883C208.316 30.3579 209.749 28.0347 210.731 25.4187C211.751 22.7636 212.262 19.9523 212.262 16.9848C212.262 14.1345 211.653 11.6551 210.436 9.54664C209.219 7.39913 207.413 5.7397 205.018 4.56833C202.663 3.35792 199.718 2.75271 196.185 2.75271C192.927 2.75271 189.982 3.33839 187.352 4.50976C184.721 5.64208 182.464 7.22343 180.579 9.25379C178.734 11.2451 177.301 13.5683 176.281 16.2234C175.26 18.8395 174.749 21.6312 174.749 24.5987C174.749 27.41 175.358 29.8894 176.575 32.0369C177.792 34.1844 179.598 35.8633 181.993 37.0737C184.388 38.2451 187.352 38.8308 190.885 38.8308Z" fill="#F5F5F5"/>
<path d="M236.096 41.5835C234.093 41.5835 232.13 41.3492 230.207 40.8807C228.322 40.3731 226.614 39.7093 225.083 38.8894C223.592 38.0694 222.414 37.1518 221.55 36.1367L223.14 33.8525C224.004 34.8286 225.123 35.7072 226.497 36.4881C227.91 37.269 229.461 37.8742 231.149 38.3037C232.876 38.7332 234.604 38.9479 236.331 38.9479C238.883 38.9479 241.14 38.5965 243.103 37.8937C245.106 37.1909 246.656 36.1757 247.756 34.8482C248.855 33.4816 249.404 31.8221 249.404 29.8698C249.404 28.4252 248.992 27.2538 248.168 26.3557C247.383 25.4577 246.342 24.7158 245.047 24.1301C243.79 23.5445 242.377 23.0564 240.807 22.6659C239.276 22.2364 237.725 21.7679 236.154 21.2603C234.623 20.7527 233.21 20.1475 231.914 19.4447C230.658 18.7028 229.618 17.7462 228.793 16.5748C228.008 15.4035 227.616 13.9197 227.616 12.1236C227.616 9.54664 228.303 7.36009 229.677 5.56399C231.09 3.7679 232.994 2.4013 235.389 1.46421C237.784 0.48807 240.512 0 243.574 0C245.93 0 248.207 0.312365 250.406 0.937095C252.604 1.52278 254.469 2.4013 256 3.57267L254.587 6.03254C253.134 4.93926 251.446 4.09978 249.522 3.5141C247.599 2.92842 245.577 2.63558 243.457 2.63558C240.944 2.63558 238.706 3.00651 236.743 3.74837C234.82 4.45119 233.308 5.4859 232.209 6.8525C231.149 8.21909 230.619 9.87852 230.619 11.8308C230.619 13.2755 231.012 14.4664 231.797 15.4035C232.582 16.3015 233.603 17.0629 234.859 17.6876C236.154 18.2733 237.587 18.7809 239.158 19.2104C240.728 19.6399 242.279 20.1085 243.81 20.6161C245.341 21.0846 246.754 21.6898 248.05 22.4317C249.346 23.1345 250.386 24.0521 251.171 25.1844C251.996 26.3167 252.408 27.7614 252.408 29.5184C252.408 32.1345 251.682 34.3406 250.229 36.1367C248.816 37.9328 246.872 39.2993 244.399 40.2364C241.965 41.1345 239.197 41.5835 236.096 41.5835Z" fill="#C4A02E"/>
</svg>
