<svg width="50" height="78" viewBox="0 0 71 78" fill="none" xmlns="http://www.w3.org/2000/svg">
<path d="M32.1189 0.011997C31.3888 0.010807 29.6572 0.98824 29.5394 1.44526C29.4578 1.76166 30.1124 3.58075 30.3231 3.6352C30.5865 3.70327 30.5542 3.31995 30.2179 2.44556C29.8985 1.65055 29.9036 1.55813 30.2128 1.37557C30.5221 1.19301 30.5748 1.20662 30.6739 1.47597C30.7254 1.63928 30.7577 2.02259 30.7599 2.30441C30.7242 2.95139 31.0651 3.227 31.5291 2.95315C31.8604 2.75755 31.8655 2.66513 31.6073 1.92343C31.2545 0.894802 31.3321 0.521133 31.8589 0.657261C32.1574 0.734401 32.3052 0.960091 32.4026 1.45398C32.5294 2.12423 32.8953 2.59376 33.1604 2.43728C33.2312 2.38058 33.1547 2.02334 32.9775 1.6213C32.619 0.759952 32.6241 0.667526 33.0455 0.776429C33.2211 0.821805 33.4386 1.14049 33.5371 1.48469C33.6356 1.82889 33.7614 2.06762 33.8276 2.0285C34.1148 1.85898 33.2319 -0.0191045 32.8711 0.000146977C32.8315 0.00864944 32.4928 0.0148608 32.1189 0.011997Z" fill="#F5F5F5"/>
<path d="M33.3892 3.00263C32.4874 3.01333 31.5828 3.39828 30.6975 4.14443C30.2239 4.52827 30.2239 4.52827 30.4578 5.5824C30.5767 6.1381 30.9193 7.35158 31.229 8.25659C31.7574 9.9118 31.7574 9.9118 31.2831 11.5329C30.7772 13.2771 30.7386 14.2983 31.0907 17.1454C31.2769 18.6747 31.6326 19.3291 31.7069 18.2421C31.7182 17.9075 31.7879 17.4193 31.8559 17.1557C31.942 16.8217 31.882 16.6187 31.6719 16.4894C31.374 16.3374 31.3435 15.1483 31.642 15.2255C31.7122 15.2436 31.7552 15.3672 31.719 15.5079C31.6827 15.6485 31.7694 15.8209 31.8917 15.9275C32.0186 16.0165 32.1007 16.2065 32.069 16.3295C32.0327 16.4701 32.1012 16.7128 32.21 16.8722C32.3057 17.0094 32.3725 17.4766 32.3209 17.8945C32.241 18.5676 32.0716 18.8613 30.8294 20.2652C28.7663 22.6006 27.7603 23.5968 27.5145 23.5333C27.3915 23.5016 27.3853 23.1625 27.4726 22.6788C27.5684 22.2348 27.7292 21.9014 27.817 21.9241C27.9224 21.9513 28.0244 21.8464 28.0606 21.7058C28.0969 21.5652 28.3308 21.4569 28.5948 21.4501C29.0434 21.4536 29.3187 21.1122 29.0785 20.8814C28.9998 20.8236 28.6747 20.7771 28.3535 20.7878C27.1527 20.7962 26.5403 22.0816 27.0885 23.442C27.2958 23.9455 27.302 24.2846 27.0674 25.049C26.7241 26.2352 26.8215 26.7291 27.6903 28.1535C28.3461 29.2417 28.3461 29.2417 29.3855 29.0603C29.9711 28.968 30.4651 28.7956 30.4702 28.7032C30.5336 28.4571 29.5362 28.3306 28.985 28.5069C28.7381 28.5931 28.5138 28.5913 28.4662 28.4853C28.3977 28.2426 28.9721 27.9036 29.4648 27.8809C29.6761 27.8605 30.0783 27.6082 30.3445 27.302C30.6283 27.0004 31.5539 26.1709 32.4126 25.4554C33.2668 24.7574 33.993 24.1201 34.0112 24.0498C34.1653 23.4522 32.7209 24.2601 31.2594 25.5698C30.2806 26.4606 29.99 26.498 30.4053 25.6866C30.7757 24.9761 33.3729 22.9662 34.0951 22.8528C35.2092 22.672 36.9492 23.4779 37.575 24.4646C37.8967 24.9602 38.266 24.9806 38.3838 24.5236C38.4836 24.1369 39.9292 22.5981 40.7075 22.0493C41.4682 21.4959 41.7967 21.6745 42.0781 22.8347C42.2706 23.5407 42.2706 23.5407 40.9633 24.834C40.241 25.5286 39.6423 26.18 39.6196 26.2679C39.597 26.3558 39.6791 26.5458 39.7878 26.7051C39.9532 26.9353 40.0721 26.9098 40.4403 26.4988C40.9768 25.9437 42.2887 24.6328 42.7628 24.1741C43.0596 23.8946 43.0392 23.6831 42.5205 21.9179C42.2034 20.8235 41.8891 19.936 41.8365 19.9224C41.7838 19.9088 41.4043 20.0732 41.0333 20.2773C40.5784 20.516 40.0952 21.0099 39.6681 21.6494C38.7646 23.0471 38.4768 23.2915 37.6725 23.2149C36.5561 23.1138 34.2985 22.1367 33.7316 21.5027C33.4569 21.188 33.0859 20.8109 32.92 20.6555C32.7104 20.4513 32.6612 19.9886 32.7371 18.6771C32.8222 17.3304 32.7696 16.7356 32.4508 15.8657C32.145 15.018 32.1167 14.6919 32.2866 14.3234C32.4248 14.0778 32.6175 13.6214 32.7251 13.3492C33.2406 12.0763 33.3822 11.9629 34.4652 11.8303C35.0418 11.7731 35.6445 11.7601 35.8201 11.8054C35.9781 11.8463 36.2421 11.8395 36.4052 11.7879C36.8328 11.6547 36.5208 11.0491 35.9589 10.9039C35.7307 10.8449 35.1915 10.6118 34.7797 10.3929C33.9958 9.94656 33.9092 9.77418 33.0586 7.117C32.831 6.40195 32.5042 5.41755 32.3321 4.92309C32.1475 4.33166 32.1062 3.98349 32.2608 3.89221C32.3933 3.81397 32.5451 4.09693 32.6986 4.73656C33.3039 7.25537 33.356 7.34383 33.8618 6.76209C34.0261 6.56081 34.4634 6.31759 34.8117 6.20137C35.1777 6.08969 35.4869 5.90713 35.5317 5.8062C35.5906 5.57769 34.859 3.47621 34.6279 3.21026C34.4404 2.99307 34.4976 2.9891 33.3892 3.00263ZM34.216 4.73497C34.3983 5.6258 34.37 5.88096 34.1621 6.03348C33.7242 6.35155 33.637 6.25401 33.4201 5.27927C33.3052 4.78084 33.1376 4.26879 33.0243 4.12702C32.7762 3.78168 32.8657 3.57983 33.2571 3.58723C33.9125 3.58784 33.9867 3.66326 34.216 4.73497ZM32.7572 7.99531C33.2323 9.71175 33.5641 11.1849 33.5018 11.2813C33.4395 11.3777 33.2571 11.0681 33.1201 10.5827C32.8234 9.69981 32.5577 9.34993 32.7588 10.0956C32.8097 10.3338 32.7808 10.6638 32.6828 10.8259C32.5757 11.0233 32.6091 11.2569 32.779 11.4695C32.9971 11.7134 33.0044 11.9028 32.826 12.2316C32.3484 13.1394 31.7085 12.2803 32.0988 11.275C32.3991 10.5464 32.3657 10.3127 31.4874 7.25466C31.1403 6.05876 30.8713 4.99556 30.903 4.87251C30.9302 4.76705 31.1341 4.55726 31.3375 4.42232C31.7 4.17852 31.7176 4.18306 31.8161 4.52726C31.8586 4.72572 32.2821 6.27886 32.7572 7.99531ZM34.5095 11.223C34.4097 11.6097 34.0948 11.3783 34.0416 10.8584C33.959 10.162 33.9901 10.1138 34.3033 10.5698C34.4512 10.7954 34.5457 11.0824 34.5095 11.223ZM35.7278 11.2191C35.6525 11.2934 35.4191 11.3268 35.226 11.2769C35.0504 11.2315 34.915 11.1028 34.9377 11.0149C34.9649 10.9095 35.1937 10.8936 35.4395 10.9571C35.6853 11.0207 35.8252 11.1318 35.7278 11.2191ZM32.1734 13.0192C32.2946 13.2755 32.2629 13.3985 32.0862 13.5029C31.7327 13.7115 31.3396 13.3474 31.4484 12.9256C31.5572 12.5037 31.9526 12.5684 32.1734 13.0192ZM31.6907 14.6006C31.544 14.8064 31.4517 14.8013 31.3475 14.6244C31.2693 14.4917 31.2886 14.2717 31.4042 14.1141C31.5509 13.9082 31.6432 13.9133 31.7474 14.0903C31.8256 14.223 31.8063 14.443 31.6907 14.6006ZM33.2619 22.525C33.1798 22.9163 32.8473 22.6803 32.1416 21.7855C31.6625 21.1742 31.4807 20.7897 31.5532 20.5085C31.6529 20.1218 31.7141 20.1751 32.4804 21.1981C32.942 21.8048 33.2891 22.4195 33.2619 22.525ZM31.8793 22.149C32.3924 22.919 32.5204 23.4396 32.1704 23.1991C31.9121 23.0386 30.7585 21.4843 30.7817 21.3216C30.8457 21.0006 31.3792 21.401 31.8793 22.149ZM30.9356 23.0488C31.383 23.7831 31.5104 24.3785 31.2119 24.3014C30.9486 24.2333 29.8878 22.6092 29.9513 22.3631C30.06 21.9413 30.4101 22.1817 30.9356 23.0488ZM30.0061 23.821C30.2802 24.2106 30.488 24.6393 30.4518 24.7799C30.3566 25.149 30.164 25.0243 29.6464 24.2718C29.0676 23.466 28.8308 23.3673 28.5589 23.8407C28.385 24.152 28.4796 24.4389 29.0923 25.4035C29.64 26.2575 29.7646 26.6459 29.6099 26.7372C29.4332 26.8415 29.1449 26.5795 28.5967 25.8004C28.1878 25.2073 27.8621 24.6544 27.8848 24.5665C28.0163 24.0567 29.0755 22.9993 29.374 23.0764C29.4443 23.0946 29.7144 23.4269 30.0061 23.821ZM28.8362 27.2685C28.8532 27.3479 28.7557 27.4352 28.6323 27.4783C28.3456 27.5729 27.3036 25.8037 27.5251 25.5985C27.6757 25.4499 28.7733 26.8585 28.8362 27.2685Z" fill="#F5F5F5"/>
<path d="M31.4207 5.0438C31.3301 5.39535 32.2168 8.49312 32.3715 8.40184C32.4819 8.33664 31.8183 5.39028 31.6014 4.99675C31.5187 4.88163 31.4615 4.8856 31.4207 5.0438Z" fill="#F5F5F5"/>
<path d="M34.6622 6.78144C33.7604 7.37335 34.0151 9.14535 35.0782 9.88881C35.7913 10.3918 36.3849 10.414 36.1556 9.92348C36.0689 9.7511 35.8373 9.55999 35.6266 9.50554C35.1921 9.37452 34.8432 8.98438 34.7159 8.38898C34.5749 7.84632 34.7522 7.08594 35.0343 7.00885C35.2812 6.92268 35.3759 6.62839 35.1827 6.57848C35.0949 6.55579 34.8655 6.6465 34.6622 6.78144Z" fill="#F5F5F5"/>
<path d="M35.4823 7.08713C34.9249 8.08677 35.7042 9.13187 36.7538 8.76565C37.2035 8.61939 37.3134 8.62903 37.404 8.85869C37.451 9.03958 37.4958 8.93865 37.5116 8.58652C37.5395 7.825 37.3916 7.59931 37.0031 7.79887C36.5618 7.98483 36.1682 7.69561 36.286 7.23859C36.4175 6.72884 35.7412 6.59156 35.4823 7.08713ZM36.5408 8.42938C36.5182 8.51727 36.3902 8.57793 36.2497 8.54163C36.1092 8.50533 35.9563 8.37206 35.9263 8.27056C35.9008 8.15148 36.0243 8.1084 36.2174 8.15831C36.4281 8.21276 36.568 8.32391 36.5408 8.42938Z" fill="#F5F5F5"/>
<path d="M39.8237 9.35276C39.6164 9.43043 39.4079 9.65779 39.3581 9.85115C39.2447 10.2906 39.6791 11.584 40.2528 12.4823C40.4788 12.8406 40.7778 13.4241 40.9114 13.7774C41.1402 14.3428 41.1884 14.3739 41.4931 14.209C41.8199 14.0309 41.8341 13.9034 41.7226 12.9558C41.5986 11.9114 41.5522 11.6556 41.1592 10.1291C40.9542 9.3262 40.4989 9.05852 39.8237 9.35276ZM40.8805 10.3383C41.1127 11.0358 40.881 11.4259 40.3718 11.2943C40.0733 11.2172 40.1153 10.9093 40.4364 10.8985C40.5905 10.8821 40.5962 10.7148 40.4625 10.3616C40.368 10.0746 40.3657 9.79282 40.4495 9.75824C40.6529 9.6233 40.6529 9.6233 40.8805 10.3383ZM41.3176 12.42C41.2043 12.8594 41.1998 12.877 40.9302 12.4698C40.7824 12.2441 40.6788 11.9924 40.7014 11.9045C40.7196 11.8342 40.8957 11.8047 41.0889 11.8546C41.3522 11.9227 41.4083 12.0684 41.3176 12.42Z" fill="#F5F5F5"/>
<path d="M36.4739 9.12456C36.3986 9.19883 36.599 10.0193 36.9128 10.9816C37.7554 13.5243 37.7639 13.564 38.0732 13.3814C38.2895 13.2686 38.1922 12.7747 37.6327 11.1677C36.9792 9.19888 36.7708 8.84503 36.4739 9.12456Z" fill="#F5F5F5"/>
<path d="M47.9264 14.3903C46.0244 14.6488 45.0602 16.4995 45.5613 18.8414C46.0035 20.8306 46.9448 21.9738 48.4503 22.3816C51.22 23.1161 52.6929 20.3094 51.2618 17.071C50.5052 15.3568 49.1108 14.2277 47.9264 14.3903ZM49.2823 15.3782C49.5672 15.5081 49.9252 15.8631 50.0945 16.1506C50.3765 16.6547 50.3765 16.6547 49.9579 16.7528C49.2969 16.9194 49.1717 17.7682 49.6944 18.4283C50.1521 18.9778 50.0002 19.2761 49.4265 18.959C49.0017 18.718 48.8505 17.779 49.1451 17.2177C49.4261 16.709 49.1542 16.6013 48.6671 17.0379C48.1403 17.483 48.0666 17.9139 48.4313 18.5331C48.6137 18.8427 48.7292 19.2663 48.7099 19.4863C48.6306 20.0845 49.1834 20.2649 49.5346 19.7744C49.6858 19.551 49.9509 19.3946 50.109 19.4354C50.2494 19.4717 50.5411 19.2846 50.719 19.0306C51.2793 18.2379 51.4078 18.6836 51.0452 20.0898C50.6327 21.6894 50.1671 22.1878 49.8607 21.4149C49.5929 20.7832 48.7223 20.7457 48.5636 21.3609C48.4095 21.9586 48.2379 21.9705 47.6132 21.4153C46.5167 20.4382 45.8411 18.4825 46.0944 16.9917C46.1959 16.3805 46.2757 16.2886 46.5742 16.3658C46.9254 16.4565 48.1087 15.8624 48.1857 15.5635C48.2129 15.4581 48.1081 15.356 47.9677 15.3197C47.8272 15.2834 47.7224 15.1813 47.7451 15.0934C47.7995 14.8825 48.2045 14.8372 48.52 14.9937C48.6514 15.0652 49.0019 15.2308 49.2823 15.3782Z" fill="#F5F5F5"/>
<path d="M48.4224 16.2434C48.1528 16.4175 47.8911 16.7061 47.8412 16.8995C47.7733 17.1631 47.8701 17.1507 48.3612 16.7713C48.7328 16.4924 49.1032 16.3631 49.3666 16.4312C49.5949 16.4902 49.8634 16.4658 49.9387 16.3916C50.2842 16.0684 48.8954 15.9344 48.4224 16.2434Z" fill="#F5F5F5"/>
<path d="M34.9761 12.3185C33.7872 12.4988 33.6988 12.5509 33.3108 13.2569C33.083 13.7042 32.9346 14.1346 32.9907 14.2803C33.0507 14.4833 33.1124 14.4618 33.185 14.1805C33.3119 13.6884 33.6008 13.2943 33.7939 13.3442C33.8817 13.3669 33.9293 13.4729 33.8976 13.596C33.8658 13.719 34.0045 14.5611 34.1868 15.4519C34.4966 16.9381 34.5033 17.2024 34.2065 18.0631C33.8694 19.0072 33.8694 19.0072 34.7093 20.1804C36.2107 22.2746 36.5296 22.5632 37.4177 22.6053C37.8442 22.6218 38.2362 22.5543 38.2764 22.471C38.3387 22.3746 38.1609 22.0474 37.9083 21.7196C37.6557 21.3918 37.0287 20.5549 36.5326 19.8642C35.6491 18.6421 35.6145 18.5582 35.8094 17.8024C35.9681 17.1872 35.8939 16.5305 35.5191 14.9337C35.2507 13.7957 35.0735 12.8124 35.1398 12.7733C35.193 12.7121 35.585 12.6446 36.0075 12.6038C36.8084 12.5483 37.1092 12.3261 36.5649 12.1854C36.3848 12.1576 35.6807 12.2006 34.9761 12.3185Z" fill="#F5F5F5"/>
<path d="M39.8879 13.6066C39.8607 13.7121 39.6585 13.6974 39.4308 13.5635C38.9228 13.2822 38.8242 13.5192 39.2473 13.9848C39.5005 14.2377 39.6058 14.265 39.7519 14.134C39.8805 13.9985 39.9547 14.0739 39.9745 14.3602C39.9774 14.5672 40.0725 14.7793 40.1603 14.802C40.4939 14.8882 40.6695 14.3524 40.4571 13.9412C40.2057 13.4638 39.9605 13.3254 39.8879 13.6066Z" fill="#F5F5F5"/>
<path d="M41.3396 14.7318C40.1319 15.0571 39.9195 15.2272 40.1143 15.6338C40.3352 16.0846 40.5068 16.0727 40.6071 15.6112C40.6666 15.3078 40.7946 15.2471 41.1328 15.3158C41.9801 15.516 42.0594 15.499 42.0317 15.0981C42.0091 14.6048 42.2724 14.6729 42.4355 15.2025C42.5471 15.5688 42.5159 15.617 42.0934 15.6578C41.6487 15.7116 40.6626 16.413 40.581 16.7294C40.5629 16.7997 40.6467 16.7651 40.7883 16.6517C40.9656 16.4725 41.0534 16.4952 41.2794 16.8536C41.5314 17.2562 41.571 17.2477 42.1754 17.0102C42.5283 16.8764 42.7968 16.852 42.7741 16.9399C42.7016 17.2211 41.3512 17.8096 41.3399 17.563C41.3195 17.3514 40.8506 17.1365 40.8052 17.3123C40.7916 17.365 40.9128 17.6213 41.0691 17.8867C41.3557 18.3732 41.3557 18.3732 41.7012 18.0501C41.8961 17.8754 42.1873 17.7632 42.3628 17.8086C42.8018 17.922 43.3263 17.1951 43.1984 16.6746C43.1259 16.3746 43.0472 16.3167 42.901 16.4477C42.675 16.6705 42.3516 16.3995 42.4423 16.0479C42.4831 15.8897 42.602 15.8642 42.7464 15.9578C42.952 16.1047 42.9656 16.0519 42.8818 15.5053C42.7573 14.5357 42.49 14.4103 41.3396 14.7318Z" fill="#F5F5F5"/>
<path d="M37.8012 13.8548C37.4257 14.0765 37.2251 14.9996 37.4363 15.5605C37.6391 16.0816 38.1126 16.2789 38.5284 15.9739C38.6875 15.8651 38.8637 15.8356 38.9554 15.9155C39.0296 15.991 38.9758 16.127 38.8297 16.258C38.5776 16.4366 38.6977 16.8426 39.5415 18.6544C39.6411 18.8489 40.8165 18.7214 40.8708 18.5104C40.889 18.4401 40.7893 18.2456 40.6454 18.0772C40.5191 17.9133 40.095 17.0162 39.7325 16.0976C38.8259 13.8759 38.464 13.4636 37.8012 13.8548ZM38.589 14.9396C38.6661 15.222 38.6213 15.323 38.4276 15.3479C38.1195 15.3808 37.8453 14.9912 37.9315 14.6572C38.0221 14.3057 38.4956 14.503 38.589 14.9396Z" fill="#F5F5F5"/>
<path d="M44.683 16.3645C44.5414 16.4779 44.0933 16.9808 43.6849 17.4752C42.7966 18.5956 42.7666 19.0753 43.5124 21.0492C43.9133 22.1091 44.1744 22.4765 44.9741 23.1519C46.5606 24.4806 46.8636 24.5402 48.1267 23.8541C48.7141 23.5372 49.1741 23.2061 49.1175 23.1352C49.0784 23.0689 48.6751 22.8897 48.2056 22.7496C46.1694 22.1484 44.5893 19.4151 44.854 17.0087C44.9118 16.3486 44.8909 16.212 44.683 16.3645ZM44.4301 18.9428C44.1129 19.592 43.6926 19.9146 43.5233 19.6271C43.3409 19.3175 44.0836 18.2532 44.4172 18.3395C44.6279 18.3939 44.6313 18.526 44.4301 18.9428ZM44.3785 20.5231C44.0862 20.785 43.9231 20.8366 43.9112 20.6648C43.8789 20.2815 44.5479 19.6482 44.6912 19.8915C44.7824 20.0463 44.6708 20.2612 44.3785 20.5231ZM45.8924 21.5518C46.4061 22.247 46.4101 22.3043 46.0691 22.6099C45.7502 22.9025 45.6357 22.9104 45.233 22.6563C44.9969 22.4828 44.6871 22.159 44.5613 21.9203C44.375 21.5534 44.3801 21.461 44.6905 21.1287C45.1341 20.6434 45.2349 20.6882 45.8924 21.5518ZM47.2551 22.8039C47.1735 23.1203 46.3607 23.5852 46.1993 23.4123C46.0639 23.2836 46.1398 23.1344 46.4146 22.8679C46.7997 22.5363 47.3367 22.4875 47.2551 22.8039ZM48.0922 23.189C48.0379 23.3999 47.199 23.8206 47.1163 23.7055C47.0427 23.5552 47.7598 22.9531 47.9705 23.0075C48.0583 23.0302 48.1104 23.1187 48.0922 23.189Z" fill="#F5F5F5"/>
<path d="M41.7306 18.8076C41.2418 18.8875 41.2418 18.8875 41.623 19.0798C42.0965 19.2772 42.5542 19.2454 42.6176 18.9993C42.6766 18.7708 42.356 18.7067 41.7306 18.8076Z" fill="#F5F5F5"/>
<path d="M40.0738 19.2044C39.6949 19.294 39.5046 19.451 39.5295 19.645C39.5459 19.7992 39.5578 19.971 39.5487 20.0062C39.5397 20.0413 39.6359 20.1037 39.7589 20.1355C40.0925 20.2217 41.0254 19.5816 40.9393 19.3343C40.8623 19.0519 40.7524 19.0423 40.0738 19.2044Z" fill="#F5F5F5"/>
<path d="M42.3049 20.2122C42.4283 20.7503 42.7557 21.0787 42.7019 20.6335C42.677 20.4396 42.6787 20.2151 42.7014 20.1272C42.724 20.0393 42.6193 19.9372 42.4788 19.9009C42.2681 19.8465 42.2148 19.9077 42.3049 20.2122Z" fill="#F5F5F5"/>
<path d="M43.2211 22.9051C43.3281 23.289 43.5496 23.665 43.6985 23.741C44.15 23.9514 44.0996 23.6384 43.5423 22.8944C43.0241 22.2167 43.0241 22.2167 43.2211 22.9051Z" fill="#F5F5F5"/>
<path d="M40.0016 23.4793C39.0703 24.476 38.9225 24.8316 39.2272 25.2478C39.5319 25.664 39.8502 25.4463 40.138 24.6207C40.2553 24.2386 40.4745 23.7515 40.6128 23.506C41.1033 22.6203 40.8088 22.6004 40.0016 23.4793Z" fill="#F5F5F5"/>
<path d="M43.6294 24.1543C42.9265 24.6289 41.2917 26.1751 41.3568 26.2856C41.5131 26.551 42.1226 26.221 42.8318 25.5044C43.8027 24.4991 44.2536 24.2031 44.436 24.5128C44.5141 24.6454 44.4291 24.8297 44.168 25.0435C43.6367 25.5061 43.6401 25.6383 44.1668 25.7744C44.5004 25.8606 44.6947 25.7608 45.0057 25.3537C45.4323 24.789 45.724 24.6019 45.8497 24.8406C45.9063 24.9115 45.746 25.17 45.52 25.3929C44.966 25.9434 45.1484 26.253 45.7499 25.8085C46.2677 25.3986 46.5968 24.9212 46.4926 24.7443C46.4535 24.6779 45.8967 24.4403 45.2561 24.2372C44.1902 23.868 44.0407 23.8669 43.6294 24.1543Z" fill="#F5F5F5"/>
<path d="M41.1338 23.8094C41.05 23.844 40.9611 23.971 40.9339 24.0764C40.9067 24.1819 40.999 24.187 41.1536 24.0957C41.2862 24.0175 41.3751 23.8905 41.3536 23.8287C41.3145 23.7623 41.2046 23.7527 41.1338 23.8094Z" fill="#F5F5F5"/>
<path d="M34.1358 24.4382C33.5818 24.9888 32.5497 25.9408 31.8326 26.5429C31.1154 27.145 30.447 27.7035 30.3496 27.7908C30.2255 27.9088 30.37 28.0023 30.7959 28.0937C31.3799 28.2258 31.4949 28.143 33.5324 26.2697C35.5965 24.3658 35.9834 23.8095 35.4312 23.5543C35.2471 23.4693 34.8138 23.7698 34.1358 24.4382Z" fill="#F5F5F5"/>
<path d="M35.9459 25.2623C35.0306 25.9069 32.9845 27.7406 33.0451 27.8687C33.0887 27.9175 33.4224 28.0037 33.8092 28.0287C34.451 28.082 34.6232 27.9953 35.9521 26.7638C37.0108 25.7812 37.3393 25.3786 37.2442 25.1666C37.0409 24.7203 36.7152 24.7486 35.9459 25.2623ZM35.7958 25.9172C35.5794 26.03 35.5664 26.0079 35.7352 25.789C35.8332 25.6269 35.9612 25.5662 36.0003 25.6326C36.0394 25.6989 35.9504 25.8259 35.7958 25.9172Z" fill="#F5F5F5"/>
<path d="M43.6264 26.8534C43.2741 26.9123 41.7447 27.3233 40.259 27.7831C38.3547 28.3409 36.8525 28.6464 35.2416 28.7926C33.974 28.915 32.3138 29.1796 31.5599 29.416C30.8105 29.6349 29.9292 29.8571 29.621 29.8899C29.2778 29.9137 29.101 30.018 29.1792 30.1507C29.2443 30.2613 30.8801 30.8903 32.8234 31.5612C34.7667 32.2322 36.4642 32.8396 36.6086 32.9332C36.7576 33.0092 37.7578 33.3427 38.8504 33.6813C41.8387 34.5848 43.4207 35.3498 44.4855 36.4499C45.8209 37.8075 45.98 38.8611 45.3896 42.4583C45.0524 44.5648 45.0524 44.5648 44.3449 45.0569C43.4828 45.6403 43.1366 46.6196 43.567 47.2745C43.78 47.6108 43.7828 47.8178 43.5681 48.2873C43.2237 49.042 42.8345 49.3164 41.4807 49.7727C40.7665 50.0006 40.3643 50.2529 40.3099 50.4639C40.1785 50.9736 40.5127 50.985 41.7169 50.5275C43.9486 49.7168 44.4964 48.8271 45.8686 43.6508C46.8692 39.9158 46.9293 38.9564 46.2118 37.3086C45.5288 35.7446 44.7195 35.1792 41.6224 34.1164C40.2098 33.6388 37.7097 32.7303 36.1046 32.1279C34.4864 31.5035 32.5782 30.8416 31.8934 30.6647C30.6116 30.3334 30.6116 30.3334 32.1144 29.9531C33.1192 29.6878 34.1359 29.5943 35.1736 29.6375C36.7431 29.7243 36.7431 29.7243 37.9183 30.7593C38.5606 31.319 39.2737 31.822 39.5019 31.881C39.8752 31.9587 39.8537 31.8969 39.3513 31.4483C38.3771 30.5778 38.8818 30.727 39.9217 31.6332C40.8568 32.4373 41.9822 33.0844 42.0456 32.8383C42.0728 32.7329 40.6308 31.4977 39.8345 30.9545C39.6725 30.8564 39.5768 30.7191 39.6385 30.6976C39.8419 30.5626 41.5054 31.5925 42.7599 32.6104C43.4418 33.1616 44.1945 33.6562 44.4494 33.6845C44.8493 33.7316 44.8102 33.6653 44.1328 33.0965C43.5342 32.5855 43.456 32.4528 43.7506 32.4727C44.5594 32.5317 45.883 33.7175 47.0661 35.4482C48.1014 36.9532 48.6213 37.9875 48.3228 37.9104C48.2526 37.8922 47.8827 37.3654 47.4829 36.7371C47.0876 36.0912 46.7432 35.6835 46.707 35.8241C46.5891 36.2811 47.3486 37.6211 48.53 38.9951C49.6939 40.3646 49.9617 40.9963 48.897 39.8961C47.8413 38.7609 47.8719 38.7875 48.0655 39.3438C48.1856 39.7498 50.0801 41.6268 50.9421 42.2058C51.0339 42.2858 51.0463 42.3828 50.958 42.4349C50.8696 42.4871 50.4227 42.2591 49.9679 41.9166C49.5176 41.5565 49.0453 41.2094 48.9535 41.1294C48.8442 41.045 48.7253 41.0705 48.6981 41.1759C48.6074 41.5275 49.9361 42.6208 51.5962 43.5186C53.5321 44.5813 54.4491 44.8746 54.7114 44.5111C55.2139 43.7973 54.5225 41.6124 53.1355 39.5103C52.692 38.8332 52.0492 37.7672 51.7242 37.1395C51.3815 36.5072 51.0553 36.0291 50.989 36.0683C50.9228 36.1074 51.1283 36.8355 51.4517 37.6877C51.9341 39.0124 52.3911 41.3803 52.2505 41.9252C52.2234 42.0307 52.0823 42.0693 51.9418 42.033C51.8014 41.9967 51.7057 41.8594 51.7419 41.7188C51.7737 41.5958 51.6565 40.8155 51.4866 40.0217C51.2703 38.9721 50.8858 38.0665 50.1954 36.8944C49.0361 34.9261 48.391 34.1594 46.4036 32.3521C45.2199 31.2775 44.8699 31.0371 44.6184 31.1408C44.3799 31.2667 44.3018 31.134 44.197 30.4507C44.1127 29.9789 44.0555 29.4017 44.0442 29.155C44.0284 28.9259 43.9332 28.7139 43.8279 28.6866C43.6523 28.6413 43.5469 29.1952 43.4244 30.8323C43.3932 31.4617 43.3711 31.4747 43.1191 31.0721C42.832 30.6604 42.7176 29.5059 42.8854 28.8555C42.9352 28.6622 42.9194 28.4331 42.8452 28.3577C42.771 28.2823 42.0448 28.3383 41.2388 28.4863C39.6268 28.7821 39.5345 28.777 39.5934 28.5485C39.6387 28.3727 43.4496 27.5389 44.1752 27.5577C44.6062 27.5566 44.6628 27.6275 44.6639 28.059C44.6707 28.3232 44.8214 28.7559 44.9952 29.0258C45.1867 29.3003 45.3073 29.6314 45.2755 29.7545C45.2438 29.8775 45.3746 30.0238 45.5678 30.0737C45.7609 30.1237 45.9507 30.0414 45.9869 29.9008C46.1456 29.2856 46.6973 29.6157 48.2196 31.2653C49.0788 32.2185 50.2654 33.5001 50.8368 34.1165C51.4213 34.755 52.8876 36.8401 54.0911 38.7823C55.8683 41.6227 56.2539 42.3786 56.0936 42.6372C55.479 43.6408 55.3872 44.142 55.6715 44.928C55.8221 45.3606 55.9376 45.7842 55.9195 45.8545C55.847 46.1357 54.2848 46.2383 54.1415 45.995C54.0633 45.8623 53.8051 45.7018 53.5592 45.6383C53.3004 45.5526 52.5431 45.0757 51.8522 44.5597C49.88 43.0563 49.9729 43.5678 52.013 45.3887C52.9084 46.2013 53.2545 46.3845 54.2553 46.6431C55.7432 47.0464 56.2332 46.8168 56.7091 45.5523C57.262 43.9891 57.0412 42.957 55.5789 40.348C54.8585 39.0744 54.0306 37.4918 53.7146 36.8289C53.2037 35.7594 50.5991 32.4239 49.5156 31.4689C49.3015 31.2824 48.2718 30.1913 47.2161 29.056C45.1919 26.883 44.8374 26.6601 43.6264 26.8534ZM42.0062 29.9408C41.8549 30.1642 41.1203 30.1806 40.1806 29.9752C39.4035 29.7932 39.6245 29.6627 40.7505 29.6538C41.9116 29.6539 42.162 29.6998 42.0062 29.9408Z" fill="#F5F5F5"/>
<path d="M37.6479 26.4333C37.0549 26.9175 37.1976 27.2357 37.9333 27.0696C38.2726 26.9885 38.5513 26.7793 38.6012 26.5859C38.7281 26.0938 38.1702 26.0058 37.6479 26.4333Z" fill="#F5F5F5"/>
<path d="M25.8163 23.582C25.6073 23.8842 25.895 24.8022 26.2286 24.8884C26.5271 24.9656 26.6398 24.601 26.513 23.9307C26.4117 23.3796 26.0832 23.2009 25.8163 23.582Z" fill="#F5F5F5"/>
<path d="M25.244 26.5277C24.3411 27.2693 24.3411 27.2693 23.2797 26.8825C21.9945 26.4191 21.4089 26.5115 20.0081 27.3682C18.2362 28.4289 15.4255 30.7587 14.3249 32.0492C13.171 33.4009 12.3898 34.9052 12.3297 35.8646C12.2804 36.5643 13.1514 38.2706 13.5297 38.2558C13.8951 38.219 14.1058 37.6923 13.7898 37.6106C13.6317 37.5697 13.3791 37.242 13.1974 36.8575C12.8944 36.2167 12.8955 36.067 13.2553 35.0351C13.4536 34.4114 13.909 33.5166 14.2557 33.0437C15.6787 31.0116 19.5464 27.9238 21.2655 27.4306C22.0942 27.1948 23.1092 27.3259 23.4932 27.7251C23.7984 28.0665 24.5875 27.8391 25.4898 27.1724C26.1713 26.636 26.6165 25.9261 26.2829 25.8399C26.2127 25.8218 25.7397 26.1308 25.244 26.5277Z" fill="#F5F5F5"/>
<path d="M26.016 27.9646C25.7112 28.1296 25.6981 28.6887 26.0142 28.7703C26.4883 28.8928 26.8944 28.6978 26.8531 28.3497C26.8203 28.0412 26.2856 27.7905 26.016 27.9646Z" fill="#F5F5F5"/>
<path d="M21.6982 28.3674C21.5781 28.5426 20.9669 29.0971 20.3121 29.6029C19.3474 30.366 19.0647 30.518 18.7668 30.366C18.5346 30.2497 18.2265 30.2826 17.8996 30.4606C17.1973 30.8603 15.806 32.1882 15.7154 32.5397C15.6746 32.6979 15.5415 32.851 15.4401 32.8811C15.3166 32.9242 15.2316 33.1084 15.239 33.2978C15.2463 33.4872 15.1614 33.6715 15.0379 33.7146C14.7733 33.7962 14.6192 34.3939 14.8243 34.6156C15.0774 34.8685 15.5023 34.5283 15.3199 34.2187C15.0724 33.7985 15.2101 33.6278 15.542 33.9386C15.7691 34.1473 15.7979 34.3985 15.6665 34.9082C15.5215 35.4707 15.3883 35.6238 14.8281 35.8353C14.4577 35.9645 14.1048 36.0983 14.0606 36.1244C14.021 36.1329 14.0374 36.2871 14.124 36.4595C14.1931 36.6274 14.2135 36.8389 14.1642 36.9574C14.0974 37.0714 14.1489 37.2347 14.2627 37.3016C14.4989 37.4751 15.2138 36.5912 15.884 35.2269C16.9649 33.0689 18.2955 31.6128 20.9889 29.6653C21.5905 29.2208 22.1354 28.7054 22.1853 28.512C22.294 28.0902 21.9825 27.9909 21.6982 28.3674ZM16.1124 33.5423C16.2285 33.891 15.9996 33.9069 15.8309 33.5445C15.7312 33.35 15.7584 33.2446 15.8637 33.2718C15.9691 33.299 16.0869 33.4232 16.1124 33.5423Z" fill="#F5F5F5"/>
<path d="M25.4783 29.8318C23.9603 29.9082 23.4567 30.1905 21.7285 31.8813C19.6813 33.8646 19.7657 33.7552 20.2579 33.8074C20.5479 33.8449 21.039 33.4655 22.0366 32.4297C23.2822 31.1579 24.3041 30.3908 24.6377 30.477C24.7079 30.4951 24.9146 31.0735 25.0986 31.7398C25.4837 33.1518 25.9045 33.9167 25.6842 32.8098C25.6123 32.435 25.4759 31.8748 25.4079 31.5572C25.1775 30.6352 25.5088 31.0208 26.3368 32.6035C26.7791 33.4303 27.5442 34.6029 28.0279 35.1967C29.0043 36.349 30.0487 37.2376 30.1167 36.9739C30.1575 36.8157 29.5922 35.9572 29.0859 35.4513C28.8503 35.203 28.8724 35.1899 29.2887 35.3913C29.7577 35.6062 29.7361 35.5444 29.0548 34.3371C28.651 33.6516 28.335 32.9887 28.3622 32.8832C28.3894 32.7777 28.6987 33.1764 29.0679 33.778C29.4196 34.3751 29.7724 34.8226 29.8387 34.7834C30.0154 34.6791 29.0544 32.6683 28.6353 32.26C28.4212 32.0735 28.2558 31.8433 28.2785 31.7554C28.3011 31.6675 28.3935 31.6726 28.4807 31.7701C28.5724 31.8501 28.7395 31.8558 28.8636 31.7378C29.0143 31.5893 29.2759 31.8819 29.8842 32.864C30.7314 34.2267 31.0078 34.3169 30.9241 33.189C30.8958 32.863 30.9213 32.4008 30.9757 32.1899C31.0709 31.8208 30.9967 31.7454 30.4173 31.5956C30.0485 31.5003 29.1939 31.1107 28.5238 30.7313C27.1356 29.9413 26.5607 29.774 25.4783 29.8318ZM27.2188 31.144C27.2488 31.2455 27.1559 31.3153 27.0154 31.279C26.8574 31.2381 26.7571 31.1185 26.7798 31.0306C26.807 30.9251 26.8954 30.873 26.9832 30.8956C27.0885 30.9229 27.1933 31.0249 27.2188 31.144Z" fill="#F5F5F5"/>
<path d="M31.5614 32.0975C31.5251 32.2382 31.8406 32.9759 32.2613 33.7409C32.6821 34.5058 33.0066 35.2084 32.984 35.2963C32.9658 35.3666 33.0882 35.4732 33.2638 35.5186C33.4393 35.564 33.8415 35.3117 34.2137 34.9579C34.8385 34.3506 36.2234 33.8461 36.4058 34.1557C36.4448 34.222 36.195 34.6824 35.8438 35.1729C35.0122 36.3642 35.2036 36.6386 36.2872 35.85C37.1675 35.1962 38.3479 34.9763 38.886 35.3591C39.1397 35.5372 39.1131 35.5678 38.6843 35.8507C38.1892 36.1727 36.9084 38.0166 36.8874 38.4612C36.8818 38.6285 37.293 38.341 37.8555 37.8302C38.768 36.9785 40.3484 36.2245 40.8927 36.3652C41.2088 36.4469 41.2444 36.3811 39.9705 37.908C39.2426 38.7698 38.8823 39.2955 38.9735 39.4503C39.1428 39.7378 39.6469 39.3806 40.6365 38.2301C41.484 37.2679 41.8647 36.3726 41.5724 36.0534C41.4676 35.9513 40.9069 35.6564 40.289 35.3655C39.2723 34.8777 38.4391 34.5499 33.7987 32.8632C32.9083 32.5394 32.0491 32.1673 31.9046 32.0737C31.7166 31.9314 31.5976 31.9569 31.5614 32.0975Z" fill="#F5F5F5"/>
<path d="M18.8855 34.4089C17.8891 34.7139 17.5702 35.0065 15.5717 37.5274C14.5192 38.849 12.7173 40.9707 11.5464 42.2431C9.48394 44.5037 9.11517 44.9896 9.54282 44.8564C9.82943 44.7617 9.76201 44.9505 8.75876 46.7349C7.666 48.7211 7.28134 49.5592 6.19021 52.4833C5.45372 54.4678 5.3404 54.9073 5.34656 55.8276C5.35325 57.2542 5.59049 58.4405 6.06337 59.2939C6.55778 60.2091 6.81553 59.8633 6.44121 58.7728C5.97233 57.3955 5.90795 54.8852 6.36447 55.0032C6.46982 55.0304 6.50832 55.1716 6.46753 55.3298C6.25903 56.1384 7.2783 59.7391 7.73481 59.8571C8.03331 59.9342 8.00048 59.6258 7.50951 58.2615C7.07063 56.9856 6.80453 55.5481 7.07072 55.8232C7.12736 55.8941 7.35557 56.5343 7.55263 57.2227C7.97676 58.7009 8.55271 59.881 8.939 59.9808C9.23749 60.0579 9.17126 59.5159 8.77934 59.0021C8.46615 58.5462 7.70846 56.4005 7.60034 55.5851C7.45824 54.6109 7.77315 54.8423 8.16445 56.0121C8.55971 57.2392 9.28973 58.4028 9.99827 58.9234C10.6893 59.4394 10.9238 59.2563 10.3965 58.6138C9.4988 57.5194 9.07802 56.7544 8.57006 55.3107C8.07512 53.8891 8.06324 53.7173 8.30127 51.9226C8.5767 49.8377 9.33251 47.0519 9.61345 47.1245C9.7188 47.1517 9.61961 48.0448 9.37313 49.2185C9.11644 50.5771 9.01157 51.6375 9.07666 52.3293C9.21021 53.845 9.35064 54.4625 9.54378 54.5124C9.75448 54.5668 9.75395 54.0605 9.56886 52.3815C9.36736 50.5482 9.6251 50.2024 9.94217 51.878C10.403 54.3032 11.4157 55.8961 12.941 56.5903C13.6246 56.9169 14.5229 56.7741 14.6363 56.3347C14.6906 56.1237 13.3104 54.8671 13.1291 54.989C13.085 55.015 13.1404 55.2356 13.2662 55.4744C13.3919 55.7131 13.4038 55.8849 13.2984 55.8577C13.1931 55.8305 13.0271 55.6751 12.9405 55.5027C12.8538 55.3303 12.3855 54.4593 11.9171 53.5883C10.9023 51.7136 10.4255 49.6405 10.4614 47.2499C10.495 44.5775 10.4768 44.6478 11.3957 43.554C11.8573 42.9984 13.1234 41.3569 14.2121 39.8946C15.2833 38.4278 16.2605 37.1804 16.393 37.1021C16.5256 37.0239 16.6389 37.1657 16.6983 37.4435C16.8472 38.1007 17.5285 39.308 17.9828 39.7254C18.1968 39.9119 18.8233 40.2426 19.3891 40.445C20.8714 41.0156 22.8084 41.9287 24.797 43.005C26.3563 43.858 26.7278 44.1602 28.4337 45.9698C30.9031 48.5953 31.2684 49.1397 31.2343 50.1434C31.2156 50.8697 31.1442 51.0013 30.4713 51.5773C29.6743 52.2713 29.4069 52.7272 29.9586 52.476C30.1483 52.3938 30.32 52.3819 30.3721 52.4704C30.5153 52.7137 29.7031 53.1037 28.4122 53.3888C27.6985 53.5419 27.1032 53.7443 27.0851 53.8146C27.0035 54.131 28.1374 54.2365 28.9661 54.0007C29.8214 53.7343 29.8214 53.7343 29.0884 54.1073C28.0949 54.6193 27.6027 54.5671 26.7458 53.8956C26.3567 53.5888 25.9846 53.3614 25.9183 53.4006C25.8741 53.4266 26.0134 53.6126 26.2626 53.8083C26.5118 54.0039 26.8743 54.3413 27.0573 54.5761C27.5103 55.1432 27.8836 55.2209 28.5112 54.8206C28.8029 54.6335 29.4781 54.3393 30.0117 54.1584C30.5407 53.9952 31.0573 53.7349 31.1508 53.5903C31.2618 53.4503 31.5038 52.2941 31.7072 50.9968C32.0166 49.0706 32.0467 48.5909 31.8162 48.2501C31.6729 48.0068 30.0395 46.4972 28.1959 44.8584C26.3303 43.2325 24.4561 41.567 24.0064 41.1321C23.5698 40.7192 22.7825 40.1408 22.2745 39.8595C21.0307 39.1631 19.3134 37.6881 18.6961 36.7411C18.2221 36.0374 18.2096 35.9404 18.5064 35.6609C18.8786 35.3071 19.3136 35.3633 19.8726 35.8827C21.2749 37.1263 22.2423 37.7326 22.3194 37.4338C22.3375 37.3634 22.1733 36.9835 21.9388 36.5854C21.5265 35.8602 21.5265 35.8602 21.9831 35.9781C22.264 36.0508 22.9669 36.7386 23.8124 37.7446C25.7783 40.0713 27.4763 41.1851 30.5394 42.0892C31.7594 42.4419 32.733 42.8061 32.7104 42.8939C32.6424 43.1576 28.609 42.0215 27.5754 41.4544C26.6425 40.9321 26.2517 40.8499 26.5038 41.2525C26.8124 41.726 27.8772 42.2449 29.637 42.7559C30.6815 43.0633 31.5588 43.3651 31.5849 43.4093C31.6109 43.4535 31.0349 43.4359 30.3008 43.3774C29.5668 43.319 28.8282 43.2781 28.6741 43.2945C28.1456 43.3829 30.4237 43.9904 31.2416 44.0143C31.6726 44.0132 32.3449 44.0932 32.7137 44.1885C33.1351 44.2974 33.6103 44.2702 33.9456 44.1319C34.793 43.7509 35.0286 43.9993 34.2164 44.3893C33.3599 44.8055 33.3706 45.127 34.2175 44.8208C35.2319 44.4455 35.4166 44.4558 34.6921 44.8685C33.8617 45.3289 33.8039 45.4077 34.2604 45.5257C34.6643 45.63 35.9728 44.7682 36.0861 44.3288C36.2039 43.8718 36.0295 43.6767 34.3236 42.4484C33.5012 41.8609 32.6046 41.1979 32.3554 41.0023C31.4418 40.26 27.7088 37.8141 26.2503 37.0059C22.6725 34.9751 20.0274 34.0478 18.8855 34.4089ZM18.2611 37.2662C18.3313 37.2843 18.8467 37.755 19.3966 38.3096C19.9772 38.8908 21.3416 39.9184 22.5191 40.6539C23.679 41.3849 24.519 41.977 24.387 41.9804C24.2726 41.9883 23.3216 41.5363 22.2925 40.9516C19.358 39.3308 17.5813 37.578 17.8612 36.6379C18.0012 36.1678 18.0012 36.1678 18.0719 36.6923C18.1047 37.0008 18.1908 37.248 18.2611 37.2662ZM27.5048 39.1863C28.4937 39.8543 31.0481 41.1332 31.6802 41.2965C32.1192 41.41 31.538 41.4848 31.0022 41.3838C29.7504 41.1541 26.7248 39.3784 26.2689 38.6044C26.0735 38.2727 26.1568 38.3129 27.5048 39.1863ZM33.5395 43.7457C32.9969 43.9617 32.716 43.8891 33.083 43.6277C33.2422 43.5189 33.5022 43.4548 33.6602 43.4956C33.8839 43.5722 33.8749 43.6074 33.5395 43.7457Z" fill="#F5F5F5"/>
<path d="M47.2842 42.5917C47.1686 42.7493 47.0055 43.3821 46.895 44.0285C46.7714 44.6528 46.6088 45.2108 46.4899 45.2363C46.3885 45.2663 46.2089 45.7449 46.0684 46.2898C45.9409 46.8568 45.7687 47.5248 45.7007 47.7884C45.5653 48.2409 46.2227 50.267 46.6197 50.6883C47.0037 51.0875 46.9896 50.6339 46.604 49.2968C46.0338 47.3683 46.313 47.0842 46.932 48.9691C47.2072 49.7902 47.4348 50.5052 47.4342 50.5801C47.4512 50.6595 47.0309 50.9821 46.5138 51.3171C45.6828 51.8524 45.5684 51.8603 45.5576 51.5388C45.5107 50.7767 45.2185 49.295 45.1132 49.2678C45.0605 49.2542 44.8039 49.4503 44.5558 49.6862C44.1168 50.154 44.1168 50.154 44.4894 50.8877C44.6973 51.3164 44.9346 51.9215 45.0025 52.239C45.1299 52.8344 45.1299 52.8344 46.5171 52.0305C48.8055 50.7095 52.5739 49.6772 54.6929 49.8123C55.3743 49.8571 55.841 49.7903 55.8727 49.6672C55.9045 49.5442 55.8614 49.4206 55.7561 49.3933C55.6683 49.3707 55.5295 49.1098 55.4571 48.8098C55.3551 48.3335 55.2328 48.2269 54.3945 47.9915C53.0516 47.607 51.6272 46.3764 49.5571 43.8728C49.2303 43.4696 48.9075 43.1237 48.8548 43.1101C48.8021 43.0965 48.6027 43.2887 48.4379 43.5648C48.0108 44.2044 47.7389 44.0966 48.0652 43.4123C48.2488 42.991 48.2539 42.8985 48.033 43.0289C47.8562 43.1333 47.6766 43.6118 47.467 44.5701C47.2063 45.8714 47.2137 46.0608 47.5863 46.7946C47.7942 47.2233 47.9578 47.678 47.9306 47.7835C47.9034 47.889 48.0439 48.5065 48.2455 49.1773C48.5416 50.135 48.5614 50.4214 48.3411 50.4769C48.1559 50.5416 47.935 50.0908 47.5794 48.8552C46.7175 45.9513 46.7385 46.088 47.1793 44.2332C47.6059 42.5061 47.6354 42.1012 47.2842 42.5917ZM49.2273 45.5875C49.3858 47.2971 49.845 49.3657 50.0732 49.4247C50.4244 49.5154 50.4488 48.6218 50.1136 48.1789C49.9873 48.015 49.9618 47.8959 50.045 47.9362C50.4353 48.0933 50.4625 47.9878 50.3323 47.1855C50.0073 45.3953 50.598 45.7917 51.1331 47.7112C51.4967 49.0613 51.2553 49.5614 50.1004 49.9004C49.6155 50.0376 49.1618 50.1266 49.074 50.1039C48.8985 50.0585 48.0599 45.8295 48.146 45.4955C48.1732 45.3901 48.4088 46.2197 48.6551 47.3708C49.1817 49.8317 49.6348 50.3988 49.1779 48.0308C48.8868 46.3994 48.8156 44.7874 49.0439 44.8464C49.1141 44.8645 49.1951 45.2042 49.2273 45.5875ZM49.9495 45.4741C50.0565 45.858 49.9777 46.9626 49.8372 46.9263C49.7143 46.8945 49.4567 45.4968 49.5202 45.2507C49.5655 45.0749 49.8765 45.249 49.9495 45.4741ZM53.8977 48.5381C54.9512 48.8104 54.9937 49.0088 54.0212 49.0762C53.3964 49.1023 53.2735 49.0705 53.1614 48.779C53.0793 48.5891 52.9439 48.4604 52.8731 48.5171C52.6964 48.6214 52.326 48.1694 52.3894 47.9233C52.4121 47.8354 52.5656 47.8939 52.714 48.0447C52.8844 48.1825 53.4061 48.4111 53.8977 48.5381Z" fill="#F5F5F5"/>
<path d="M50.646 48.1477C50.6052 48.3059 50.6613 48.4517 50.7491 48.4744C50.8544 48.5016 50.9428 48.4494 50.9654 48.3615C50.9926 48.2561 50.9541 48.1149 50.8624 48.0349C50.7882 47.9595 50.6823 48.0071 50.646 48.1477Z" fill="#F5F5F5"/>
<path d="M18.6061 35.8554C18.4928 36.2949 22.1255 39.7835 22.479 39.5749C22.6953 39.4621 22.0633 38.7175 20.8575 37.6559C20.2764 37.1495 19.5995 36.5059 19.3509 36.2354C18.8712 35.6989 18.6741 35.5917 18.6061 35.8554Z" fill="#F5F5F5"/>
<path d="M34.506 41.0144C34.4789 41.1198 35.7068 42.1684 36.3281 42.5914C36.6651 42.8098 36.9567 43.2039 37.0553 43.5481C37.1832 44.0686 37.2926 44.1531 38.1484 44.393C38.6751 44.5292 39.1798 44.6783 39.2982 44.7277C39.548 44.8485 39.3354 46.7622 38.796 49.4351C38.4169 51.2683 38.2911 51.6108 38.0402 51.6397C37.8862 51.6561 37.5587 51.909 37.3191 52.1846C36.9107 52.679 36.8881 52.7669 37.0194 53.4195C37.1417 54.1074 37.1281 54.1601 36.6936 54.6103C35.7805 55.5368 35.2787 55.5946 33.422 55.096C32.5135 54.8425 31.7098 54.691 31.6344 54.7653C31.4883 54.8962 32.1544 55.2184 33.9527 55.8706C35.444 56.406 35.7527 56.2983 37.4192 54.6291C38.8019 53.2615 38.7662 53.3273 39.4814 48.956C39.9478 46.058 39.9586 44.6359 39.4829 44.1567C39.2518 43.8907 34.5287 40.9265 34.506 41.0144Z" fill="#F5F5F5"/>
<path d="M11.2398 37.4766C10.9118 37.8043 6.42736 39.8702 5.08267 40.2914C4.87989 40.3515 4.66294 40.5392 4.61761 40.7149C4.53602 41.0313 5.21508 41.9568 5.61893 42.0612C5.95254 42.1474 10.9082 39.997 10.6981 39.8677C10.3962 39.6584 8.61992 40.1556 7.09736 40.8308C5.69827 41.4629 5.14318 41.582 5.23383 41.2304C5.29275 41.0019 7.49561 39.94 9.03913 39.4015C10.5033 38.8799 11.626 38.7388 12.4863 38.9612C12.9078 39.0701 13.106 39.0275 13.1513 38.8518C13.1921 38.6936 13.0613 38.5473 12.8506 38.4928C12.6399 38.4384 12.3171 38.0924 12.1262 37.7431C11.9399 37.3763 11.7354 37.0797 11.7003 37.0706C11.6828 37.0661 11.4703 37.2362 11.2398 37.4766Z" fill="#F5F5F5"/>
<path d="M53.6676 50.4473C51.675 50.4761 49.1844 51.2011 47.0863 52.3651C45.6198 53.186 45.4102 53.5631 46.2168 53.9215C46.9095 54.213 49.2034 54.4684 49.2623 54.2398C49.285 54.152 49.2125 53.852 49.118 53.5651C48.9458 53.0706 48.9815 53.0048 49.4517 52.4889C50.0283 51.8504 51.5543 51.3073 52.2566 51.4888C52.5902 51.575 52.8128 51.8013 52.9986 52.243C53.2489 52.8702 53.2489 52.8702 53.7745 52.5748C54.5562 52.1581 55.7299 51.0927 55.6568 50.8676C55.5798 50.5852 54.8509 50.4343 53.6676 50.4473Z" fill="#F5F5F5"/>
<path d="M16.7637 41.5477C13.7997 41.4942 13.4513 41.6104 13.3901 42.7195C13.3583 43.4238 13.5401 43.8082 14.2344 44.4564C15.3394 45.4732 15.6136 45.2815 14.7913 44.1128C14.4911 43.679 14.2748 43.2106 14.311 43.07C14.4062 42.7009 14.5331 42.7899 15.207 43.8078C16.129 45.171 18.3764 46.9142 18.5169 46.3693C18.5396 46.2814 18.2168 45.9355 17.7841 45.58C17.0104 44.9488 16.4882 44.2139 16.7137 44.0659C16.7799 44.0268 17.3922 44.485 18.065 45.0714C20.4897 47.2166 22.9178 48.9128 23.013 48.5437C23.0266 48.491 22.5242 48.0424 21.9255 47.5314C20.4875 46.3536 19.3967 45.2093 19.7224 45.1809C19.8543 45.1775 20.248 45.4668 20.6235 45.8263C21.5008 46.7092 23.7799 48.3294 25.2299 49.0978C26.3819 49.7143 26.417 49.7234 27.2145 49.5357C27.6728 49.4292 28.0698 49.2693 28.097 49.1638C28.1242 49.0584 27.947 48.6563 27.7255 48.2804C27.4911 47.8823 27.3183 47.4627 27.3546 47.3221C27.5178 46.6893 25.5303 45.4632 22.3993 44.2416C21.851 44.0436 21.4308 43.785 21.458 43.6796C21.4942 43.5389 21.9904 43.6484 23.0609 44C24.785 44.5769 25.1685 44.4697 23.8499 43.7727C23.0615 43.344 20.5897 42.7615 18.0505 42.3677C17.2377 42.2514 17.2377 42.2514 17.8325 42.1239C18.1672 42.0604 18.6685 42.0775 18.9891 42.1416C19.2876 42.2187 19.6263 42.2125 19.7016 42.1382C19.7815 42.0464 19.747 41.9624 19.5889 41.9216C19.4485 41.8853 19.2468 41.7957 19.1154 41.7242C19.0061 41.6397 17.9379 41.5699 16.7637 41.5477Z" fill="#F5F5F5"/>
<path d="M9.87727 41.3805C9.7181 41.4893 8.94152 41.8136 8.17854 42.0852C6.76304 42.5631 6.27193 42.9424 7.0989 42.9311C7.32773 42.9152 7.9083 42.9153 8.39655 42.9102C9.14421 42.9159 9.33397 42.8337 9.81773 42.265C10.1372 41.8976 10.404 41.5166 10.4267 41.4287C10.4947 41.1651 10.2001 41.1452 9.87727 41.3805Z" fill="#F5F5F5"/>
<path d="M51.68 52.1273C51.6528 52.2327 51.7558 52.5594 51.9206 52.8644C52.2027 53.3685 52.1981 53.3861 51.7835 53.5415C51.4085 53.6883 51.3779 53.6616 51.2993 53.0226C51.1957 52.1896 50.9193 52.0994 50.1585 52.6528C49.566 53.0621 49.566 53.0621 49.9573 54.232C50.168 54.8676 50.7003 56.5801 51.1465 58.0454C51.9444 60.6889 52.3765 61.7005 52.8873 62.1888C53.4027 62.6595 53.4407 62.2943 52.9809 61.463C52.7203 61.0207 52.3109 59.9212 52.0493 59.0474C51.1756 55.9717 51.2125 54.5938 52.2287 53.994C52.5379 53.8114 52.79 53.6328 52.8036 53.5801C52.8172 53.5274 52.6881 53.1565 52.5108 52.7545C52.1733 52.0298 51.7842 51.723 51.68 52.1273ZM51.1632 54.1311C51.0862 54.4299 50.7135 54.2774 50.6897 53.9338C50.6863 53.8016 50.7968 53.7364 50.9548 53.7773C51.1129 53.8181 51.204 53.9729 51.1632 54.1311Z" fill="#F5F5F5"/>
<path d="M52.5996 54.3711C52.5498 54.5644 52.5702 54.7759 52.6443 54.8514C52.906 55.144 54.5804 61.0702 54.4937 61.479C54.4382 61.8396 54.1244 61.4586 53.9274 60.7702C53.8073 60.3642 53.3566 58.9165 52.9138 57.5834C52.3163 55.7603 52.0739 55.2477 51.9663 55.5198C51.8768 55.7217 52.007 56.5241 52.2686 57.3979C52.5217 58.232 52.6837 58.9113 52.631 58.8977C52.4379 58.8478 52.9498 60.3488 53.848 62.5308C54.6334 64.4962 55.0644 65.0763 55.4366 64.7225C55.5119 64.6482 55.4542 63.5646 55.3144 62.2911C55.1333 60.6693 54.8185 59.2755 54.238 57.5319C53.7822 56.1766 53.3699 54.8701 53.3059 54.6099C53.1825 54.0717 52.7175 53.9141 52.5996 54.3711Z" fill="#F5F5F5"/>
<path d="M6.57029 44.7631C5.357 45.2558 3.99809 46.3858 3.13081 47.6428C2.19727 48.939 2.60226 48.8937 3.65475 47.572C4.64947 46.3291 6.1987 45.0421 6.58952 45.1243C6.81778 45.1833 8.10813 44.3919 7.87987 44.3329C7.79208 44.3102 7.2013 44.495 6.57029 44.7631Z" fill="#F5F5F5"/>
<path d="M8.28363 45.5997C7.81065 45.9087 7.14391 46.8238 6.59894 47.9204C6.21032 48.7012 6.61192 48.5237 7.19029 47.6607C7.43501 47.2928 7.91085 46.6095 8.253 46.1542C8.57305 45.712 8.8223 45.3264 8.80475 45.3218C8.76963 45.3128 8.53116 45.4386 8.28363 45.5997Z" fill="#F5F5F5"/>
<path d="M3.42755 48.5257C2.14336 50.2375 1.63909 52.3383 2.02749 54.4636C2.27207 55.8392 2.71323 56.8157 2.84015 56.3235C2.87641 56.1829 2.90761 55.5535 2.89463 54.9502C2.89419 53.2814 3.19682 51.091 3.65347 49.4653C3.875 48.6789 4.00759 48.0194 3.95492 48.0058C3.90224 47.9922 3.65413 48.2281 3.42755 48.5257Z" fill="#F5F5F5"/>
<path d="M28.8997 55.7835C28.4579 56.0443 28.0042 56.1332 27.5913 56.064C27.1257 55.9812 25.9486 56.3333 22.9449 57.4506C16.1744 59.957 11.9675 61.3822 11.0607 61.4853C10.5809 61.5301 9.4951 61.4557 8.63417 61.3082C7.30765 61.0779 6.9831 60.9565 6.41049 60.4898C5.71102 59.9341 4.99007 58.7353 4.34788 57.0132C4.08512 56.289 3.93731 56.0634 3.83024 56.2607C3.63367 56.6599 3.98813 58.0451 4.58222 59.1549C5.10268 60.1143 5.10268 60.1143 4.57592 59.9782C3.20636 59.6243 0.766051 54.9251 1.16039 53.3958C1.27371 52.9564 1.13214 52.4886 0.916906 52.4517C0.824581 52.4466 0.918667 51.6459 1.10622 50.7007C1.4445 49.0257 1.43601 48.986 1.0825 49.7759C0.232744 51.6187 0.0132825 55.0118 0.639049 56.5797C0.80724 57.0169 0.811772 56.9993 0.901325 56.2162C0.982385 55.3935 0.982386 55.3935 1.59059 56.9568C1.91395 57.8091 2.5035 58.9364 2.89088 59.4677C3.60053 60.4198 3.60053 60.4198 6.44838 61.2871C10.3407 62.4617 11.0006 62.4447 14.982 61.1675C18.0639 60.1828 30.0206 55.8669 30.1186 55.7047C30.3588 55.3543 29.5228 55.4008 28.8997 55.7835Z" fill="#F5F5F5"/>
<path d="M5.17191 51.0577C5.09996 51.2641 4.91641 51.6854 4.78214 51.9881C4.58499 52.4622 4.58896 52.5194 4.81497 52.2966C4.96112 52.1656 5.12711 51.7398 5.18718 51.3616C5.24271 51.001 5.23932 50.8689 5.17191 51.0577Z" fill="#F5F5F5"/>
<path d="M15.2196 56.5417C14.6781 56.608 14.2137 56.9566 14.4187 57.1784C14.7285 57.5022 16.0624 57.3407 16.1576 56.9715C16.212 56.7606 15.6422 56.5009 15.2196 56.5417Z" fill="#F5F5F5"/>
<path d="M2.77746 75.1636L4.47481 66.6153H1.18457L1.31513 66.0141H8.5615L8.44399 66.6153H5.15375L3.44334 75.1636H2.77746Z" fill="#F5F5F5"/>
<path d="M11.7383 75.1636L13.5662 66.0141H16.7651C17.7748 66.0141 18.5538 66.2363 19.1022 66.6807C19.6593 67.1164 19.9378 67.735 19.9378 68.5367C19.9378 69.321 19.7681 69.9832 19.4286 70.5235C19.0891 71.055 18.606 71.4602 17.9793 71.7391C17.3526 72.0179 16.6084 72.1573 15.7467 72.1573H12.7175L13.0701 71.8567L12.4042 75.1636H11.7383ZM18.0968 75.1636L16.2298 71.8436H16.9609L18.828 75.1636H18.0968ZM13.057 71.8959L12.8351 71.5692H15.7467C16.8608 71.5692 17.7269 71.3208 18.3449 70.8241C18.9629 70.3187 19.2719 69.5737 19.2719 68.589C19.2719 67.9529 19.05 67.4649 18.606 67.1251C18.1708 66.7852 17.5441 66.6153 16.7259 66.6153H13.8274L14.1799 66.2885L13.057 71.8959Z" fill="#F5F5F5"/>
<path d="M22.9612 75.1636L28.9933 66.0141H29.6592L32.0355 75.1636H31.3565L29.1369 66.4193H29.4111L23.7054 75.1636H22.9612ZM25.0111 72.5887L25.3505 72.0266H30.8082L30.9257 72.5887H25.0111Z" fill="#F5F5F5"/>
<path d="M41.2131 75.229C40.3165 75.229 39.5549 75.0721 38.9282 74.7584C38.3015 74.4447 37.8227 74.0047 37.492 73.4383C37.1699 72.8719 37.0089 72.214 37.0089 71.4646C37.0089 70.7239 37.1351 70.0224 37.3875 69.3602C37.64 68.6979 38.0055 68.1097 38.4843 67.5956C38.963 67.0815 39.5419 66.6807 40.2208 66.3931C40.9084 66.0968 41.6831 65.9487 42.5449 65.9487C43.2586 65.9487 43.8897 66.0576 44.438 66.2755C44.9864 66.4933 45.4129 66.8027 45.7176 67.2035L45.2476 67.6348C44.9516 67.2776 44.573 67.0118 44.1116 66.8375C43.659 66.6545 43.1193 66.563 42.4926 66.563C41.7528 66.563 41.0869 66.6937 40.495 66.9552C39.9031 67.2079 39.3982 67.5608 38.9804 68.0139C38.5626 68.4583 38.2406 68.9768 38.0142 69.5693C37.7879 70.1532 37.6748 70.7762 37.6748 71.4385C37.6748 72.0658 37.8097 72.6192 38.0795 73.0984C38.3494 73.5777 38.7498 73.9524 39.2807 74.2225C39.8204 74.484 40.4819 74.6147 41.2653 74.6147C41.892 74.6147 42.4578 74.5232 42.9627 74.3402C43.4762 74.1485 43.9158 73.874 44.2814 73.5167L44.6861 73.9742C44.2944 74.3663 43.7939 74.6757 43.1846 74.9022C42.5753 75.1201 41.9181 75.229 41.2131 75.229ZM40.1686 78C39.9597 78 39.7638 77.9739 39.581 77.9216C39.3982 77.8693 39.2372 77.7865 39.0979 77.6732L39.346 77.3072C39.4592 77.3944 39.5854 77.4597 39.7246 77.5033C39.8726 77.5556 40.0336 77.5817 40.2077 77.5817C40.5037 77.5817 40.7343 77.5077 40.8997 77.3595C41.0651 77.2114 41.1478 77.024 41.1478 76.7975C41.1478 76.6145 41.0825 76.4707 40.952 76.3661C40.8214 76.2703 40.6343 76.2224 40.3905 76.2224H40.1425L40.6778 75.0852H41.1086L40.7561 75.8564C41.0434 75.8912 41.2653 75.9871 41.422 76.144C41.5874 76.3095 41.6701 76.5186 41.6701 76.7713C41.6701 77.1286 41.5308 77.4205 41.2523 77.6471C40.9737 77.8824 40.6125 78 40.1686 78Z" fill="#F5F5F5"/>
<path d="M53.8865 75.229C52.9899 75.229 52.2283 75.0721 51.6016 74.7584C50.9836 74.4447 50.5135 74.0047 50.1915 73.4383C49.8694 72.8719 49.7084 72.214 49.7084 71.4646C49.7084 70.7239 49.8346 70.0224 50.087 69.3602C50.3395 68.6979 50.7007 68.1097 51.1707 67.5956C51.6495 67.0815 52.2239 66.6807 52.8942 66.3931C53.5731 66.0968 54.3348 65.9487 55.1791 65.9487C56.0756 65.9487 56.8372 66.1055 57.464 66.4193C58.0907 66.7329 58.5651 67.173 58.8871 67.7394C59.2092 68.3058 59.3702 68.9637 59.3702 69.7131C59.3702 70.4538 59.244 71.1553 58.9916 71.8175C58.7392 72.4798 58.3736 73.0679 57.8948 73.5821C57.4161 74.0962 56.8372 74.5014 56.1583 74.7977C55.4881 75.0852 54.7308 75.229 53.8865 75.229ZM53.9518 74.6147C54.6742 74.6147 55.327 74.4883 55.9102 74.2356C56.4934 73.9742 56.9896 73.6213 57.3987 73.1769C57.8165 72.7237 58.1342 72.2053 58.3518 71.6214C58.5781 71.0289 58.6913 70.4015 58.6913 69.7392C58.6913 69.1031 58.5564 68.5498 58.2865 68.0792C58.0167 67.6 57.6163 67.2296 57.0853 66.9682C56.5631 66.6981 55.9102 66.563 55.1268 66.563C54.4044 66.563 53.7516 66.6937 53.1684 66.9552C52.5852 67.2079 52.0847 67.5608 51.6669 68.0139C51.2578 68.4583 50.9401 68.9768 50.7137 69.5693C50.4874 70.1532 50.3743 70.7762 50.3743 71.4385C50.3743 72.0658 50.5092 72.6192 50.779 73.0984C51.0489 73.5777 51.4493 73.9524 51.9802 74.2225C52.5112 74.484 53.1684 74.6147 53.9518 74.6147Z" fill="#F5F5F5"/>
<path d="M66.5869 75.229C66.143 75.229 65.7078 75.1767 65.2812 75.0721C64.8634 74.9589 64.4848 74.8107 64.1453 74.6277C63.8146 74.4447 63.5534 74.24 63.3619 74.0134L63.7145 73.5036C63.906 73.7215 64.154 73.9175 64.4587 74.0918C64.772 74.2661 65.1159 74.4012 65.4902 74.497C65.8731 74.5929 66.2561 74.6408 66.6391 74.6408C67.2049 74.6408 67.7054 74.5624 68.1406 74.4055C68.5845 74.2487 68.9284 74.0221 69.1721 73.7258C69.4158 73.4209 69.5377 73.0505 69.5377 72.6148C69.5377 72.2924 69.4463 72.031 69.2635 71.8306C69.0894 71.6301 68.8587 71.4646 68.5715 71.3339C68.2929 71.2032 67.9796 71.0942 67.6314 71.0071C67.2919 70.9113 66.9481 70.8067 66.6 70.6934C66.2605 70.5801 65.9471 70.4451 65.6599 70.2882C65.3813 70.1227 65.1507 69.9092 64.9679 69.6477C64.7938 69.3863 64.7068 69.0552 64.7068 68.6544C64.7068 68.0792 64.8591 67.5913 65.1637 67.1904C65.4771 66.7896 65.8993 66.4846 66.4302 66.2755C66.9612 66.0576 67.5661 65.9487 68.2451 65.9487C68.7673 65.9487 69.2722 66.0184 69.7596 66.1578C70.2471 66.2885 70.6605 66.4846 71 66.746L70.6866 67.295C70.3646 67.051 69.9903 66.8637 69.5638 66.7329C69.1373 66.6022 68.689 66.5369 68.219 66.5369C67.6619 66.5369 67.1657 66.6197 66.7305 66.7852C66.304 66.9421 65.9689 67.173 65.7252 67.478C65.4902 67.783 65.3726 68.1533 65.3726 68.589C65.3726 68.9114 65.4597 69.1772 65.6338 69.3863C65.8079 69.5867 66.0342 69.7567 66.3127 69.8961C66.6 70.0268 66.9177 70.1401 67.2658 70.2359C67.614 70.3318 67.9578 70.4364 68.2973 70.5496C68.6368 70.6542 68.9501 70.7893 69.2374 70.9548C69.5246 71.1117 69.7553 71.3165 69.9294 71.5692C70.1122 71.8219 70.2036 72.1443 70.2036 72.5364C70.2036 73.1202 70.0425 73.6126 69.7205 74.0134C69.4071 74.4142 68.9762 74.7192 68.4279 74.9284C67.8882 75.1288 67.2745 75.229 66.5869 75.229Z" fill="#C4A02E"/>
</svg>
