<?xml version="1.0" standalone="no"?>
<!DOCTYPE svg PUBLIC "-//W3C//DTD SVG 20010904//EN"
 "http://www.w3.org/TR/2001/REC-SVG-20010904/DTD/svg10.dtd">
<svg version="1.0" xmlns="http://www.w3.org/2000/svg"
 width="206.000000pt" height="290.000000pt" viewBox="0 0 206.000000 290.000000"
 preserveAspectRatio="xMidYMid meet">

<g transform="translate(0.000000,290.000000) scale(0.100000,-0.100000)"
fill="#000000" stroke="none">
<path d="M1480 2858 c-78 -22 -151 -113 -166 -206 -14 -89 43 -196 134 -249
116 -68 283 -9 336 119 24 57 20 153 -8 214 -49 106 -174 157 -296 122z"/>
<path d="M306 2665 c-60 -21 -124 -90 -143 -154 -29 -102 -1 -204 75 -273 53
-48 99 -62 184 -56 84 6 136 39 183 113 24 39 30 61 33 121 4 64 1 78 -24 124
-63 116 -189 168 -308 125z"/>
<path d="M1525 2146 c-141 -45 -307 -188 -396 -341 -50 -86 -31 -168 39 -168
39 0 60 18 126 113 106 150 222 233 328 234 71 1 103 -20 140 -94 37 -74 48
-154 48 -350 0 -181 -14 -287 -60 -470 -85 -332 -202 -572 -355 -726 -182
-183 -350 -177 -586 22 -217 184 -400 462 -494 752 -126 387 -76 672 119 672
169 0 431 -241 576 -530 76 -151 98 -250 64 -284 -36 -36 -124 18 -276 168
-58 58 -118 108 -132 112 -32 8 -73 -17 -87 -53 -18 -48 7 -91 120 -203 160
-159 256 -209 381 -197 72 6 110 31 147 95 24 41 28 57 27 127 -2 323 -308
767 -633 918 -60 29 -75 31 -171 32 -93 0 -112 -3 -160 -26 -103 -48 -169
-124 -217 -246 -25 -62 -27 -80 -27 -208 1 -120 5 -159 32 -275 80 -347 246
-648 491 -890 212 -210 378 -287 598 -278 97 4 108 7 189 47 237 118 454 462
568 901 46 175 67 339 67 525 1 336 -78 545 -231 614 -53 24 -170 27 -235 7z
m302 -478 c-3 -7 -5 -2 -5 12 0 14 2 19 5 13 2 -7 2 -19 0 -25z m-690 -1474
c-3 -3 -12 -4 -19 -1 -8 3 -5 6 6 6 11 1 17 -2 13 -5z"/>
</g>
</svg>
