<svg width="533" height="567" viewBox="0 0 533 567" fill="none" xmlns="http://www.w3.org/2000/svg">
<path d="M237.17 0.0539336C231.802 0.0122482 219.026 7.11283 218.139 10.4641C217.525 12.7842 222.256 26.174 223.803 26.5834C225.736 27.0952 225.516 24.2785 223.083 17.8414C220.77 11.9881 220.812 11.3095 223.094 9.98261C225.376 8.65575 225.763 8.75811 226.479 10.7408C226.851 11.9425 227.071 14.7593 227.074 16.8291C226.783 21.5793 229.277 23.6188 232.7 21.6285C235.146 20.2069 235.187 19.5283 233.322 14.0693C230.774 6.49865 231.362 3.75776 235.229 4.78132C237.42 5.36133 238.497 7.02558 239.19 10.6574C240.093 15.5857 242.762 19.0506 244.718 17.9133C245.241 17.5001 244.695 14.8729 243.41 11.9122C240.813 5.56983 240.855 4.89124 243.948 5.71009C245.237 6.05127 246.822 8.40169 247.531 10.9341C248.24 13.4665 249.153 15.2255 249.642 14.9412C251.761 13.7091 245.355 -0.124267 242.701 0.00084344C242.409 0.0615003 239.918 0.0918356 237.17 0.0539336Z" fill="#F5F5F5"/>
<path d="M246.374 22.0758C239.744 22.1137 233.076 24.9001 226.532 30.3403C223.033 33.138 223.033 33.138 224.705 40.8906C225.554 44.9773 228.019 53.9051 230.255 60.5659C234.065 72.7464 234.065 72.7464 230.506 84.6312C226.707 97.4182 226.377 104.917 228.838 125.843C230.138 137.083 232.723 141.906 233.319 133.926C233.417 131.469 233.952 127.886 234.463 125.953C235.112 123.504 234.68 122.01 233.14 121.051C230.957 119.922 230.786 111.187 232.977 111.767C233.493 111.904 233.804 112.813 233.531 113.845C233.258 114.876 233.887 116.146 234.782 116.934C235.711 117.594 236.306 118.993 236.067 119.895C235.794 120.926 236.287 122.712 237.079 123.887C237.777 124.899 238.247 128.334 237.849 131.401C237.231 136.34 235.972 138.49 226.775 148.745C211.501 165.804 204.06 173.075 202.255 172.598C201.353 172.359 201.323 169.868 201.986 166.32C202.71 163.063 203.908 160.622 204.553 160.792C205.326 160.997 206.08 160.231 206.353 159.2C206.626 158.169 208.351 157.384 210.292 157.346C213.59 157.392 215.63 154.897 213.875 153.191C213.298 152.763 210.91 152.407 208.548 152.471C199.719 152.479 195.158 161.892 199.128 171.908C200.629 175.615 200.659 178.106 198.9 183.709C196.322 192.406 197.016 196.037 203.34 206.538C208.112 214.56 208.112 214.56 215.763 213.275C220.073 212.623 223.712 211.38 223.754 210.701C224.232 208.896 216.904 207.922 212.844 209.192C211.024 209.814 209.375 209.791 209.03 209.01C208.537 207.225 212.775 204.76 216.4 204.616C217.954 204.476 220.922 202.641 222.894 200.405C224.994 198.202 231.836 192.152 238.183 186.935C244.495 181.848 249.863 177.2 249.999 176.684C251.159 172.302 240.503 178.17 229.698 187.724C222.461 194.221 220.323 194.483 223.413 188.543C226.169 183.341 245.355 168.697 250.67 167.897C258.87 166.619 271.627 172.616 276.184 179.891C278.526 183.546 281.241 183.713 282.128 180.361C282.878 177.526 293.577 166.289 299.324 162.293C304.942 158.264 307.349 159.59 309.366 168.124C310.75 173.318 310.75 173.318 301.079 182.757C295.738 187.826 291.306 192.584 291.135 193.228C290.965 193.872 291.56 195.271 292.352 196.447C293.558 198.145 294.434 197.963 297.159 194.96C301.128 190.908 310.833 181.339 314.34 177.992C316.535 175.952 316.395 174.398 312.661 161.41C310.378 153.358 308.108 146.826 307.721 146.724C307.334 146.621 304.536 147.812 301.799 149.294C298.444 151.027 294.869 154.632 291.7 159.31C284.994 169.534 282.867 171.316 276.957 170.717C268.753 169.925 252.198 162.646 248.058 157.964C246.053 155.64 243.342 152.854 242.129 151.705C240.597 150.196 240.256 146.796 240.874 137.167C241.56 127.28 241.2 122.909 238.895 116.506C236.685 110.266 236.492 107.87 237.758 105.171C238.785 103.374 240.222 100.03 241.026 98.0361C244.873 88.7102 245.92 87.8838 253.888 86.9588C258.131 86.5645 262.562 86.4962 263.851 86.8374C265.011 87.1445 266.952 87.1066 268.154 86.7351C271.304 85.7759 269.037 81.3139 264.913 80.2221C263.237 79.7786 259.283 78.0423 256.265 76.416C250.522 73.1027 249.893 71.8327 243.759 52.2787C242.117 47.0168 239.759 39.7722 238.516 36.1329C237.185 31.7808 236.897 29.2219 238.038 28.5584C239.016 27.9898 240.119 30.0748 241.219 34.7795C245.556 53.3061 245.935 53.9581 249.68 49.7084C250.897 48.2375 254.123 46.4709 256.69 45.6331C259.385 44.8294 261.667 43.5025 262.001 42.7633C262.445 41.0876 257.16 25.6204 255.473 23.6566C254.104 22.053 254.525 22.0265 246.374 22.0758ZM252.376 34.8363C253.676 41.3871 253.456 43.2599 251.921 44.3707C248.687 46.687 248.05 45.9667 246.5 38.7979C245.677 35.132 244.468 31.3638 243.641 30.3174C241.833 27.7699 242.5 26.2914 245.377 26.3634C250.196 26.3975 250.738 26.9548 252.376 34.8363ZM241.503 58.7158C244.919 71.3437 247.292 82.1783 246.83 82.8835C246.367 83.5886 245.04 81.3064 244.055 77.7353C241.913 71.2375 239.975 68.6559 241.42 74.1414C241.784 75.8929 241.556 78.3153 240.828 79.5019C240.032 80.9463 240.267 82.6636 241.507 84.2331C243.099 86.0338 243.145 87.4251 241.818 89.8324C238.266 96.478 233.599 90.1395 236.514 82.7736C238.755 77.4358 238.52 75.7185 232.2 53.2189C229.702 44.42 227.772 36.5992 228.011 35.6969C228.216 34.9236 229.724 33.392 231.226 32.4101C233.902 30.6359 234.031 30.67 234.74 33.2024C235.043 34.662 238.087 46.088 241.503 58.7158ZM254.241 82.5005C253.49 85.3362 251.185 83.6227 250.818 79.8014C250.241 74.6835 250.473 74.331 252.755 77.6936C253.832 79.3578 254.514 81.4694 254.241 82.5005ZM263.199 82.5271C262.642 83.0692 260.925 83.3042 259.507 82.9289C258.218 82.5877 257.228 81.6362 257.399 80.9917C257.604 80.2184 259.287 80.1122 261.091 80.5899C262.896 81.0675 263.919 81.8902 263.199 82.5271ZM236.984 95.5871C237.864 97.4751 237.625 98.3773 236.321 99.1355C233.713 100.652 230.839 97.9603 231.658 94.8669C232.477 91.7734 235.381 92.2662 236.984 95.5871ZM233.364 107.18C232.276 108.685 231.597 108.643 230.839 107.339C230.271 106.361 230.422 104.746 231.279 103.594C232.367 102.089 233.046 102.13 233.804 103.435C234.372 104.413 234.221 106.028 233.364 107.18ZM244.559 165.451C243.937 168.321 241.503 166.574 236.355 159.97C232.86 155.458 231.541 152.627 232.087 150.564C232.837 147.729 233.285 148.123 238.872 155.671C242.239 160.148 244.764 164.678 244.559 165.451ZM234.41 162.627C238.148 168.306 239.066 172.135 236.503 170.353C234.611 169.163 226.199 157.695 226.377 156.501C226.863 154.147 230.767 157.111 234.41 162.627ZM227.431 169.193C230.688 174.607 231.598 178.985 229.406 178.405C227.473 177.894 219.747 165.918 220.225 164.113C221.043 161.02 223.606 162.802 227.431 169.193ZM220.562 174.823C222.56 177.696 224.069 180.854 223.796 181.886C223.079 184.592 221.669 183.667 217.897 178.117C213.678 172.173 211.941 171.438 209.921 174.903C208.628 177.181 209.31 179.293 213.772 186.404C217.76 192.701 218.659 195.56 217.518 196.223C216.214 196.981 214.106 195.044 210.11 189.297C207.131 184.922 204.761 180.847 204.932 180.202C205.921 176.464 213.757 168.746 215.948 169.326C216.464 169.462 218.435 171.915 220.562 174.823ZM211.805 200.09C211.926 200.674 211.206 201.311 210.296 201.622C208.184 202.304 200.602 189.263 202.24 187.765C203.355 186.681 211.361 197.076 211.805 200.09Z" fill="#F5F5F5"/>
<path d="M231.809 36.9783C231.127 39.5562 237.507 62.3476 238.649 61.6842C239.464 61.2103 234.717 39.541 233.14 36.6409C232.537 35.7917 232.117 35.8182 231.809 36.9783Z" fill="#F5F5F5"/>
<path d="M255.564 49.8866C248.907 54.1932 250.7 67.2191 258.483 72.7274C263.703 76.4539 268.067 76.6434 266.402 73.0306C265.773 71.7606 264.079 70.3466 262.532 69.9372C259.344 68.9553 256.796 66.0742 255.886 61.6956C254.874 57.7036 256.212 52.1271 258.29 51.5736C260.109 50.9518 260.818 48.7948 259.4 48.4195C258.756 48.2489 257.065 48.9047 255.564 49.8866Z" fill="#F5F5F5"/>
<path d="M261.58 52.1687C257.437 59.4854 263.119 67.1963 270.853 64.5539C274.166 63.5 274.974 63.5758 275.63 65.2666C275.967 66.5973 276.301 65.858 276.433 63.2725C276.672 57.6808 275.596 56.0166 272.73 57.4647C269.477 58.8106 266.596 56.6686 267.483 53.3174C268.472 49.5795 263.506 48.5408 261.58 52.1687ZM269.303 62.0746C269.132 62.7191 268.188 63.1588 267.157 62.8859C266.126 62.6129 265.007 61.6273 264.791 60.8805C264.609 60.0047 265.519 59.6939 266.937 60.0692C268.484 60.4786 269.507 61.3012 269.303 62.0746Z" fill="#F5F5F5"/>
<path d="M293.398 69.0045C291.87 69.5656 290.327 71.226 289.952 72.6439C289.099 75.8662 292.234 85.3854 296.412 92.0083C298.057 94.6506 300.23 98.9496 301.196 101.55C302.853 105.713 303.206 105.944 305.454 104.746C307.865 103.453 307.975 102.517 307.198 95.5528C306.333 87.876 306.003 85.9957 303.183 74.7668C301.712 68.8604 298.376 66.8739 293.398 69.0045ZM301.124 76.2908C302.8 81.4238 301.079 84.2784 297.341 83.289C295.15 82.7089 295.472 80.4495 297.834 80.385C298.967 80.2713 299.016 79.043 298.05 76.4424C297.367 74.3308 297.364 72.2609 297.982 72.0107C299.483 71.0289 299.483 71.0289 301.124 76.2908ZM304.244 91.5988C303.391 94.8212 303.357 94.9501 301.393 91.9476C300.317 90.2833 299.566 88.4296 299.737 87.7851C299.873 87.2695 301.17 87.061 302.588 87.4363C304.521 87.9481 304.927 89.0209 304.244 91.5988Z" fill="#F5F5F5"/>
<path d="M268.779 67.1773C268.222 67.7194 269.659 73.7547 271.922 80.8363C278.003 99.5486 278.064 99.8405 280.346 98.5137C281.942 97.6948 281.248 94.063 277.207 82.2351C272.491 67.7459 270.974 65.1377 268.779 67.1773Z" fill="#F5F5F5"/>
<path d="M352.746 106.368C338.75 108.181 331.578 121.73 335.156 138.952C338.318 153.582 345.187 162.02 356.238 165.083C376.569 170.603 387.525 150.056 377.149 126.207C371.664 113.583 361.462 105.227 352.746 106.368ZM362.671 113.685C364.76 114.652 367.376 117.275 368.608 119.394C370.659 123.109 370.659 123.109 367.577 123.811C362.709 125.005 361.75 131.234 365.564 136.105C368.904 140.161 367.774 142.345 363.57 139.991C360.457 138.201 359.388 131.298 361.579 127.189C363.668 123.466 361.674 122.662 358.073 125.847C354.18 129.092 353.618 132.253 356.272 136.818C357.599 139.1 358.429 142.216 358.278 143.831C357.667 148.221 361.724 149.571 364.328 145.984C365.45 144.35 367.406 143.213 368.566 143.52C369.598 143.793 371.751 142.432 373.07 140.575C377.225 134.778 378.15 138.057 375.421 148.369C372.316 160.098 368.87 163.738 366.652 158.047C364.711 153.396 358.312 153.081 357.118 157.592C355.958 161.975 354.695 162.054 350.127 157.949C342.109 150.723 337.23 136.329 339.16 125.392C339.933 120.907 340.524 120.236 342.715 120.816C345.293 121.498 354.02 117.188 354.6 114.997C354.805 114.223 354.039 113.469 353.008 113.196C351.977 112.923 351.211 112.169 351.382 111.524C351.791 109.977 354.771 109.663 357.083 110.827C358.046 111.357 360.617 112.589 362.671 113.685Z" fill="#F5F5F5"/>
<path d="M356.31 120.001C354.32 121.267 352.383 123.375 352.007 124.793C351.495 126.726 352.208 126.639 355.836 123.875C358.581 121.843 361.31 120.911 363.244 121.422C364.919 121.866 366.894 121.699 367.452 121.157C370.007 118.799 359.802 117.753 356.31 120.001Z" fill="#F5F5F5"/>
<path d="M257.623 90.5678C248.873 91.8378 248.221 92.2169 245.336 97.384C243.641 100.659 242.531 103.814 242.936 104.886C243.368 106.38 243.823 106.225 244.369 104.162C245.325 100.553 247.466 97.6721 248.884 98.0475C249.529 98.218 249.874 98.999 249.635 99.9013C249.396 100.804 250.378 106.994 251.678 113.545C253.889 124.475 253.926 126.415 251.705 132.724C249.184 139.642 249.184 139.642 255.306 148.297C266.251 163.745 268.583 165.88 275.111 166.229C278.246 166.369 281.131 165.891 281.43 165.281C281.893 164.576 280.6 162.165 278.758 159.746C276.915 157.327 272.343 151.152 268.727 146.057C262.286 137.042 262.035 136.424 263.503 130.881C264.697 126.37 264.181 121.544 261.497 109.8C259.575 101.429 258.316 94.1996 258.805 93.9152C259.2 93.4679 262.085 92.9902 265.193 92.7097C271.084 92.3381 273.306 90.7194 269.31 89.6617C267.987 89.4494 262.809 89.7337 257.623 90.5678Z" fill="#F5F5F5"/>
<path d="M293.679 100.25C293.474 101.023 291.988 100.906 290.32 99.9125C286.597 97.8237 285.862 99.56 288.951 102.998C290.801 104.867 291.575 105.072 292.655 104.117C293.607 103.127 294.149 103.685 294.282 105.789C294.293 107.309 294.983 108.871 295.627 109.041C298.076 109.689 299.392 105.762 297.849 102.733C296.022 99.215 294.225 98.1876 293.679 100.25Z" fill="#F5F5F5"/>
<path d="M304.301 108.579C295.408 110.914 293.838 112.154 295.252 115.149C296.856 118.469 298.118 118.39 298.876 115.004C299.327 112.779 300.271 112.339 302.755 112.859C308.976 114.368 309.559 114.246 309.374 111.301C309.23 107.676 311.163 108.188 312.338 112.085C313.142 114.781 312.911 115.133 309.802 115.414C306.53 115.789 299.248 120.896 298.634 123.216C298.497 123.731 299.115 123.481 300.161 122.655C301.473 121.347 302.118 121.517 303.763 124.16C305.598 127.128 305.89 127.067 310.344 125.35C312.945 124.383 314.92 124.217 314.749 124.861C314.203 126.923 304.248 131.184 304.176 129.372C304.036 127.818 300.597 126.218 300.256 127.507C300.154 127.894 301.033 129.782 302.171 131.738C304.256 135.324 304.256 135.324 306.811 132.966C308.252 131.692 310.397 130.881 311.686 131.222C314.909 132.075 318.798 126.76 317.881 122.931C317.361 120.725 316.785 120.297 315.705 121.252C314.033 122.878 311.667 120.873 312.35 118.295C312.657 117.135 313.532 116.953 314.59 117.647C316.095 118.735 316.197 118.348 315.606 114.33C314.734 107.203 312.774 106.27 304.301 108.579Z" fill="#F5F5F5"/>
<path d="M278.325 101.979C275.554 103.59 274.038 110.361 275.565 114.489C277.033 118.325 280.505 119.796 283.576 117.575C284.751 116.782 286.048 116.574 286.719 117.165C287.261 117.723 286.859 118.72 285.778 119.675C283.917 120.975 284.781 123.963 290.904 137.307C291.628 138.74 300.275 137.857 300.685 136.31C300.821 135.794 300.097 134.361 299.047 133.118C298.126 131.909 295.047 125.301 292.424 118.538C285.858 102.18 283.216 99.1354 278.325 101.979ZM284.069 109.981C284.622 112.059 284.289 112.798 282.863 112.973C280.596 113.2 278.598 110.326 279.246 107.877C279.929 105.3 283.401 106.77 284.069 109.981Z" fill="#F5F5F5"/>
<path d="M328.81 120.721C327.764 121.548 324.447 125.221 321.421 128.834C314.84 137.023 314.598 140.544 319.992 155.075C322.892 162.877 324.796 165.588 330.645 170.584C342.249 180.414 344.475 180.865 353.793 175.884C358.126 173.583 361.523 171.172 361.11 170.649C360.825 170.16 357.868 168.825 354.422 167.775C339.478 163.268 327.984 143.122 330.038 125.46C330.493 120.615 330.345 119.61 328.81 120.721ZM326.835 139.646C324.473 144.4 321.368 146.75 320.136 144.631C318.809 142.349 324.318 134.566 326.767 135.214C328.313 135.624 328.332 136.594 326.835 139.646ZM326.384 151.25C324.223 153.161 323.021 153.532 322.942 152.27C322.722 149.453 327.669 144.832 328.712 146.625C329.375 147.766 328.545 149.339 326.384 151.25ZM337.469 158.874C341.214 164.003 341.241 164.424 338.72 166.653C336.362 168.787 335.52 168.84 332.571 166.956C330.842 165.671 328.579 163.279 327.665 161.52C326.312 158.817 326.354 158.138 328.651 155.712C331.934 152.168 332.673 152.501 337.469 158.874ZM347.432 168.131C346.817 170.452 340.82 173.829 339.641 172.552C338.652 171.6 339.216 170.508 341.248 168.564C344.096 166.145 348.046 165.811 347.432 168.131ZM353.569 170.997C353.16 172.544 346.973 175.596 346.37 174.747C345.836 173.64 351.135 169.25 352.682 169.659C353.327 169.83 353.706 170.482 353.569 170.997Z" fill="#F5F5F5"/>
<path d="M306.993 138.531C303.395 139.096 303.395 139.096 306.189 140.525C309.662 141.996 313.028 141.784 313.506 139.98C313.949 138.304 311.595 137.819 306.993 138.531Z" fill="#F5F5F5"/>
<path d="M294.793 141.371C292.003 142.012 290.597 143.156 290.771 144.582C290.885 145.715 290.965 146.978 290.896 147.236C290.828 147.493 291.533 147.956 292.436 148.195C294.884 148.843 301.773 144.184 301.151 142.364C300.598 140.287 299.79 140.211 294.793 141.371Z" fill="#F5F5F5"/>
<path d="M311.152 148.873C312.035 152.831 314.427 155.257 314.052 151.986C313.877 150.56 313.9 148.911 314.071 148.267C314.241 147.622 313.476 146.868 312.444 146.595C310.898 146.185 310.503 146.633 311.152 148.873Z" fill="#F5F5F5"/>
<path d="M317.767 168.693C318.537 171.517 320.148 174.288 321.24 174.853C324.549 176.419 324.193 174.117 320.129 168.628C316.349 163.628 316.349 163.628 317.767 168.693Z" fill="#F5F5F5"/>
<path d="M294.07 172.764C287.177 180.043 286.074 182.647 288.296 185.718C290.517 188.789 292.868 187.204 295.021 181.154C295.901 178.352 297.534 174.785 298.562 172.988C302.209 166.505 300.044 166.346 294.07 172.764Z" fill="#F5F5F5"/>
<path d="M320.713 177.886C315.523 181.339 303.433 192.621 303.907 193.436C305.045 195.393 309.541 192.997 314.787 187.765C321.971 180.426 325.3 178.272 326.627 180.555C327.195 181.533 326.562 182.882 324.633 184.44C320.705 187.814 320.724 188.785 324.591 189.808C327.04 190.457 328.473 189.733 330.778 186.757C333.94 182.628 336.093 181.267 337.006 183.026C337.42 183.549 336.229 185.441 334.557 187.068C330.459 191.086 331.786 193.368 336.229 190.131C340.054 187.143 342.496 183.652 341.738 182.348C341.453 181.859 337.37 180.088 332.669 178.568C324.849 175.808 323.749 175.793 320.713 177.886Z" fill="#F5F5F5"/>
<path d="M302.379 175.24C301.761 175.49 301.102 176.419 300.897 177.192C300.692 177.965 301.371 178.007 302.512 177.344C303.49 176.775 304.15 175.846 303.994 175.391C303.71 174.902 302.903 174.826 302.379 175.24Z" fill="#F5F5F5"/>
<path d="M250.898 179.543C246.8 183.561 239.168 190.506 233.868 194.896C228.569 199.286 223.629 203.358 222.909 203.995C221.991 204.855 223.049 205.549 226.177 206.239C230.464 207.236 231.313 206.633 246.379 192.967C261.641 179.076 264.511 175.009 260.462 173.109C259.113 172.476 255.913 174.664 250.898 179.543Z" fill="#F5F5F5"/>
<path d="M264.17 185.676C257.411 190.37 242.285 203.744 242.724 204.688C243.043 205.048 245.492 205.697 248.335 205.898C253.051 206.318 254.321 205.689 264.147 196.704C271.976 189.536 274.409 186.594 273.719 185.032C272.245 181.745 269.849 181.938 264.17 185.676ZM263.036 190.48C261.44 191.298 261.346 191.135 262.597 189.536C263.325 188.349 264.268 187.909 264.553 188.398C264.837 188.887 264.177 189.816 263.036 190.48Z" fill="#F5F5F5"/>
<path d="M320.569 197.709C317.976 198.126 306.713 201.075 295.768 204.385C281.741 208.396 270.683 210.572 258.832 211.573C249.506 212.414 237.288 214.283 231.734 215.986C226.214 217.559 219.724 219.151 217.457 219.379C214.932 219.538 213.628 220.296 214.197 221.274C214.671 222.089 226.669 226.782 240.927 231.798C255.185 236.813 267.639 241.351 268.697 242.045C269.788 242.61 277.128 245.104 285.146 247.64C307.077 254.411 318.673 260.101 326.453 268.229C336.211 278.26 337.333 286.005 332.829 312.398C330.255 327.854 330.255 327.854 325.031 331.436C318.666 335.682 316.077 342.859 319.212 347.688C320.762 350.168 320.774 351.688 319.174 355.126C316.608 360.654 313.734 362.652 303.76 365.942C298.498 367.584 295.53 369.419 295.12 370.965C294.131 374.703 296.587 374.802 305.462 371.496C321.907 365.643 325.975 359.134 336.298 321.178C343.823 293.792 344.308 286.748 339.107 274.613C334.156 263.096 328.23 258.907 305.507 250.961C295.143 247.39 276.802 240.604 265.027 236.108C253.157 231.449 239.157 226.502 234.13 225.171C224.721 222.681 224.721 222.681 235.787 219.955C243.187 218.052 250.666 217.411 258.294 217.775C269.83 218.484 269.83 218.484 278.424 226.138C283.121 230.277 288.341 234.004 290.017 234.448C292.758 235.035 292.603 234.58 288.929 231.263C281.806 224.826 285.51 225.944 293.114 232.647C299.953 238.595 308.199 243.398 308.676 241.594C308.881 240.82 298.335 231.684 292.504 227.658C291.317 226.93 290.62 225.918 291.075 225.762C292.576 224.781 304.76 232.419 313.938 239.952C318.927 244.031 324.439 247.697 326.312 247.917C329.25 248.281 328.966 247.792 324.011 243.584C319.632 239.804 319.064 238.826 321.228 238.985C327.173 239.455 336.851 248.224 345.472 260.988C353.016 272.088 356.792 279.708 354.601 279.128C354.085 278.992 351.39 275.106 348.478 270.473C345.601 265.712 343.087 262.702 342.814 263.733C341.927 267.084 347.451 276.96 356.075 287.104C364.571 297.215 366.512 301.867 358.733 293.739C351.022 285.353 351.246 285.55 352.645 289.644C353.509 292.632 367.354 306.503 373.666 310.794C374.337 311.386 374.424 312.098 373.772 312.478C373.12 312.857 369.844 311.162 366.516 308.626C363.222 305.961 359.764 303.391 359.093 302.799C358.293 302.174 357.418 302.356 357.213 303.129C356.53 305.707 366.251 313.797 378.416 320.465C392.602 328.358 399.331 330.553 401.276 327.895C405.002 322.675 400.017 306.598 389.914 291.096C386.684 286.103 382.006 278.245 379.644 273.62C377.153 268.961 374.776 265.435 374.287 265.719C373.798 266.004 375.277 271.36 377.616 277.634C381.104 287.385 384.356 304.797 383.299 308.793C383.094 309.566 382.055 309.843 381.024 309.57C379.993 309.297 379.295 308.285 379.568 307.254C379.807 306.351 378.981 300.615 377.768 294.777C376.225 287.059 373.438 280.391 368.415 271.751C359.98 257.243 355.272 251.583 340.741 238.219C332.086 230.274 329.523 228.492 327.669 229.242C325.91 230.156 325.342 229.178 324.602 224.155C324.003 220.686 323.609 216.444 323.537 214.632C323.431 212.949 322.741 211.387 321.968 211.182C320.679 210.841 319.879 214.905 318.905 226.922C318.647 231.544 318.484 231.638 316.649 228.67C314.556 225.633 313.768 217.149 315.03 212.38C315.405 210.962 315.299 209.279 314.757 208.722C314.215 208.165 308.873 208.544 302.941 209.594C291.075 211.694 290.396 211.652 290.84 209.977C291.181 208.688 319.238 202.736 324.572 202.906C327.741 202.918 328.154 203.441 328.143 206.61C328.181 208.551 329.269 211.736 330.535 213.726C331.93 215.75 332.802 218.188 332.563 219.09C332.325 219.992 333.28 221.073 334.698 221.448C336.116 221.823 337.514 221.228 337.787 220.197C338.982 215.686 343.023 218.135 354.142 230.319C360.416 237.359 369.082 246.825 373.256 251.378C377.525 256.094 388.212 271.474 396.973 285.793C409.911 306.734 412.713 312.303 411.523 314.195C406.958 321.538 406.261 325.215 408.316 331C409.404 334.185 410.234 337.301 410.097 337.816C409.551 339.879 398.061 340.561 397.018 338.768C396.45 337.79 394.558 336.6 392.754 336.122C390.854 335.481 385.308 331.944 380.251 328.123C365.818 316.993 366.478 320.753 381.396 334.219C387.943 340.228 390.479 341.589 397.826 343.533C408.748 346.562 412.361 344.898 415.917 335.633C420.052 324.176 418.475 316.587 407.842 297.359C402.602 287.972 396.586 276.311 394.292 271.428C390.585 263.551 371.584 238.936 363.661 231.873C362.095 230.493 354.574 222.434 346.863 214.048C332.078 197.997 329.481 196.344 320.569 197.709ZM308.517 220.311C307.395 221.945 301.993 222.032 295.093 220.482C289.388 219.109 291.018 218.161 299.297 218.146C307.835 218.199 309.673 218.548 308.517 220.311Z" fill="#F5F5F5"/>
<path d="M276.631 194.354C272.249 197.883 273.284 200.226 278.701 199.04C281.199 198.46 283.258 196.936 283.633 195.518C284.588 191.909 280.49 191.238 276.631 194.354Z" fill="#F5F5F5"/>
<path d="M189.768 172.878C188.217 175.088 190.291 181.844 192.74 182.492C194.931 183.072 195.776 180.4 194.874 175.471C194.154 171.419 191.747 170.092 189.768 172.878Z" fill="#F5F5F5"/>
<path d="M185.427 194.487C178.755 199.893 178.755 199.893 170.968 197.004C161.54 193.543 157.23 194.195 146.892 200.424C133.816 208.135 113.046 225.118 104.895 234.547C96.35 244.422 90.5385 255.435 90.0532 262.479C89.659 267.616 95.9862 280.187 98.7688 280.096C101.457 279.842 103.03 275.982 100.71 275.368C99.5497 275.061 97.7073 272.642 96.388 269.811C94.1892 265.091 94.2044 263.991 96.896 256.428C98.382 251.856 101.771 245.306 104.341 241.848C114.896 226.987 143.472 204.484 156.134 200.939C162.238 199.245 169.694 200.253 172.5 203.202C174.729 205.723 180.54 204.09 187.205 199.233C192.239 195.325 195.545 190.131 193.096 189.483C192.581 189.346 189.089 191.594 185.427 194.487Z" fill="#F5F5F5"/>
<path d="M191.038 205.075C188.79 206.273 188.668 210.379 190.988 210.993C194.469 211.914 197.464 210.5 197.175 207.941C196.948 205.674 193.028 203.809 191.038 205.075Z" fill="#F5F5F5"/>
<path d="M159.273 207.839C158.382 209.12 153.863 213.165 149.026 216.85C141.899 222.412 139.814 223.515 137.63 222.385C135.928 221.521 133.661 221.748 131.25 223.041C126.068 225.945 115.779 235.635 115.097 238.213C114.789 239.373 113.804 240.491 113.057 240.707C112.147 241.018 111.514 242.368 111.56 243.759C111.605 245.15 110.972 246.5 110.062 246.811C108.114 247.398 106.953 251.781 108.451 253.418C110.301 255.287 113.44 252.808 112.113 250.526C110.312 247.428 111.332 246.181 113.758 248.479C115.419 250.022 115.62 251.868 114.63 255.606C113.538 259.73 112.553 260.849 108.424 262.376C105.695 263.309 103.094 264.276 102.768 264.465C102.476 264.526 102.59 265.659 103.219 266.929C103.72 268.165 103.86 269.72 103.492 270.588C102.996 271.422 103.367 272.624 104.201 273.12C105.93 274.405 111.226 267.945 116.215 257.956C124.259 242.155 134.108 231.521 154 217.339C158.443 214.102 162.473 210.341 162.848 208.923C163.667 205.83 161.381 205.087 159.273 207.839ZM117.97 245.594C118.808 248.16 117.125 248.266 115.9 245.597C115.176 244.164 115.381 243.391 116.154 243.596C116.928 243.8 117.788 244.718 117.97 245.594Z" fill="#F5F5F5"/>
<path d="M187 218.764C175.836 219.257 172.121 221.308 159.338 233.648C144.196 248.122 144.822 247.322 148.438 247.728C150.569 248.016 154.197 245.252 161.578 237.689C170.794 228.405 178.342 222.817 180.791 223.465C181.306 223.602 182.8 227.859 184.123 232.761C186.891 243.148 189.95 248.785 188.38 240.646C187.869 237.89 186.891 233.769 186.405 231.434C184.752 224.652 187.171 227.499 193.187 239.16C196.402 245.252 201.975 253.899 205.504 258.282C212.632 266.789 220.27 273.362 220.782 271.429C221.089 270.269 216.972 263.938 213.272 260.2C211.551 258.365 211.714 258.27 214.766 259.768C218.204 261.368 218.049 260.913 213.094 252.015C210.156 246.962 207.862 242.079 208.067 241.306C208.272 240.532 210.527 243.474 213.215 247.91C215.774 252.311 218.348 255.613 218.837 255.329C220.141 254.57 213.166 239.759 210.103 236.741C208.537 235.361 207.332 233.663 207.502 233.019C207.673 232.374 208.351 232.416 208.988 233.136C209.659 233.727 210.888 233.777 211.805 232.916C212.92 231.832 214.83 233.993 219.258 241.234C225.426 251.28 227.454 251.955 226.889 243.667C226.696 241.272 226.905 237.879 227.314 236.332C228.03 233.625 227.488 233.068 223.235 231.942C220.528 231.225 214.262 228.325 209.352 225.509C199.181 219.644 194.962 218.389 187 218.764ZM199.738 228.481C199.954 229.228 199.268 229.736 198.237 229.463C197.077 229.156 196.345 228.272 196.516 227.628C196.721 226.854 197.373 226.475 198.017 226.646C198.79 226.851 199.556 227.605 199.738 228.481Z" fill="#F5F5F5"/>
<path d="M231.624 235.68C231.351 236.711 233.637 242.143 236.697 247.781C239.756 253.418 242.11 258.593 241.94 259.237C241.803 259.753 242.698 260.541 243.987 260.882C245.276 261.224 248.244 259.389 250.996 256.807C255.618 252.375 265.823 248.732 267.15 251.014C267.434 251.503 265.577 254.874 262.972 258.46C256.804 267.172 258.199 269.196 266.202 263.453C272.704 258.691 281.393 257.129 285.332 259.965C287.189 261.284 286.992 261.508 283.826 263.566C280.172 265.909 270.672 279.394 270.497 282.658C270.448 283.886 273.485 281.793 277.643 278.067C284.391 271.853 296.045 266.387 300.041 267.444C302.361 268.059 302.626 267.577 293.19 278.734C287.8 285.031 285.127 288.875 285.79 290.016C287.022 292.135 290.745 289.535 298.073 281.13C304.347 274.101 307.187 267.543 305.052 265.185C304.287 264.431 300.177 262.239 295.647 260.075C288.194 256.447 282.083 254.002 248.039 241.404C241.507 238.986 235.207 236.214 234.149 235.521C232.773 234.467 231.897 234.649 231.624 235.68Z" fill="#F5F5F5"/>
<path d="M138.32 252.084C130.981 254.279 128.623 256.413 113.815 274.837C106.017 284.497 92.6729 299.998 84.0067 309.29C68.7404 325.8 66.0071 329.352 69.1574 328.393C71.269 327.711 70.7648 329.094 63.308 342.154C55.1839 356.693 52.3179 362.831 44.1635 384.257C38.659 398.8 37.8061 402.022 37.8099 408.781C37.7948 419.26 39.4856 427.983 42.924 434.272C46.5179 441.016 48.4286 438.488 45.7256 430.462C42.3402 420.325 41.98 401.885 45.3312 402.773C46.1046 402.977 46.3813 404.016 46.0743 405.176C44.5048 411.105 51.8367 437.597 55.1879 438.484C57.3791 439.064 57.1517 436.797 53.6033 426.754C50.4339 417.364 48.5422 406.795 50.487 408.827C50.9002 409.35 52.5493 414.062 53.9672 419.127C57.019 430.003 61.2005 438.696 64.0361 439.447C66.2273 440.027 65.7648 436.042 62.9064 432.251C60.6242 428.889 55.1499 413.095 54.3917 407.102C53.3909 399.941 55.6958 401.654 58.5201 410.264C61.371 419.294 66.686 427.873 71.8721 431.728C76.9293 435.549 78.6618 434.215 74.8139 429.472C68.263 421.394 65.2037 415.757 61.534 405.13C57.959 394.667 57.8794 393.405 59.7104 380.235C61.8295 364.935 67.5122 344.509 69.5745 345.054C70.3479 345.259 69.5783 351.814 67.7132 360.423C65.7646 370.39 64.9458 378.173 65.3931 383.256C66.3068 394.394 67.3114 398.936 68.7293 399.311C70.276 399.721 70.2949 396.002 69.0098 383.662C67.6108 370.189 69.5215 367.66 71.7772 379.981C75.0564 397.814 82.43 409.558 93.6134 414.725C98.6252 417.155 105.237 416.147 106.09 412.925C106.499 411.378 96.4074 402.086 95.0692 402.973C94.7431 403.163 95.1412 404.785 96.0548 406.544C96.9685 408.303 97.0481 409.566 96.2747 409.361C95.5014 409.156 94.2882 408.008 93.6589 406.738C93.0296 405.468 89.6253 399.05 86.2209 392.632C78.8436 378.817 75.4316 363.57 75.8031 346.014C76.1708 326.388 76.0343 326.903 82.8391 318.912C86.2586 314.852 95.6413 302.853 103.712 292.162C111.654 281.438 118.895 272.32 119.873 271.752C120.851 271.183 121.678 272.229 122.102 274.273C123.168 279.106 128.123 288.004 131.443 291.089C133.009 292.469 137.6 294.926 141.751 296.438C152.624 300.696 166.825 307.489 181.398 315.484C192.824 321.819 195.542 324.056 208.003 337.423C226.041 356.818 228.702 360.832 228.406 368.202C228.236 373.536 227.705 374.499 222.731 378.699C216.84 383.76 214.853 387.096 218.921 385.277C220.32 384.681 221.582 384.602 221.961 385.254C223.004 387.047 217.014 389.875 207.51 391.911C202.256 393.003 197.87 394.462 197.733 394.978C197.119 397.298 205.452 398.124 211.555 396.43C217.856 394.511 217.856 394.511 212.45 397.218C205.122 400.933 201.505 400.528 195.235 395.558C192.388 393.287 189.662 391.6 189.173 391.884C188.847 392.074 189.863 393.446 191.687 394.894C193.51 396.343 196.16 398.837 197.494 400.57C200.8 404.755 203.541 405.342 208.174 402.431C210.327 401.07 215.305 398.939 219.236 397.635C223.133 396.46 226.943 394.572 227.637 393.514C228.459 392.491 230.29 384.01 231.845 374.491C234.206 360.358 234.449 356.836 232.77 354.323C231.727 352.53 219.785 341.369 206.304 329.249C192.661 317.224 178.956 304.907 175.669 301.693C172.477 298.641 166.715 294.357 162.992 292.268C153.879 287.097 141.319 276.187 136.823 269.204C133.369 264.014 133.282 263.301 135.477 261.262C138.229 258.68 141.425 259.112 145.512 262.953C155.766 272.149 162.852 276.646 163.432 274.454C163.568 273.939 162.378 271.141 160.672 268.207C157.673 262.862 157.673 262.862 161.025 263.749C163.087 264.294 168.224 269.378 174.395 276.805C188.744 293.982 201.179 302.239 223.66 309.017C232.614 311.663 239.756 314.381 239.586 315.025C239.074 316.959 209.47 308.433 201.895 304.221C195.06 300.343 192.191 299.721 194.025 302.69C196.273 306.181 204.079 310.04 216.995 313.873C224.66 316.178 231.098 318.434 231.287 318.76C231.477 319.086 227.242 318.93 221.848 318.468C216.453 318.005 211.024 317.672 209.891 317.785C206.001 318.411 222.723 322.975 228.736 323.188C231.905 323.199 236.845 323.817 239.552 324.533C242.645 325.352 246.14 325.174 248.612 324.173C254.86 321.413 256.581 323.248 250.591 326.076C244.275 329.094 244.34 331.456 250.58 329.245C258.055 326.535 259.413 326.618 254.067 329.617C247.941 332.961 247.513 333.537 250.864 334.424C253.828 335.209 263.488 328.938 264.341 325.716C265.228 322.365 263.954 320.924 251.467 311.826C245.447 307.474 238.884 302.564 237.061 301.116C230.377 295.623 203.04 277.491 192.353 271.49C166.139 256.413 146.732 249.483 138.32 252.084ZM133.601 273.04C134.116 273.177 137.884 276.657 141.903 280.755C146.145 285.05 156.13 292.659 164.755 298.114C173.251 303.535 179.4 307.921 178.429 307.94C177.588 307.993 170.616 304.631 163.076 300.29C141.573 288.254 128.589 275.3 130.689 268.408C131.739 264.962 131.739 264.962 132.236 268.817C132.463 271.084 133.085 272.904 133.601 273.04ZM201.478 287.56C208.719 292.511 227.443 302.019 232.083 303.247C235.306 304.1 231.029 304.623 227.094 303.857C217.901 302.113 195.735 288.936 192.418 283.23C190.996 280.785 191.607 281.085 201.478 287.56ZM245.644 321.319C241.644 322.88 239.582 322.335 242.292 320.431C243.468 319.639 245.382 319.18 246.542 319.487C248.184 320.06 248.115 320.318 245.644 321.319Z" fill="#F5F5F5"/>
<path d="M346.753 313.463C345.897 314.616 344.668 319.256 343.827 323.998C342.89 328.578 341.67 332.668 340.794 332.85C340.047 333.067 338.705 336.573 337.648 340.569C336.685 344.728 335.388 349.626 334.876 351.559C333.86 354.876 338.603 369.786 341.503 372.899C344.308 375.848 344.225 372.516 341.45 362.678C337.344 348.488 339.41 346.415 343.876 360.286C345.863 366.329 347.504 371.591 347.497 372.14C347.618 372.724 344.513 375.075 340.696 377.512C334.562 381.406 333.72 381.459 333.656 379.097C333.345 373.498 331.264 362.602 330.49 362.398C330.103 362.295 328.208 363.724 326.373 365.445C323.124 368.861 323.124 368.861 325.831 374.267C327.34 377.425 329.057 381.879 329.542 384.215C330.452 388.593 330.452 388.593 340.688 382.751C357.573 373.152 385.327 365.741 400.9 366.829C405.908 367.189 409.343 366.719 409.582 365.817C409.821 364.915 409.51 364.005 408.736 363.8C408.092 363.629 407.084 361.707 406.564 359.501C405.836 355.998 404.942 355.21 398.789 353.443C388.932 350.558 378.515 341.456 363.407 322.975C361.023 319.999 358.665 317.444 358.278 317.341C357.891 317.239 356.417 318.642 355.192 320.662C352.023 325.34 350.029 324.537 352.459 319.525C353.827 316.439 353.869 315.761 352.239 316.708C350.935 317.467 349.593 320.973 348.008 328.002C346.033 337.547 346.079 338.939 348.785 344.345C350.294 347.503 351.477 350.85 351.272 351.623C351.068 352.397 352.072 356.938 353.524 361.874C355.659 368.922 355.791 371.026 354.169 371.424C352.804 371.89 351.2 368.569 348.641 359.478C342.436 338.112 342.583 339.117 345.908 325.515C349.123 312.849 349.358 309.877 346.753 313.463ZM360.905 335.553C361.993 348.117 365.276 363.33 366.952 363.774C369.53 364.456 369.75 357.894 367.305 354.626C366.383 353.417 366.201 352.541 366.812 352.84C369.674 354.012 369.879 353.238 368.957 347.34C366.649 334.177 370.974 337.115 374.822 351.237C377.434 361.169 375.637 364.831 367.13 367.269C363.559 368.254 360.219 368.888 359.575 368.717C358.286 368.376 352.311 337.278 352.959 334.829C353.164 334.056 354.859 340.159 356.618 348.625C360.378 366.723 363.684 370.908 360.431 353.496C358.365 341.501 357.914 329.658 359.59 330.102C360.105 330.238 360.685 332.737 360.905 335.553ZM366.22 334.753C366.99 337.578 366.361 345.687 365.329 345.414C364.427 345.175 362.596 334.897 363.074 333.093C363.415 331.804 365.693 333.097 366.22 334.753ZM395.112 357.435C402.845 359.482 403.148 360.942 395.995 361.393C391.4 361.556 390.498 361.317 389.687 359.171C389.091 357.772 388.102 356.821 387.579 357.234C386.275 357.992 383.572 354.656 384.049 352.852C384.22 352.207 385.346 352.643 386.43 353.758C387.677 354.777 391.503 356.48 395.112 357.435Z" fill="#F5F5F5"/>
<path d="M371.221 354.421C370.914 355.581 371.319 356.654 371.964 356.825C372.737 357.029 373.389 356.65 373.56 356.006C373.764 355.232 373.488 354.194 372.817 353.602C372.275 353.045 371.494 353.39 371.221 354.421Z" fill="#F5F5F5"/>
<path d="M136.201 262.695C135.348 265.917 161.9 291.703 164.509 290.187C166.105 289.368 161.491 283.871 152.673 276.02C148.423 272.275 143.476 267.517 141.66 265.519C138.157 261.557 136.713 260.761 136.201 262.695Z" fill="#F5F5F5"/>
<path d="M252.873 301.302C252.668 302.075 261.649 309.832 266.198 312.967C268.666 314.586 270.793 317.493 271.502 320.026C272.42 323.855 273.219 324.48 279.501 326.281C283.368 327.304 287.072 328.423 287.94 328.79C289.771 329.689 288.122 343.735 284.035 363.342C281.166 376.788 280.225 379.298 278.379 379.499C277.246 379.613 274.827 381.455 273.053 383.468C270.028 387.081 269.857 387.725 270.793 392.525C271.662 397.582 271.559 397.969 268.344 401.255C261.589 408.019 257.896 408.421 244.268 404.675C237.599 402.772 231.697 401.623 231.14 402.165C230.059 403.121 234.942 405.517 248.135 410.388C259.075 414.388 261.35 413.61 273.678 401.426C283.906 391.444 283.641 391.926 289.096 359.854C292.656 338.59 292.8 328.146 289.324 324.605C287.637 322.641 253.044 300.658 252.873 301.302Z" fill="#F5F5F5"/>
<path d="M81.9671 274.269C79.5408 276.661 46.4758 291.632 36.5699 294.665C35.0762 295.097 33.4727 296.465 33.1315 297.754C32.5173 300.074 37.4684 306.902 40.433 307.687C42.882 308.335 79.4158 292.765 77.8766 291.806C75.6665 290.256 62.5837 293.827 51.3586 298.717C41.0433 303.297 36.9566 304.146 37.639 301.568C38.0825 299.892 54.3269 292.193 65.6999 288.307C76.4891 284.542 84.7497 283.557 91.0655 285.229C94.159 286.047 95.6185 285.744 95.9597 284.455C96.2668 283.295 95.3114 282.215 93.7647 281.805C92.218 281.396 89.8599 278.841 88.4724 276.267C87.119 273.564 85.6292 271.376 85.3714 271.308C85.2425 271.274 83.673 272.514 81.9671 274.269Z" fill="#F5F5F5"/>
<path d="M393.334 371.446C378.681 371.568 360.337 376.78 344.858 385.234C334.039 391.198 332.481 393.958 338.395 396.626C343.474 398.799 360.329 400.778 360.773 399.102C360.943 398.457 360.424 396.251 359.742 394.139C358.498 390.5 358.764 390.019 362.244 386.25C366.512 381.587 377.756 377.668 382.912 379.032C385.361 379.681 386.988 381.352 388.333 384.605C390.145 389.222 390.145 389.222 394.024 387.077C399.79 384.052 408.467 376.28 407.94 374.623C407.387 372.546 402.034 371.405 393.334 371.446Z" fill="#F5F5F5"/>
<path d="M122.398 304.419C100.607 303.892 98.041 304.729 97.5406 312.873C97.2753 318.043 98.5945 320.875 103.671 325.667C111.749 333.185 113.774 331.79 107.78 323.169C105.593 319.969 104.023 316.519 104.296 315.488C105.013 312.782 105.941 313.441 110.851 320.947C117.569 331.001 134.014 343.906 135.072 339.91C135.242 339.265 132.884 336.71 129.719 334.079C124.059 329.409 120.253 323.988 121.917 322.911C122.406 322.627 126.887 326.02 131.808 330.357C149.538 346.222 167.314 358.789 168.031 356.082C168.133 355.695 164.459 352.378 160.081 348.599C149.561 339.883 141.592 331.429 143.988 331.236C144.959 331.217 147.84 333.359 150.584 336.016C156.995 342.541 173.679 354.543 184.305 360.252C192.748 364.832 193.006 364.9 198.878 363.558C202.252 362.796 205.179 361.64 205.383 360.866C205.588 360.093 204.303 357.132 202.692 354.361C200.986 351.427 199.735 348.337 200.008 347.306C201.236 342.666 186.678 333.571 163.713 324.458C159.69 322.979 156.612 321.061 156.817 320.288C157.09 319.256 160.733 320.083 168.588 322.714C181.238 327.028 184.063 326.258 174.399 321.08C168.622 317.895 150.474 313.505 131.823 310.499C125.852 309.608 125.852 309.608 130.23 308.699C132.695 308.247 136.379 308.395 138.734 308.881C140.925 309.461 143.415 309.43 143.973 308.888C144.564 308.217 144.314 307.599 143.154 307.292C142.123 307.019 140.644 306.352 139.681 305.821C138.881 305.196 131.03 304.635 122.398 304.419Z" fill="#F5F5F5"/>
<path d="M71.7732 302.88C70.5979 303.672 64.8735 306.019 59.2515 307.978C48.8225 311.425 45.1945 314.188 51.2752 314.143C52.9585 314.037 57.2271 314.063 60.8172 314.048C66.3141 314.124 67.713 313.528 71.2955 309.374C73.6611 306.69 75.64 303.903 75.8106 303.259C76.3224 301.325 74.1577 301.166 71.7732 302.88Z" fill="#F5F5F5"/>
<path d="M378.644 383.695C378.439 384.469 379.182 386.872 380.38 389.12C382.431 392.835 382.397 392.964 379.341 394.086C376.577 395.148 376.354 394.951 375.804 390.254C375.08 384.131 373.052 383.456 367.434 387.486C363.059 390.466 363.059 390.466 365.883 399.075C367.403 403.753 371.24 416.355 374.455 427.136C380.202 446.588 383.333 454.037 387.067 457.646C390.836 461.126 391.131 458.446 387.788 452.32C385.892 449.06 382.931 440.966 381.047 434.536C374.762 411.908 375.095 401.79 382.594 397.43C384.876 396.103 386.737 394.803 386.84 394.416C386.942 394.029 386.009 391.3 384.724 388.339C382.275 383.001 379.428 380.731 378.644 383.695ZM374.754 398.389C374.174 400.58 371.441 399.443 371.281 396.918C371.263 395.948 372.078 395.474 373.238 395.781C374.398 396.088 375.061 397.229 374.754 398.389Z" fill="#F5F5F5"/>
<path d="M385.304 400.216C384.929 401.634 385.069 403.189 385.611 403.746C387.522 405.907 399.566 449.507 398.91 452.506C398.486 455.152 396.196 452.339 394.778 447.274C393.914 444.287 390.665 433.634 387.469 423.823C383.159 410.407 381.4 406.631 380.596 408.625C379.929 410.103 380.85 416.002 382.734 422.432C384.558 428.569 385.718 433.566 385.331 433.463C383.913 433.088 387.609 444.135 394.115 460.201C399.801 474.672 402.944 478.952 405.696 476.37C406.254 475.828 405.878 467.867 404.908 458.507C403.649 446.588 401.397 436.337 397.208 423.504C393.918 413.53 390.945 403.916 390.487 402.002C389.603 398.044 386.191 396.865 385.304 400.216Z" fill="#F5F5F5"/>
<path d="M47.3061 327.574C38.3631 331.138 28.3208 339.376 21.8875 348.569C14.9652 358.046 17.9449 357.732 25.743 348.072C33.1126 338.989 44.5614 329.606 47.4312 330.228C49.1068 330.671 58.6298 324.917 56.9542 324.473C56.3097 324.303 51.9577 325.633 47.3061 327.574Z" fill="#F5F5F5"/>
<path d="M59.8657 333.795C56.3742 336.043 51.4308 342.734 47.3744 350.764C44.4819 356.481 47.4427 355.195 51.7341 348.883C53.5499 346.192 57.0793 341.195 59.6155 337.867C61.9887 334.633 63.8387 331.812 63.7098 331.778C63.452 331.71 61.693 332.624 59.8657 333.795Z" fill="#F5F5F5"/>
<path d="M24.0294 355.067C14.5103 367.581 10.7079 382.987 13.4678 398.614C15.2041 408.728 18.4038 415.92 19.3591 412.311C19.632 411.28 19.8898 406.658 19.8216 402.227C19.8936 389.97 22.2174 373.897 25.6482 361.978C27.3125 356.211 28.317 351.374 27.9304 351.272C27.5437 351.169 25.7088 352.891 24.0294 355.067Z" fill="#F5F5F5"/>
<path d="M210.987 409.52C207.726 411.416 204.386 412.049 201.354 411.522C197.934 410.892 189.264 413.425 167.129 421.496C117.235 439.598 86.24 449.876 79.5679 450.592C76.0385 450.899 68.0584 450.304 61.735 449.182C51.9921 447.431 49.6114 446.524 45.4223 443.071C40.3045 438.958 35.0577 430.121 30.4137 417.444C28.5144 412.114 27.4377 410.449 26.6416 411.894C25.1783 414.817 27.7221 425.007 32.0401 433.184C35.8235 440.254 35.8235 440.254 31.9567 439.231C21.9029 436.569 4.17231 401.946 7.14063 390.732C7.9936 387.51 6.97381 384.068 5.39296 383.787C4.71437 383.746 5.44223 377.87 6.86383 370.936C9.42651 358.649 9.36586 358.357 6.73113 364.142C0.400196 377.638 -1.36634 402.549 3.16394 414.093C4.38086 417.311 4.41498 417.182 5.10872 411.435C5.7418 405.396 5.7418 405.396 10.1432 416.905C12.4823 423.18 16.7661 431.486 19.5904 435.406C24.7652 442.43 24.7652 442.43 45.665 448.928C74.2302 457.731 79.0827 457.636 108.414 448.435C131.118 441.342 219.224 410.183 219.952 408.997C221.734 406.434 215.585 406.737 210.987 409.52Z" fill="#F5F5F5"/>
<path d="M36.7407 373.741C36.2024 375.254 34.8339 378.34 33.8331 380.557C32.3622 384.03 32.3887 384.451 34.0605 382.824C35.141 381.869 36.3806 378.749 36.8393 375.974C37.2639 373.328 37.2449 372.357 36.7407 373.741Z" fill="#F5F5F5"/>
<path d="M110.37 414.471C106.385 414.934 102.954 417.474 104.452 419.112C106.715 421.504 116.53 420.378 117.247 417.671C117.656 416.124 113.478 414.191 110.37 414.471Z" fill="#F5F5F5"/>
<path d="M36.4122 546.241L49.2762 482.017H24.7002L25.2762 479.041H77.7882L77.1162 482.017H52.5402L39.6762 546.241H36.4122Z" fill="#F5F5F5"/>
<path d="M101.271 546.241L114.711 479.041H137.751C144.983 479.041 150.583 480.641 154.551 483.841C158.583 486.977 160.599 491.425 160.599 497.185C160.599 502.945 159.351 507.809 156.855 511.777C154.359 515.681 150.807 518.625 146.199 520.609C141.655 522.593 136.247 523.585 129.975 523.585H107.607L109.335 522.145L104.535 546.241H101.271ZM148.695 546.241L134.871 521.857H138.519L152.247 546.241H148.695ZM109.335 522.145L108.183 520.705H129.879C138.583 520.705 145.335 518.753 150.135 514.849C154.935 510.945 157.335 505.121 157.335 497.377C157.335 492.449 155.639 488.673 152.247 486.049C148.855 483.361 143.991 482.017 137.655 482.017H115.959L117.687 480.481L109.335 522.145Z" fill="#F5F5F5"/>
<path d="M182.843 546.241L227.387 479.041H230.555L248.219 546.241H244.955L228.059 481.249H229.403L186.491 546.241H182.843ZM197.531 526.561L199.355 523.777H240.443L241.115 526.561H197.531Z" fill="#F5F5F5"/>
<path d="M315.44 546.625C308.912 546.625 303.376 545.473 298.832 543.169C294.288 540.865 290.832 537.665 288.464 533.569C286.096 529.409 284.912 524.641 284.912 519.265C284.912 513.825 285.84 508.673 287.696 503.809C289.552 498.945 292.208 494.625 295.664 490.849C299.184 487.073 303.44 484.097 308.432 481.921C313.488 479.745 319.152 478.657 325.424 478.657C330.608 478.657 335.152 479.425 339.056 480.961C343.024 482.497 346.128 484.673 348.368 487.489L346.064 489.505C343.824 486.881 340.976 484.929 337.52 483.649C334.064 482.305 329.968 481.633 325.232 481.633C319.536 481.633 314.384 482.625 309.776 484.609C305.232 486.593 301.36 489.313 298.16 492.769C294.96 496.225 292.496 500.225 290.768 504.769C289.04 509.313 288.176 514.113 288.176 519.169C288.176 523.969 289.2 528.225 291.248 531.937C293.36 535.585 296.432 538.465 300.464 540.577C304.56 542.625 309.648 543.649 315.728 543.649C320.528 543.649 324.848 542.945 328.688 541.537C332.528 540.065 335.856 538.017 338.672 535.393L340.592 537.793C337.776 540.481 334.16 542.625 329.744 544.225C325.328 545.825 320.56 546.625 315.44 546.625ZM308.336 566.881C306.928 566.881 305.552 566.657 304.208 566.209C302.864 565.825 301.712 565.217 300.752 564.385L302.288 562.369C303.056 563.073 303.952 563.585 304.976 563.905C306.064 564.289 307.248 564.481 308.528 564.481C310.768 564.481 312.528 563.873 313.808 562.657C315.088 561.505 315.728 560.001 315.728 558.145C315.728 556.737 315.216 555.617 314.192 554.785C313.232 554.017 311.824 553.633 309.968 553.633H308.432L312.176 545.761H314.576L311.888 551.521C313.936 551.713 315.536 552.385 316.688 553.537C317.904 554.753 318.512 556.289 318.512 558.145C318.512 560.577 317.552 562.625 315.632 564.289C313.776 566.017 311.344 566.881 308.336 566.881Z" fill="#F5F5F5"/>
<path d="M408.159 546.625C401.567 546.625 395.999 545.473 391.455 543.169C386.975 540.865 383.551 537.665 381.183 533.569C378.815 529.409 377.631 524.641 377.631 519.265C377.631 513.825 378.559 508.673 380.415 503.809C382.271 498.945 384.927 494.625 388.383 490.849C391.839 487.073 396.031 484.097 400.959 481.921C405.951 479.745 411.551 478.657 417.759 478.657C424.287 478.657 429.823 479.809 434.367 482.113C438.911 484.417 442.335 487.617 444.639 491.713C447.007 495.809 448.191 500.577 448.191 506.017C448.191 511.457 447.263 516.609 445.407 521.473C443.615 526.337 440.959 530.657 437.439 534.433C433.983 538.209 429.791 541.185 424.863 543.361C419.935 545.537 414.367 546.625 408.159 546.625ZM408.447 543.649C414.015 543.649 419.039 542.657 423.519 540.673C427.999 538.689 431.807 535.969 434.943 532.513C438.143 529.057 440.607 525.057 442.335 520.513C444.063 515.969 444.927 511.169 444.927 506.113C444.927 501.249 443.903 496.993 441.855 493.345C439.807 489.697 436.735 486.849 432.639 484.801C428.543 482.689 423.487 481.633 417.471 481.633C411.903 481.633 406.847 482.625 402.303 484.609C397.823 486.593 393.983 489.313 390.783 492.769C387.647 496.225 385.215 500.225 383.487 504.769C381.759 509.313 380.895 514.113 380.895 519.169C380.895 523.969 381.919 528.225 383.967 531.937C386.079 535.585 389.151 538.465 393.183 540.577C397.279 542.625 402.367 543.649 408.447 543.649Z" fill="#F5F5F5"/>
<path d="M500.976 546.625C497.776 546.625 494.64 546.209 491.568 545.377C488.496 544.545 485.744 543.457 483.312 542.113C480.944 540.705 479.12 539.137 477.84 537.409L479.76 535.105C481.104 536.705 482.896 538.177 485.136 539.521C487.376 540.801 489.872 541.825 492.624 542.593C495.44 543.361 498.288 543.745 501.168 543.745C505.584 543.745 509.488 543.137 512.88 541.921C516.272 540.641 518.896 538.785 520.752 536.353C522.672 533.921 523.632 531.009 523.632 527.617C523.632 525.057 522.96 523.009 521.616 521.473C520.336 519.873 518.64 518.593 516.528 517.633C514.416 516.609 512.08 515.777 509.52 515.137C506.96 514.433 504.4 513.665 501.84 512.833C499.344 512.001 497.04 511.009 494.928 509.857C492.816 508.705 491.088 507.201 489.744 505.345C488.464 503.489 487.824 501.089 487.824 498.145C487.824 493.985 488.912 490.465 491.088 487.585C493.328 484.641 496.336 482.433 500.112 480.961C503.952 479.425 508.272 478.657 513.072 478.657C516.784 478.657 520.4 479.169 523.92 480.193C527.44 481.217 530.416 482.689 532.848 484.609L531.12 487.297C528.752 485.441 526 484.033 522.864 483.073C519.792 482.049 516.496 481.537 512.976 481.537C508.688 481.537 504.88 482.177 501.552 483.457C498.224 484.737 495.632 486.593 493.776 489.025C491.92 491.457 490.96 494.401 490.896 497.857C490.896 500.353 491.536 502.401 492.816 504.001C494.16 505.601 495.888 506.913 498 507.937C500.112 508.961 502.448 509.857 505.008 510.625C507.632 511.329 510.192 512.065 512.688 512.833C515.248 513.601 517.584 514.593 519.696 515.809C521.872 516.961 523.6 518.433 524.88 520.225C526.16 522.017 526.8 524.353 526.8 527.233C526.8 531.521 525.648 535.105 523.344 537.985C521.104 540.801 518.032 542.945 514.128 544.417C510.224 545.889 505.84 546.625 500.976 546.625Z" fill="#C4A02E"/>
</svg>
