<svg width="245" height="76" viewBox="0 0 245 76" fill="none" xmlns="http://www.w3.org/2000/svg">
<g clip-path="url(#clip0_8088_1514)">
<path d="M226.865 54.9745C226.829 54.8619 226.747 54.8078 226.613 54.8078H224.72C224.595 54.8078 224.515 54.8619 224.481 54.9745L221.19 63.5362C221.124 63.6984 221.177 63.7795 221.355 63.7795H223.044C223.168 63.7795 223.248 63.7254 223.282 63.6128L223.788 62.2158H227.557L228.062 63.6128C228.098 63.7254 228.173 63.7795 228.288 63.7795H230.005C230.164 63.7795 230.217 63.6984 230.169 63.5362L226.865 54.9745ZM224.457 60.3818L225.656 57.0743H225.695L226.892 60.3818H224.457ZM184.017 55.0105V56.5246C184.017 56.6599 183.951 56.7318 183.817 56.7318H181.534V63.5766C181.534 63.7119 181.467 63.784 181.334 63.784H179.707C179.574 63.784 179.509 63.7164 179.509 63.5766V56.7318H177.238C177.096 56.7318 177.026 56.6644 177.026 56.5246V55.0105C177.026 54.8754 177.096 54.8033 177.238 54.8033H183.822C183.954 54.8033 184.022 54.8709 184.022 55.0105H184.017ZM169.567 55.0105V63.5721C169.567 63.7074 169.496 63.7795 169.354 63.7795H167.727C167.594 63.7795 167.529 63.7119 167.529 63.5721V55.0105C167.529 54.8754 167.594 54.8033 167.727 54.8033H169.354C169.496 54.8033 169.567 54.8709 169.567 55.0105ZM170.512 41.9339V48.7605C170.512 49.2834 170.096 49.7114 169.576 49.7114H165.545C159.941 49.7114 155.317 47.918 151.801 44.3806C148.281 40.8388 146.498 36.3057 146.498 30.9118C146.498 25.518 148.263 21.1381 151.748 17.5963C155.233 14.0545 159.773 12.2611 165.249 12.2611H169.528C170.042 12.2611 170.462 12.6847 170.462 13.2119V20.0387C170.462 20.5614 170.046 20.9895 169.528 20.9895H165.497C162.38 20.9895 159.968 21.9131 158.128 23.8148C156.283 25.7209 155.384 28.0415 155.384 30.9118C155.384 33.7823 156.283 36.2111 158.128 38.1397C159.968 40.0548 162.393 40.9876 165.545 40.9876H169.576C170.091 40.9876 170.512 41.4112 170.512 41.9384V41.9339ZM198.814 55.0105V60.1385C198.814 61.3506 198.489 62.2879 197.841 62.9503C197.194 63.6128 196.281 63.9416 195.106 63.9416C193.931 63.9416 193.018 63.6128 192.375 62.9503C191.732 62.2879 191.409 61.3506 191.409 60.1385V55.0105C191.409 54.8754 191.475 54.8033 191.607 54.8033H193.235C193.377 54.8033 193.449 54.8709 193.449 55.0105V59.9942C193.449 60.6702 193.586 61.1659 193.856 61.4814C194.131 61.7967 194.542 61.9544 195.098 61.9544C195.652 61.9544 196.069 61.7967 196.348 61.4814C196.627 61.1659 196.765 60.6702 196.765 59.9942V55.0105C196.765 54.8754 196.83 54.8033 196.964 54.8033H198.59C198.732 54.8033 198.804 54.8709 198.804 55.0105H198.814ZM180.922 49.7159H173.956C173.443 49.7159 173.021 49.2924 173.021 48.7652V13.2119C173.021 12.6892 173.438 12.2611 173.956 12.2611H180.922C181.437 12.2611 181.857 12.6847 181.857 13.2119V48.7652C181.857 49.2879 181.44 49.7159 180.922 49.7159ZM212.496 60.5756C212.966 60.3277 213.329 59.9718 213.582 59.5077C213.835 59.0435 213.958 58.5073 213.958 57.899C213.958 56.9347 213.657 56.1777 213.05 55.6325C212.443 55.0871 211.6 54.8123 210.514 54.8123H207.059C206.927 54.8123 206.86 54.8799 206.86 55.0195V63.5811C206.86 63.7164 206.927 63.7885 207.059 63.7885H208.687C208.829 63.7885 208.899 63.7209 208.899 63.5811V61.0308H209.392C210.074 61.0308 210.602 61.2245 210.975 61.6075C211.348 61.9906 211.622 62.6528 211.8 63.5946C211.827 63.7209 211.902 63.7885 212.025 63.7885H213.852C214.004 63.7885 214.064 63.7119 214.043 63.5586C213.826 62.1663 213.308 61.1749 212.491 60.5846L212.496 60.5756ZM210.464 59.0886H208.899V56.7183H210.464C211.396 56.7183 211.866 57.1104 211.866 57.899C211.866 58.6875 211.401 59.0886 210.464 59.0886ZM194.947 20.9895V26.9781H205.357C205.872 26.9781 206.293 27.4016 206.293 27.9289V34.5032C206.293 35.0259 205.876 35.454 205.357 35.454H194.947V48.7652C194.947 49.2879 194.53 49.7159 194.01 49.7159H187.046C186.531 49.7159 186.109 49.2924 186.109 48.7652V13.2119C186.109 12.6892 186.526 12.2611 187.046 12.2611H206.004C206.519 12.2611 206.941 12.6847 206.941 13.2119V20.0387C206.941 20.5614 206.523 20.9895 206.004 20.9895H194.947ZM230.373 13.2119V20.0387C230.373 20.5614 229.957 20.9895 229.437 20.9895H218.379V26.9781H228.789C229.304 26.9781 229.726 27.4016 229.726 27.9289V34.5032C229.726 35.0259 229.309 35.454 228.789 35.454H218.379V40.9876H229.437C229.952 40.9876 230.373 41.4112 230.373 41.9384V48.7652C230.373 49.2879 229.957 49.7159 229.437 49.7159H210.478C209.963 49.7159 209.542 49.2924 209.542 48.7652V13.2119C209.542 12.6892 209.959 12.2611 210.478 12.2611H229.437C229.952 12.2611 230.373 12.6847 230.373 13.2119ZM159.76 62.0852V63.5721C159.76 63.7074 159.693 63.7795 159.561 63.7795H153.645C153.512 63.7795 153.446 63.7119 153.446 63.5721V55.0105C153.446 54.8754 153.512 54.8033 153.645 54.8033H159.511C159.645 54.8033 159.71 54.8709 159.71 55.0105V56.4976C159.71 56.6417 159.645 56.7138 159.511 56.7138H155.49V58.354H158.629C158.762 58.354 158.829 58.4262 158.829 58.5704V60.0079C158.829 60.152 158.762 60.2241 158.629 60.2241H155.49V61.8643H159.565C159.698 61.8643 159.763 61.9364 159.763 62.0807L159.76 62.0852ZM227.965 0H17.0348C7.63949 0 0 7.76402 0 17.3125V58.692C0 68.2359 7.63949 76.0045 17.0348 76.0045H227.965C237.357 76.0045 245 68.2406 245 58.692V17.3125C245 7.76853 237.361 0 227.965 0ZM241.152 58.6875C241.152 66.0775 235.237 72.0886 227.965 72.0886H17.0348C9.76328 72.0886 3.84856 66.0775 3.84856 58.6875V17.3125C3.84856 9.92245 9.76328 3.9113 17.0348 3.9113H227.965C235.237 3.9113 241.152 9.92245 241.152 17.3125V58.692V58.6875ZM116.1 60.5711C116.57 60.3232 116.933 59.9673 117.186 59.5032C117.439 59.039 117.563 58.5028 117.563 57.8945C117.563 56.9302 117.261 56.1731 116.654 55.6278C116.047 55.0826 115.204 54.8078 114.118 54.8078H110.664C110.531 54.8078 110.464 54.8754 110.464 55.015V63.5766C110.464 63.7119 110.531 63.784 110.664 63.784H112.291C112.433 63.784 112.504 63.7164 112.504 63.5766V61.0261H112.996C113.679 61.0261 114.207 61.22 114.579 61.603C114.951 61.9861 115.226 62.6484 115.404 63.5901C115.43 63.7164 115.506 63.784 115.63 63.784H117.457C117.607 63.784 117.669 63.7074 117.647 63.5541C117.43 62.1618 116.911 61.1704 116.095 60.5801L116.1 60.5711ZM114.069 59.0841H112.504V56.7138H114.069C115 56.7138 115.47 57.1059 115.47 57.8945C115.47 58.683 115.005 59.0841 114.069 59.0841ZM131.809 62.0852V63.5721C131.809 63.7074 131.742 63.7795 131.609 63.7795H125.695C125.562 63.7795 125.495 63.7119 125.495 63.5721V55.0105C125.495 54.8754 125.562 54.8033 125.695 54.8033H131.56C131.694 54.8033 131.76 54.8709 131.76 55.0105V56.4976C131.76 56.6417 131.694 56.7138 131.56 56.7138H127.539V58.354H130.678C130.811 58.354 130.878 58.4262 130.878 58.5704V60.0079C130.878 60.152 130.811 60.2241 130.678 60.2241H127.539V61.8643H131.614C131.747 61.8643 131.813 61.9364 131.813 62.0807L131.809 62.0852ZM120.84 34.2149C121.97 32.0475 122.542 29.6952 122.542 27.2213C122.542 23.1344 121.079 19.579 118.188 16.659C115.297 13.7391 111.626 12.2611 107.276 12.2611H96.7772C96.2628 12.2611 95.8417 12.6847 95.8417 13.2119V48.7652C95.8417 49.2879 96.2585 49.7159 96.7772 49.7159H103.743C104.257 49.7159 104.678 49.2924 104.678 48.7652V42.2312H107.525C107.839 42.2312 108.243 42.2132 108.731 42.1727L110.172 44.4707C111.458 46.503 112.876 47.9044 114.388 48.6344C115.887 49.3598 118.073 49.7114 121.061 49.7114C121.576 49.7114 121.997 49.2879 121.997 48.7605V41.9339C121.997 41.4112 121.58 40.9831 121.061 40.9831C119.984 40.9831 119.128 40.8658 118.525 40.6361C118.006 40.4377 117.527 40.0188 117.115 39.3879L116.858 38.9868C118.521 37.7027 119.855 36.0984 120.84 34.2059V34.2149ZM111.914 31.5293C110.691 32.6873 109.236 33.2461 107.476 33.2461H104.678V21.2373H107.476C109.236 21.2373 110.686 21.805 111.914 22.9767C113.12 24.1302 113.71 25.5362 113.71 27.2665C113.71 28.9968 113.125 30.3891 111.919 31.5248L111.914 31.5293ZM145.811 55.0105V56.5246C145.811 56.6599 145.744 56.7318 145.611 56.7318H141.625V58.6019H145.066C145.199 58.6019 145.266 58.6695 145.266 58.8093V60.3097C145.266 60.454 145.199 60.5261 145.066 60.5261H141.625V63.5766C141.625 63.7119 141.554 63.784 141.412 63.784H139.785C139.652 63.784 139.586 63.7164 139.586 63.5766V55.015C139.586 54.8799 139.652 54.8078 139.785 54.8078H145.611C145.744 54.8078 145.811 54.8754 145.811 55.015V55.0105ZM146.028 13.2119V20.0387C146.028 20.5614 145.611 20.9895 145.093 20.9895H134.035V26.9781H144.445C144.959 26.9781 145.381 27.4016 145.381 27.9289V34.5032C145.381 35.0259 144.964 35.454 144.445 35.454H134.035V40.9876H145.093C145.607 40.9876 146.028 41.4112 146.028 41.9384V48.7652C146.028 49.2879 145.611 49.7159 145.093 49.7159H126.133C125.619 49.7159 125.198 49.2924 125.198 48.7652V13.2119C125.198 12.6892 125.615 12.2611 126.133 12.2611H145.093C145.607 12.2611 146.028 12.6847 146.028 13.2119ZM99.4286 54.8078H96.01C95.8771 54.8078 95.8106 54.8754 95.8106 55.015V63.5766C95.8106 63.7119 95.8771 63.784 96.01 63.784H97.6373C97.7792 63.784 97.8502 63.7164 97.8502 63.5766V61.1299H99.4286C100.524 61.1299 101.371 60.8504 101.969 60.2962C102.572 59.7419 102.869 58.9623 102.869 57.9621C102.869 56.9617 102.568 56.1866 101.969 55.637C101.366 55.0871 100.519 54.8123 99.4286 54.8123V54.8078ZM99.3798 59.2057H97.8546V56.7183H99.3798C100.306 56.7183 100.768 57.1329 100.768 57.9621C100.768 58.7911 100.306 59.2057 99.3798 59.2057ZM48.7055 22.8189C51.6852 22.8189 54.5228 23.4407 57.1076 24.5627L56.2342 26.6717C53.9198 25.6712 51.3792 25.1171 48.7055 25.1171C46.0321 25.1171 43.487 25.6712 41.1725 26.6762L40.2991 24.5672C42.8841 23.4452 45.7261 22.8234 48.7055 22.8234V22.8189ZM35.6523 14.726C35.812 14.6539 35.9716 14.5728 36.1313 14.5052C37.3329 13.9824 38.5742 13.5409 39.8468 13.1713L39.5143 12.0178C39.2039 12.1079 38.8935 12.2025 38.5877 12.3017L38.7384 12.7658C38.468 12.8514 38.2019 12.9506 37.9315 13.0452L37.7807 12.5765C37.4525 12.6892 37.1289 12.8109 36.8096 12.9325L36.987 13.3921C36.721 13.4958 36.4594 13.5994 36.1977 13.7121L36.0205 13.257C35.9051 13.3065 35.7898 13.3516 35.6747 13.4012C35.5061 13.4733 35.3421 13.5544 35.1779 13.631C35.1603 13.64 35.1469 13.6445 35.1293 13.6535L35.608 14.753C35.608 14.753 35.6391 14.7395 35.6569 14.7305L35.6523 14.726ZM43.7974 17.3801L43.1721 13.6986C42.1657 13.8833 41.1725 14.1221 40.2015 14.406L41.2302 17.9929C42.0682 17.7496 42.9238 17.5424 43.7974 17.3801ZM48.7055 16.9204C49.1445 16.9204 49.5791 16.9339 50.0135 16.9565L50.222 13.2209C49.721 13.1939 49.2155 13.1804 48.7055 13.1804C48.1957 13.1804 47.677 13.1939 47.167 13.2209L47.3755 16.9565C47.8143 16.9339 48.2578 16.9204 48.7055 16.9204ZM54.6336 11.2427C54.3454 11.1887 54.0573 11.1436 53.7691 11.0985L53.7026 11.5852C53.4233 11.5401 53.1394 11.5131 52.8601 11.4771L52.9311 10.9814C52.634 10.9408 52.3325 10.9048 52.031 10.8732L51.9867 11.3689C51.7073 11.3419 51.4191 11.3238 51.1398 11.3013L51.1841 10.7966C50.9137 10.7741 50.6387 10.7561 50.3683 10.7426L50.3018 11.9412C51.7073 12.0133 53.0862 12.18 54.4385 12.4323L54.6381 11.2472L54.6336 11.2427ZM47.0962 11.9367L47.0295 10.7381C46.7502 10.7516 46.4709 10.7741 46.1916 10.7966L46.2315 11.3013C45.9478 11.3238 45.6639 11.3374 45.3846 11.3689L45.3448 10.8777C45.0433 10.9093 44.7417 10.9453 44.4447 10.9859L44.5112 11.4816C44.2319 11.5176 43.9482 11.5491 43.6688 11.5897L43.6022 11.1076C43.3185 11.1526 43.0348 11.1977 42.7555 11.2518L42.9549 12.4369C44.3072 12.1845 45.6906 12.0133 47.0962 11.9412V11.9367ZM61.7411 14.7169C61.7411 14.7169 61.7676 14.7305 61.7809 14.735L62.2598 13.6355C62.2598 13.6355 62.2333 13.622 62.2155 13.6174C62.0515 13.5409 61.8918 13.4597 61.7233 13.3921C61.5992 13.3381 61.475 13.293 61.3553 13.2389L61.1735 13.7031C60.912 13.5949 60.6459 13.4868 60.3842 13.3831L60.566 12.919C60.2513 12.7973 59.932 12.6802 59.6129 12.5675L59.4576 13.0407C59.1915 12.946 58.9211 12.8514 58.6507 12.7613L58.8059 12.2927C58.4955 12.1935 58.1852 12.0989 57.8748 12.0043L57.5422 13.1578C58.8147 13.5318 60.0606 13.9689 61.2667 14.4916C61.4262 14.5592 61.5815 14.6403 61.7411 14.7124V14.7169ZM58.1806 21.9538C55.2676 20.6875 52.062 19.9891 48.7012 19.9891C45.3403 19.9891 42.1302 20.692 39.2128 21.9583L40.1483 24.2203C42.7776 23.0758 45.6685 22.445 48.6968 22.445C51.725 22.445 54.6114 23.0758 57.2407 24.2158L58.1763 21.9538H58.1806ZM59.2892 20.3812C59.2892 20.3812 59.3114 20.3902 59.3201 20.3947L59.6394 19.6646C59.6394 19.6646 59.6172 19.6556 59.604 19.6466C59.4709 19.588 59.3423 19.5205 59.205 19.4619C55.9727 18.0605 52.4256 17.2855 48.7012 17.2855C44.9767 17.2855 41.4164 18.065 38.1841 19.4664C38.0466 19.525 37.9137 19.5925 37.7807 19.6511C37.7673 19.6556 37.754 19.6646 37.7408 19.6691L38.06 20.3992C38.06 20.3992 38.0866 20.3857 38.0955 20.3812C38.2284 20.3226 38.357 20.2594 38.4856 20.201C41.6247 18.8356 45.0742 18.083 48.6968 18.083C52.3192 18.083 55.7598 18.8356 58.8989 20.1963C59.0275 20.2549 59.1561 20.3181 59.2847 20.3767L59.2892 20.3812ZM58.3226 21.6068L58.7615 20.5479C55.6667 19.205 52.2704 18.4615 48.7012 18.4615C45.132 18.4615 41.7268 19.205 38.632 20.5524L39.0709 21.6113C39.0709 21.6113 39.0753 21.6113 39.0797 21.6113C39.0575 21.2102 39.2836 20.8228 39.6694 20.674C40.0597 20.5208 40.4852 20.656 40.7291 20.976C41.1414 20.8318 41.5539 20.701 41.9751 20.5794C41.9972 20.1738 42.2677 19.8134 42.6712 19.7097C43.0746 19.6061 43.4825 19.7954 43.6865 20.1423C44.0811 20.0567 44.4758 19.9846 44.8792 19.9215C44.9413 19.5114 45.256 19.1781 45.6817 19.1239C46.1074 19.0698 46.5019 19.3221 46.6527 19.7097C47.0295 19.6781 47.4109 19.6556 47.7922 19.6376C47.8942 19.2275 48.2578 18.9212 48.6879 18.9212C49.118 18.9212 49.4816 19.2275 49.5835 19.6376C49.9649 19.6511 50.3461 19.6736 50.7275 19.7052C50.8826 19.3176 51.2727 19.0653 51.6984 19.1194C52.1196 19.1736 52.4344 19.5069 52.4965 19.9125C52.8955 19.9756 53.2947 20.0477 53.6892 20.1333C53.8977 19.7864 54.301 19.6016 54.7046 19.7052C55.108 19.8089 55.3784 20.1648 55.4007 20.5704C55.8219 20.692 56.2387 20.8273 56.651 20.9668C56.8993 20.6515 57.3205 20.5163 57.7108 20.6695C58.0964 20.8228 58.3181 21.2057 58.3003 21.6023C58.3003 21.6023 58.3049 21.6023 58.3092 21.6023L58.3226 21.6068ZM39.4789 13.658C38.468 13.9734 37.4747 14.3339 36.5081 14.744C36.4284 14.7755 36.3485 14.8071 36.2687 14.8386L36.4727 15.3343C36.5524 15.2982 36.6323 15.2712 36.7121 15.2397C37.6609 14.8386 38.632 14.4826 39.6251 14.1717L39.4789 13.6535V13.658ZM38.2816 19.0293C39.0886 18.6868 39.9177 18.3849 40.7602 18.119L39.7315 14.5322C38.7517 14.8341 37.794 15.1856 36.8585 15.5822C36.7786 15.6137 36.6988 15.6451 36.6234 15.6768L38.0512 19.1194C38.1265 19.0879 38.2063 19.0563 38.2862 19.0248L38.2816 19.0293ZM46.8922 16.979L46.6837 13.2479C45.6596 13.3155 44.6487 13.4327 43.651 13.5994L44.2762 17.2808C45.1363 17.1368 46.0099 17.0376 46.8922 16.9745V16.979ZM43.5003 12.7027L43.5889 13.2344C44.5998 13.0632 45.6241 12.946 46.6616 12.874L46.6305 12.3377C45.5709 12.4098 44.5245 12.5315 43.4958 12.7027H43.5003ZM61.1292 14.8341C61.0493 14.7981 60.9652 14.771 60.8853 14.735C59.9187 14.3249 58.9256 13.9644 57.9147 13.649L57.7683 14.1672C58.7615 14.4736 59.7326 14.8296 60.6814 15.2306C60.7612 15.2667 60.8454 15.2937 60.9253 15.3298L61.1292 14.8341ZM60.535 15.5732C59.5995 15.1766 58.6418 14.8251 57.6619 14.5232L56.6332 18.11C57.4801 18.3714 58.3048 18.6779 59.1162 19.0158C59.1961 19.0518 59.2803 19.0788 59.3601 19.1149L60.7834 15.6723C60.7035 15.6361 60.6192 15.6092 60.5395 15.5732H60.535ZM50.4968 16.9745C51.3837 17.0332 52.2571 17.1323 53.1172 17.2764L53.7424 13.5949C52.7448 13.4282 51.7339 13.311 50.7097 13.2434L50.5014 16.9745H50.4968ZM53.8888 12.6937C52.8601 12.5225 51.8138 12.4008 50.754 12.3287L50.723 12.8649C51.7605 12.9325 52.7892 13.0497 53.7956 13.2209L53.8842 12.6892L53.8888 12.6937ZM53.5916 17.362C54.4607 17.5242 55.3165 17.7271 56.1588 17.9704L57.1875 14.3835C56.2164 14.0996 55.2233 13.8653 54.2124 13.676L53.5873 17.3575L53.5916 17.362ZM48.6879 34.7196C44.2497 34.7196 40.3434 37.0717 38.0909 40.6181H38.6187C40.8178 37.3331 44.5068 35.1747 48.6879 35.1747C52.869 35.1747 56.5579 37.3331 58.7571 40.6181H59.2847C57.0323 37.0717 53.1261 34.7196 48.6879 34.7196ZM69.2031 22.909C69.3673 22.9812 70.5822 22.3818 71.491 22.7558C72.0586 22.9902 72.2892 23.3596 72.5064 23.8418C72.5241 23.0443 72.1207 22.7198 71.7039 22.49C71.1274 22.1746 69.5046 22.5261 69.4514 22.5079C69.3982 22.49 68.7997 20.6605 67.4296 21.9313C69.0435 21.1426 69.0435 22.8369 69.2031 22.909ZM49.118 41.4336H48.4484V42.5691H47.3178V43.2496H48.4484V46.3453H49.118V43.2496H50.2486V42.5691H49.118V41.4336ZM48.6879 33.6201C43.6289 33.6201 39.1995 36.4409 36.8274 40.6181H37.3372C39.665 36.6978 43.8815 34.0706 48.6923 34.0706C53.503 34.0706 57.7151 36.6978 60.0429 40.6181H60.5528C58.1763 36.4364 53.7513 33.6201 48.6923 33.6201H48.6879ZM36.1002 30.2945H61.2754V40.6045C58.8368 36.0578 54.106 32.9711 48.6879 32.9711C43.2697 32.9711 38.5388 36.0623 36.1002 40.6045V30.2945ZM47.7567 31.403L47.8543 31.4752L48.0539 31.6239L48.2533 31.7725L48.3332 31.8311L48.2533 32.0745L48.1114 32.5251L48.2533 32.4214L48.4529 32.2727L48.6523 32.124L48.6879 32.097L48.8563 32.2232L49.0559 32.3718L49.2555 32.5206L49.2642 32.5295L49.2555 32.4981L49.0559 31.8718L49.047 31.8356L49.0559 31.8266L49.2555 31.6779L49.4594 31.5248L49.6189 31.403H48.9007L48.8563 31.2543L48.6879 30.7181L48.6523 30.8262L48.4661 31.403H47.7567ZM57.9767 40.6226H39.4035C41.5096 37.7162 44.8881 35.8281 48.6879 35.8281C52.4876 35.8281 55.8662 37.7162 57.9723 40.6226H57.9767ZM49.7121 38.3065L49.7742 38.2838L49.9293 38.2299L50.0889 38.1757L49.9293 38.0901L49.7742 38.0045L49.6766 37.9504L49.7742 37.8513L49.9293 37.689L50.0579 37.5539H49.548L49.6145 37.3962L49.7342 37.0942L49.6145 37.1303L49.4549 37.1753L49.2998 37.2205L49.2598 37.2295L49.2244 36.7382L49.1401 36.8149L48.9894 36.9456L48.8475 37.0672L48.8254 37.0222L48.6612 36.6843V36.6753L48.5061 36.9591L48.4618 37.0402L48.3508 36.9456L48.1913 36.8059L48.0493 36.6798L48.0804 37.2654L48.0361 37.2474L47.8764 37.1843L47.7168 37.1213L47.606 37.0762L47.7168 37.3061L47.8277 37.5314H47.2513L47.3977 37.7207L47.5617 37.9369L47.6016 37.991L47.5617 38.0135L47.3977 38.0991L47.2469 38.1757L47.2248 38.1892L47.2469 38.1982L47.3977 38.2703L47.5617 38.347L47.6327 38.3829L47.5617 38.4551L47.3977 38.6263L47.2469 38.784L47.2248 38.8065H47.8011L47.7168 38.9823L47.5749 39.2887L47.7168 39.2391L47.8764 39.1851L48.0361 39.131H48.0493L48.0804 39.7168L48.1913 39.6132L48.3508 39.46L48.4928 39.3247L48.5061 39.3474L48.6612 39.6267L48.6923 39.6808L48.8254 39.2932L48.8475 39.2301L48.9894 39.3834L49.1401 39.5501L49.2642 39.6853L49.2909 39.0679H49.2998L49.4549 39.14L49.6145 39.2076L49.6721 39.2346L49.6145 39.0725L49.517 38.8065H50.0224L49.9293 38.6624L49.7742 38.4146L49.7121 38.3155V38.3065ZM60.2247 59.4671C59.9542 59.2913 59.6129 59.0751 59.1561 59.0751C58.6995 59.0751 58.3581 59.2913 58.0876 59.4671C57.8526 59.6203 57.6663 59.7374 57.4358 59.7374C57.2053 59.7374 57.019 59.6158 56.784 59.4671C56.5135 59.2913 56.1721 59.0751 55.7155 59.0751C55.2587 59.0751 54.9175 59.2913 54.6469 59.4671C54.412 59.6203 54.2257 59.7374 53.9952 59.7374C53.7645 59.7374 53.5784 59.6158 53.3434 59.4671C53.0729 59.2913 52.7315 59.0751 52.2749 59.0751C51.8181 59.0751 51.4767 59.2913 51.2062 59.4671C50.9712 59.6203 50.7851 59.7374 50.5544 59.7374C50.3239 59.7374 50.1378 59.6158 49.9028 59.4671C49.6323 59.2913 49.2909 59.0751 48.8341 59.0751C48.3775 59.0751 48.0361 59.2913 47.7656 59.4671C47.5306 59.6203 47.3445 59.7374 47.1138 59.7374C46.8833 59.7374 46.697 59.6158 46.4621 59.4671C46.1916 59.2913 45.8503 59.0751 45.3935 59.0751C44.9369 59.0751 44.5955 59.2913 44.325 59.4671C44.09 59.6203 43.9037 59.7374 43.6732 59.7374C43.4427 59.7374 43.2564 59.6158 43.0214 59.4671C42.7509 59.2913 42.4095 59.0751 41.9529 59.0751C41.4961 59.0751 41.1549 59.2913 40.8843 59.4671C40.6494 59.6203 40.4631 59.7374 40.2326 59.7374C40.0019 59.7374 39.8158 59.6158 39.5808 59.4671C39.3103 59.2913 38.9689 59.0751 38.5123 59.0751C38.0555 59.0751 37.7141 59.2913 37.4436 59.4671C37.2086 59.6203 37.0225 59.7374 36.792 59.7374C36.5613 59.7374 36.3752 59.6158 36.1402 59.4671C36.1313 59.4626 36.1224 59.4536 36.1135 59.4491V60.2421C36.3087 60.3412 36.5259 60.4178 36.792 60.4178C37.2221 60.4178 37.5368 60.2151 37.8116 60.0394C38.0512 59.8861 38.2551 59.7555 38.5123 59.7555C38.7695 59.7555 38.9734 59.8861 39.2128 60.0394C39.4876 60.2151 39.8025 60.4178 40.2326 60.4178C40.6627 60.4178 40.9774 60.2151 41.2524 60.0394C41.4918 59.8861 41.6957 59.7555 41.9529 59.7555C42.2101 59.7555 42.414 59.8861 42.6534 60.0394C42.9284 60.2151 43.2431 60.4178 43.6732 60.4178C44.1033 60.4178 44.418 60.2151 44.693 60.0394C44.9324 59.8861 45.1363 59.7555 45.3935 59.7555C45.6507 59.7555 45.8546 59.8861 46.094 60.0394C46.369 60.2151 46.6837 60.4178 47.1138 60.4178C47.5439 60.4178 47.8588 60.2151 48.1336 60.0394C48.373 59.8861 48.5769 59.7555 48.8341 59.7555C49.0913 59.7555 49.2952 59.8861 49.5348 60.0394C49.8096 60.2151 50.1243 60.4178 50.5544 60.4178C50.9847 60.4178 51.2994 60.2151 51.5742 60.0394C51.8138 59.8861 52.0177 59.7555 52.2749 59.7555C52.5321 59.7555 52.736 59.8861 52.9754 60.0394C53.2502 60.2151 53.5651 60.4178 53.9952 60.4178C54.4253 60.4178 54.74 60.2151 55.015 60.0394C55.2544 59.8861 55.4583 59.7555 55.7155 59.7555C55.9727 59.7555 56.1766 59.8861 56.416 60.0394C56.691 60.2151 57.0057 60.4178 57.4358 60.4178C57.8659 60.4178 58.1806 60.2151 58.4556 60.0394C58.695 59.8861 58.8989 59.7555 59.1561 59.7555C59.4133 59.7555 59.6172 59.8861 59.8566 60.0394C60.1316 60.2151 60.4463 60.4178 60.8764 60.4178C61.0272 60.4178 61.1646 60.3908 61.2889 60.3549V59.6158C61.1514 59.6924 61.0228 59.7374 60.8764 59.7374C60.6459 59.7374 60.4596 59.6158 60.2247 59.4671ZM60.2247 60.7964C59.9542 60.6207 59.6129 60.4043 59.1561 60.4043C58.6995 60.4043 58.3581 60.6207 58.0876 60.7964C57.8526 60.9497 57.6663 61.0668 57.4358 61.0668C57.2053 61.0668 57.019 60.945 56.784 60.7964C56.5135 60.6207 56.1721 60.4043 55.7155 60.4043C55.2587 60.4043 54.9175 60.6207 54.6469 60.7964C54.412 60.9497 54.2257 61.0668 53.9952 61.0668C53.7645 61.0668 53.5784 60.945 53.3434 60.7964C53.0729 60.6207 52.7315 60.4043 52.2749 60.4043C51.8181 60.4043 51.4767 60.6207 51.2062 60.7964C50.9712 60.9497 50.7851 61.0668 50.5544 61.0668C50.3239 61.0668 50.1378 60.945 49.9028 60.7964C49.6323 60.6207 49.2909 60.4043 48.8341 60.4043C48.3775 60.4043 48.0361 60.6207 47.7656 60.7964C47.5306 60.9497 47.3445 61.0668 47.1138 61.0668C46.8833 61.0668 46.697 60.945 46.4621 60.7964C46.1916 60.6207 45.8503 60.4043 45.3935 60.4043C44.9369 60.4043 44.5955 60.6207 44.325 60.7964C44.09 60.9497 43.9037 61.0668 43.6732 61.0668C43.4427 61.0668 43.2564 60.945 43.0214 60.7964C42.7509 60.6207 42.4095 60.4043 41.9529 60.4043C41.4961 60.4043 41.1549 60.6207 40.8843 60.7964C40.6494 60.9497 40.4631 61.0668 40.2326 61.0668C40.0019 61.0668 39.8158 60.945 39.5808 60.7964C39.3103 60.6207 38.9689 60.4043 38.5123 60.4043C38.0555 60.4043 37.7141 60.6207 37.4436 60.7964C37.2086 60.9497 37.0225 61.0668 36.792 61.0668C36.5613 61.0668 36.3752 60.945 36.1402 60.7964C36.1402 60.7964 36.1356 60.7964 36.1313 60.7919C36.149 60.9947 36.1801 61.1794 36.2244 61.3461C36.2555 61.4587 36.2909 61.5625 36.3352 61.6616C36.4727 61.7111 36.6234 61.7427 36.792 61.7427C37.2221 61.7427 37.5368 61.5398 37.8161 61.3641C38.0555 61.211 38.2595 61.0803 38.5167 61.0803C38.7738 61.0803 38.9778 61.211 39.2172 61.3641C39.4921 61.5443 39.8069 61.7427 40.237 61.7427C40.667 61.7427 40.9818 61.5398 41.2611 61.3641C41.5007 61.211 41.7046 61.0803 41.9618 61.0803C42.219 61.0803 42.4229 61.211 42.6623 61.3641C42.9373 61.5443 43.252 61.7427 43.6821 61.7427C44.1122 61.7427 44.4269 61.5398 44.7063 61.3641C44.9456 61.211 45.1496 61.0803 45.4068 61.0803C45.6639 61.0803 45.8679 61.211 46.1074 61.3641C46.3822 61.5443 46.697 61.7427 47.1272 61.7427C47.5573 61.7427 47.8721 61.5398 48.1514 61.3641C48.3908 61.211 48.5947 61.0803 48.8519 61.0803C49.1091 61.0803 49.313 61.211 49.5524 61.3641C49.8274 61.5443 50.1421 61.7427 50.5722 61.7427C51.0023 61.7427 51.317 61.5398 51.5965 61.3641C51.8359 61.211 52.0399 61.0803 52.297 61.0803C52.5542 61.0803 52.7582 61.211 52.9976 61.3641C53.2724 61.5443 53.5873 61.7427 54.0173 61.7427C54.4474 61.7427 54.7622 61.5398 55.0415 61.3641C55.2809 61.211 55.4849 61.0803 55.742 61.0803C55.9992 61.0803 56.2032 61.211 56.4427 61.3641C56.7175 61.5443 57.0323 61.7427 57.4623 61.7427C57.8926 61.7427 58.2073 61.5398 58.4866 61.3641C58.726 61.211 58.93 61.0803 59.1872 61.0803C59.4443 61.0803 59.6483 61.211 59.8877 61.3641C60.1626 61.5443 60.4774 61.7427 60.9075 61.7427C60.9607 61.7427 61.0139 61.7427 61.0671 61.7337C61.1203 61.612 61.1692 61.4859 61.209 61.3461C61.24 61.2245 61.2667 61.0983 61.2843 60.9632C61.1603 61.0261 61.0449 61.0668 60.9075 61.0668C60.677 61.0668 60.4907 60.945 60.2556 60.7964H60.2247ZM24.887 28.8436C25.8581 29.3033 26.4211 29.4564 27.1927 30.263C27.8977 31.0019 28.9041 31.2003 29.6578 30.4793C30.4117 29.7583 30.6333 29.5465 30.6333 29.5465C30.6333 29.5465 31.3073 29.7718 31.9413 29.4835C32.2428 30.0648 32.3314 31.9167 29.2101 31.3264C30.3983 32.4169 33.2271 32.097 32.5753 28.848C32.8458 28.5462 32.8058 27.8883 32.7439 27.1674C32.6374 25.9687 32.9344 25.7389 32.93 25.0946C32.9168 24.4411 32.7793 24.0175 32.1142 23.3281C31.4491 22.6387 30.9747 22.4133 30.6954 22.3908C30.6156 22.3908 30.4604 22.4855 30.4604 22.4855C30.4604 22.4855 31.5777 23.0306 31.9369 23.7247C32.3049 24.4141 32.1009 25.4054 31.9812 26.0182C31.857 26.6357 32.0078 27.1584 32.1941 27.5503C32.3892 27.9469 32.5842 28.4381 32.1807 28.8752C31.7817 29.3168 30.7708 29.0419 30.7708 29.0419C30.7708 29.0419 30.4914 28.6318 30.6732 28.1226C30.8594 27.6269 31.1698 27.3926 31.1565 27.1087C31.1387 26.8294 30.8196 26.6402 30.4914 26.2977C30.1589 25.9597 29.8574 25.2477 30.017 24.9142C30.1721 24.5717 30.4028 24.3059 30.7974 24.1753C31.1876 24.0445 31.294 23.8373 31.1255 23.549C30.9569 23.247 30.5047 23.2785 30.1988 23.5715C29.9017 23.8643 29.4362 24.5178 29.5913 25.2973C29.7555 26.0768 30.2342 26.6357 30.5047 26.9781C30.784 27.3115 30.4204 27.7622 29.7953 27.9018C29.1701 28.055 28.7844 28.0009 28.709 27.9153C28.6382 27.8296 28.6514 27.2845 28.5494 26.6672C28.4429 26.0499 27.5208 25.4144 26.767 25.4324C26.0132 25.4415 25.5566 25.6173 25.7206 26.167C26.1507 26.8744 27.0065 26.0364 27.0065 26.0364C27.0065 26.0364 27.7381 26.4193 27.9952 27.0186C28.2435 27.6269 28.1592 28.2442 28.5228 28.3478C28.8775 28.4471 29.711 28.1766 29.9239 28.4606C30.1545 28.7444 30.2254 29.1725 30.2254 29.1725C30.2254 29.1725 29.0593 30.9208 27.8843 30.2451C27.401 29.9656 26.7582 29.3213 26.0265 28.8436C25.2994 28.375 24.4704 28.2262 24.4704 26.96C24.4704 25.6939 24.5412 25.3514 24.7141 24.5582C24.8915 23.7652 24.8915 22.8955 25.9113 22.7648C26.9399 22.6342 27.9731 22.8144 28.146 22.7378C28.3189 22.6612 28.3189 20.8722 30.0259 21.7059C28.5761 20.363 27.9464 22.2962 27.8888 22.3187C27.8311 22.3367 25.9379 21.9852 25.3305 22.3187C24.723 22.6522 24.5545 23.0081 24.1289 25.0719C23.7254 27.0231 23.9117 28.3885 24.8783 28.8436H24.887ZM32.3182 34.0841C32.8147 35.2963 33.0719 36.2245 33.0719 36.2245C31.9148 34.7286 30.784 34.4221 30.2653 33.8003C30.1634 34.8412 30.3318 35.5668 30.3318 35.5668C30.3318 35.5668 29.108 34.8818 28.4429 33.2641C28.3943 34.3591 28.8908 36.1524 31.5601 36.8059C30.8904 35.8911 30.8639 35.1432 30.8639 35.1432C30.8639 35.1432 32.2738 36.0218 33.8256 38.0225C33.9144 36.1254 33.5995 35.0486 32.3182 34.0886V34.0841ZM60.2202 58.1468C59.9498 57.9711 59.6083 57.7547 59.1517 57.7547C58.695 57.7547 58.3535 57.9711 58.0831 58.1468C57.8481 58.3001 57.6619 58.4172 57.4314 58.4172C57.2008 58.4172 57.0146 58.2956 56.7796 58.1468C56.5092 57.9711 56.1677 57.7547 55.711 57.7547C55.2544 57.7547 54.9129 57.9711 54.6425 58.1513C54.4075 58.3046 54.2213 58.4217 53.9907 58.4217C53.7602 58.4217 53.574 58.3001 53.339 58.1513C53.0684 57.9756 52.7271 57.7592 52.2704 57.7592C51.8138 57.7592 51.4723 57.9756 51.2019 58.1513C50.9669 58.3046 50.7807 58.4217 50.5501 58.4217C50.3196 58.4217 50.1332 58.3001 49.8982 58.1513C49.6278 57.9756 49.2864 57.7592 48.8297 57.7592C48.373 57.7592 48.0317 57.9756 47.7613 58.1513C47.5263 58.3046 47.3399 58.4217 47.1094 58.4217C46.8788 58.4217 46.6926 58.3001 46.4576 58.1513C46.1872 57.9756 45.8457 57.7592 45.3891 57.7592C44.9324 57.7592 44.5909 57.9756 44.3205 58.1513C44.0855 58.3046 43.8993 58.4217 43.6688 58.4217C43.4382 58.4217 43.252 58.3001 43.017 58.1513C42.7466 57.9756 42.4051 57.7592 41.9484 57.7592C41.4918 57.7592 41.1503 57.9756 40.8799 58.1513C40.6449 58.3046 40.4587 58.4217 40.2281 58.4217C39.9976 58.4217 39.8114 58.3001 39.5764 58.1513C39.306 57.9756 38.9645 57.7592 38.5078 57.7592C38.0512 57.7592 37.7097 57.9756 37.4393 58.1513C37.2043 58.3046 37.0181 58.4217 36.7875 58.4217C36.557 58.4217 36.3706 58.3001 36.1356 58.1513C36.1269 58.1468 36.118 58.1378 36.1091 58.1333V58.9264C36.3042 59.0255 36.5214 59.1021 36.7875 59.1021C37.2175 59.1021 37.5323 58.8994 37.8116 58.7237C38.0512 58.5704 38.2551 58.4397 38.5123 58.4397C38.7695 58.4397 38.9734 58.5704 39.2128 58.7237C39.4876 58.9039 39.8025 59.1021 40.2326 59.1021C40.6627 59.1021 40.9774 58.8994 41.2568 58.7237C41.4961 58.5704 41.7001 58.4397 41.9573 58.4397C42.2144 58.4397 42.4184 58.5704 42.6578 58.7237C42.9327 58.9039 43.2475 59.1021 43.6776 59.1021C44.1076 59.1021 44.4226 58.8994 44.7019 58.7237C44.9413 58.5704 45.1452 58.4397 45.4024 58.4397C45.6596 58.4397 45.8635 58.5704 46.1029 58.7237C46.3779 58.9039 46.6926 59.1021 47.1227 59.1021C47.5528 59.1021 47.8675 58.8994 48.1469 58.7237C48.3864 58.5704 48.5904 58.4397 48.8475 58.4397C49.1047 58.4397 49.3087 58.5704 49.548 58.7237C49.8229 58.9039 50.1378 59.1021 50.5678 59.1021C50.9979 59.1021 51.3127 58.8994 51.592 58.7237C51.8314 58.5704 52.0353 58.4397 52.2925 58.4397C52.5497 58.4397 52.7537 58.5704 52.993 58.7237C53.268 58.9039 53.5827 59.1021 54.0128 59.1021C54.4429 59.1021 54.7578 58.8994 55.0371 58.7237C55.2765 58.5704 55.4805 58.4397 55.7377 58.4397C55.9948 58.4397 56.1988 58.5704 56.4382 58.7237C56.7131 58.9039 57.0279 59.1021 57.458 59.1021C57.888 59.1021 58.2028 58.8994 58.4821 58.7237C58.7217 58.5704 58.9256 58.4397 59.1828 58.4397C59.44 58.4397 59.6439 58.5704 59.8833 58.7237C60.1581 58.9039 60.473 59.1021 60.9031 59.1021C61.0538 59.1021 61.1913 59.0751 61.3154 59.039V58.3001C61.1779 58.3767 61.0493 58.4262 60.9031 58.4262C60.6725 58.4262 60.4863 58.3046 60.2513 58.1558L60.2202 58.1468ZM59.1517 61.7427C58.695 61.7427 58.3535 61.9589 58.0831 62.1347C57.8481 62.2879 57.6619 62.4052 57.4314 62.4052C57.2008 62.4052 57.0146 62.2834 56.7796 62.1347C56.5092 61.9589 56.1677 61.7427 55.711 61.7427C55.2544 61.7427 54.9129 61.9589 54.6425 62.1347C54.4075 62.2879 54.2213 62.4052 53.9907 62.4052C53.7602 62.4052 53.574 62.2834 53.339 62.1347C53.0684 61.9589 52.7271 61.7427 52.2704 61.7427C51.8138 61.7427 51.4723 61.9589 51.2019 62.1347C50.9669 62.2879 50.7807 62.4052 50.5501 62.4052C50.3196 62.4052 50.1332 62.2834 49.8982 62.1347C49.6278 61.9589 49.2864 61.7427 48.8297 61.7427C48.373 61.7427 48.0317 61.9589 47.7613 62.1347C47.5263 62.2879 47.3399 62.4052 47.1094 62.4052C46.8788 62.4052 46.6926 62.2834 46.4576 62.1347C46.1872 61.9589 45.8457 61.7427 45.3891 61.7427C44.9324 61.7427 44.5909 61.9589 44.3205 62.1347C44.0855 62.2879 43.8993 62.4052 43.6688 62.4052C43.4382 62.4052 43.252 62.2834 43.017 62.1347C42.7466 61.9589 42.4051 61.7427 41.9484 61.7427C41.4918 61.7427 41.1503 61.9589 40.8799 62.1347C40.6449 62.2879 40.4587 62.4052 40.2281 62.4052C39.9976 62.4052 39.8114 62.2834 39.5764 62.1347C39.306 61.9589 38.9645 61.7427 38.5078 61.7427C38.0512 61.7427 37.7097 61.9589 37.4393 62.1347C37.2132 62.2789 37.0357 62.3915 36.8185 62.4052C37.0357 62.6169 37.2885 62.7611 37.5501 62.8647C37.6387 62.8151 37.7275 62.7611 37.8072 62.707C38.0466 62.5537 38.2506 62.4231 38.5078 62.4231C38.7649 62.4231 38.9689 62.5537 39.2083 62.707C39.4654 62.8737 39.7537 63.0539 40.1394 63.0809H40.3169C40.7025 63.0539 40.9907 62.8737 41.2479 62.707C41.4874 62.5537 41.6914 62.4231 41.9484 62.4231C42.2055 62.4231 42.4095 62.5537 42.649 62.707C42.9062 62.8737 43.1943 63.0539 43.58 63.0809H43.7575C44.1432 63.0539 44.4314 62.8737 44.6886 62.707C44.928 62.5537 45.132 62.4231 45.3891 62.4231C45.6463 62.4231 45.8503 62.5537 46.0896 62.707C46.3468 62.8737 46.635 63.0539 47.0208 63.0809H47.1981C47.5838 63.0539 47.8721 62.8737 48.1292 62.707C48.3686 62.5537 48.5726 62.4231 48.8297 62.4231C49.0869 62.4231 49.2909 62.5537 49.5303 62.707C49.7874 62.8737 50.0757 63.0539 50.4614 63.0809H50.6387C51.0244 63.0539 51.3127 62.8737 51.5698 62.707C51.8092 62.5537 52.0132 62.4231 52.2704 62.4231C52.5275 62.4231 52.7315 62.5537 52.9709 62.707C53.228 62.8737 53.5163 63.0539 53.902 63.0809H54.0795C54.4651 63.0539 54.7533 62.8737 55.0105 62.707C55.25 62.5537 55.454 62.4231 55.711 62.4231C55.9681 62.4231 56.1721 62.5537 56.4116 62.707C56.6688 62.8737 56.9569 63.0539 57.3426 63.0809H57.5201C57.9058 63.0539 58.1941 62.8737 58.4512 62.707C58.6906 62.5537 58.8946 62.4231 59.1517 62.4231C59.4089 62.4231 59.6129 62.5537 59.8523 62.707C59.8966 62.7385 59.9454 62.7656 59.9941 62.7971C60.2202 62.6935 60.4331 62.5492 60.6192 62.3555C60.4907 62.3059 60.3666 62.2248 60.2202 62.1347C59.9498 61.9589 59.6083 61.7427 59.1517 61.7427ZM79.8444 31.5788C79.8444 33.3226 81.4937 34.8953 83.2362 36.558C85.2492 38.4777 87.3286 40.4604 87.3286 43.0424C87.3286 44.25 86.7921 45.3044 85.7768 46.0839C85.2093 46.521 84.6463 46.7598 84.3891 46.8545C84.3891 47.5755 84.3137 48.2288 84.2383 48.8236C84.1408 49.6122 84.0609 50.2926 84.2162 50.8335C84.3846 51.4236 85.196 52.1807 85.8522 52.7845C86.2291 53.1359 86.5573 53.4424 86.7213 53.6768C87.0714 54.1815 86.8985 55.2629 86.7124 56.4075C86.6414 56.8581 86.5705 57.2862 86.5484 57.6286C86.5262 57.9756 86.5262 58.3812 86.5217 58.8183C86.5217 59.8275 86.5217 60.8686 86.2291 61.4634C85.8344 62.2654 84.5709 63.2928 83.5555 63.6578C83.4536 63.7029 83.3471 63.7434 83.2318 63.7795C83.1919 63.793 83.1521 63.8065 83.1121 63.82C83.0854 63.8335 83.0545 63.847 83.0278 63.8605C83.0278 63.8605 83.0278 63.856 83.0278 63.8515V63.8605C82.9879 63.8786 82.9481 63.8921 82.9082 63.9056C82.8328 63.9326 82.7529 63.9642 82.6775 63.9867C82.6775 63.9867 82.6775 63.9777 82.6775 63.9687V63.9867C82.5756 64.0182 82.4692 64.0409 82.3673 64.0633C82.3539 64.0633 82.3362 64.0678 82.3228 64.0723C82.0435 64.14 81.7465 64.167 81.3785 64.1355C81.2898 64.131 81.2055 64.122 81.1168 64.1128C81.0326 64.1038 80.9528 64.0903 80.8686 64.0768C80.8642 64.0768 80.8597 64.0768 80.8508 64.0768C80.7311 64.0543 80.6114 64.0227 80.4917 63.9912C80.4917 63.9912 80.4917 63.9912 80.4917 63.9822V63.9912C80.4429 63.9777 80.3985 63.9597 80.3542 63.9461C80.3277 63.9371 80.301 63.9326 80.2745 63.9236C79.268 63.6398 78.9133 63.3018 78.789 62.9413C78.5585 62.36 78.7803 61.549 79.1394 61.1614C79.6848 60.5711 82.7042 60.2782 83.2185 59.0435C83.7373 57.8044 83.2185 55.8577 83.2185 55.8577C83.2185 55.8577 82.7042 55.5648 80.3232 54.3301C78.7669 53.519 77.7605 52.2303 77.1708 50.7207C76.7629 50.8874 75.9381 51.257 75.1755 51.8247C74.107 52.6177 73.6149 53.7714 73.5882 54.6501C73.5573 55.5377 73.8453 56.1235 73.5573 57.1554C73.2734 58.1918 72.1118 58.5073 71.3314 59.3904C70.6752 60.1295 69.549 61.5263 69.4293 61.6886C69.3096 61.8508 69.1412 62.0625 68.8573 62.3014C68.6579 62.4681 65.532 62.9728 63.9801 62.7205C63.3328 62.6169 63.8161 61.621 64.3083 60.8099C65.3679 59.0616 68.0637 58.3046 69.4559 56.5696C70.8348 54.8303 69.5091 53.0685 69.5091 50.9461C69.5091 48.8236 71.3359 47.3953 71.3359 47.3953C69.9303 46.2057 68.25 46.0254 66.4587 44.4888C64.0555 46.4354 64.3926 49.1751 64.0422 50.5856C63.8426 51.4056 63.2485 52.0636 62.4505 52.4105C62.4327 52.4195 62.4105 52.424 62.3928 52.433V55.1593H62.4017V60.2241C62.4017 60.6162 62.3706 60.9587 62.3219 61.2785C62.1844 62.1888 61.8608 62.8196 61.444 63.2477C61.3421 63.3514 61.2356 63.4505 61.1203 63.5317C60.3621 64.0903 59.4044 64.1759 58.6329 64.1759H38.756C38.0023 64.1759 37.0713 64.0948 36.3263 63.5676C36.1623 63.4505 36.007 63.3063 35.8608 63.1441C35.484 62.7115 35.2001 62.1032 35.076 61.2425C35.0317 60.9315 35.0007 60.5981 35.0007 60.2196V55.1547V52.451C34.9829 52.442 34.9651 52.4375 34.9518 52.433C34.1538 52.0861 33.5552 51.4283 33.3601 50.6081C33.0098 49.1977 33.2137 48.3369 32.6374 47.3142C32.2871 46.5571 31.6797 46.0299 31.1298 45.6785C30.784 45.9983 30.0968 46.485 28.8243 46.9311C26.6473 47.7016 26.3281 47.7286 26.3281 47.7286C26.3281 47.7286 27.8932 48.8416 27.8932 50.9685C27.8932 53.0955 26.5675 54.8483 27.9464 56.5922C29.3387 58.327 32.0388 59.0841 33.094 60.8324C33.5862 61.6481 34.0695 62.6394 33.4222 62.743C31.8703 62.9953 28.749 62.4861 28.545 62.324C28.2611 62.0852 28.0928 61.8733 27.9731 61.7111C27.8534 61.549 26.7272 60.1565 26.071 59.4131C25.2906 58.5298 24.1289 58.2099 23.8451 57.1781C23.557 56.1462 23.8451 55.5603 23.8142 54.6725C23.7875 53.7939 23.2953 52.6404 22.2268 51.8472C21.4642 51.2795 20.6395 50.9101 20.2315 50.7433C19.6418 52.2483 18.6354 53.5415 17.0792 54.3527C14.6981 55.5873 14.1838 55.8802 14.1838 55.8802C14.1838 55.8802 13.6651 57.8268 14.1838 59.0661C14.6981 60.3007 17.7132 60.5936 18.263 61.1839C18.622 61.5715 18.8438 62.3825 18.6131 62.9638C18.4891 63.3243 18.1344 63.6623 17.1278 63.9461C17.1013 63.9552 17.0746 63.9597 17.0481 63.9687C17.0038 63.9822 16.9549 64.0002 16.9106 64.0137C16.7909 64.0499 16.6756 64.0768 16.5515 64.0993C16.547 64.0993 16.5427 64.0993 16.5338 64.0993C16.454 64.1128 16.3697 64.1265 16.2855 64.1355C16.1968 64.1445 16.1126 64.1535 16.0238 64.158C15.6558 64.1894 15.3588 64.158 15.0795 64.0948C15.0661 64.0948 15.0484 64.0948 15.0351 64.0858C14.9331 64.0633 14.8267 64.0409 14.7247 64.0092C14.6449 63.9867 14.5696 63.9597 14.4942 63.9281C14.4543 63.9146 14.4144 63.9011 14.3745 63.8831C14.3434 63.8696 14.3168 63.856 14.2902 63.8425C14.2503 63.829 14.2104 63.8155 14.1705 63.802C14.0597 63.7659 13.9532 63.7209 13.8468 63.6802C12.8315 63.3153 11.5679 62.2879 11.1732 61.4859C10.8806 60.891 10.8806 59.8457 10.8806 58.8407C10.8806 58.4082 10.8806 57.9981 10.854 57.6556C10.8318 57.3176 10.7609 56.8896 10.69 56.4345C10.5037 55.29 10.3308 54.2085 10.6811 53.7038C10.8451 53.4694 11.1732 53.1631 11.5501 52.8116C12.2019 52.2033 13.0177 51.4508 13.1862 50.8604C13.3414 50.3198 13.2571 49.6348 13.164 48.8461C13.0931 48.2515 13.0133 47.598 13.0133 46.877C12.7561 46.7823 12.1886 46.5436 11.6255 46.1066C10.6102 45.3224 10.0737 44.2725 10.0737 43.0649C10.0737 40.4829 12.1531 38.5002 14.1661 36.5805C15.913 34.9133 17.5579 33.3407 17.5579 31.6013C17.5579 30.637 17.2786 29.9972 16.7555 29.7583C16.6091 29.6907 16.4406 29.6547 16.2677 29.6547C16.0637 29.6817 15.7889 29.7718 15.5228 30.0332C15.1637 30.3846 14.7824 31.5518 14.5917 32.4484C14.4188 33.2551 13.5498 35.6524 9.9362 33.9039C13.7449 34.3816 11.9403 29.3348 15.9795 29.1995C16.3209 29.1545 16.6578 29.1905 16.946 29.3258C17.4382 29.5511 18.0236 30.1323 18.0236 31.6013C18.0236 33.548 16.3031 35.1882 14.4809 36.9275C12.5433 38.7795 10.5392 40.6901 10.5392 43.0649C10.5392 44.1282 10.9959 45.0205 11.896 45.719C12.326 46.0524 12.7606 46.2597 13.031 46.3724C13.0399 46.1967 13.0532 46.0118 13.0754 45.8271C13.0931 45.6693 13.1241 45.5162 13.1596 45.3675C12.0955 45.0745 11.5058 44.295 11.4969 43.1325C11.4792 40.8433 13.2039 39.1851 14.8711 37.5809C16.6135 35.9092 18.4137 34.1743 18.4137 31.6779C18.4137 30.1008 17.8505 29.1049 16.7909 28.7941C15.6958 28.4741 14.2503 28.9743 13.5542 29.6682C13.5453 29.6772 13.532 29.6907 13.5232 29.6997C13.4877 29.7359 13.4567 29.7673 13.4301 29.8033C13.4168 29.817 13.4079 29.8305 13.3946 29.844C13.3591 29.8889 13.3236 29.9386 13.2971 29.9837C12.4325 31.2273 12.2418 33.6426 10.4461 33.219C12.1842 32.1961 11.0624 31.4977 13.1729 29.3844C13.1951 29.3572 13.2217 29.3348 13.2483 29.3078C13.2616 29.2943 13.2749 29.2806 13.2926 29.2626C14.1217 28.4876 15.6603 27.9604 16.9239 28.3299C18.6309 28.8301 18.8837 30.637 18.8837 31.6734C18.8837 34.3771 17.0082 36.1796 15.1947 37.9234C13.5276 39.5276 11.9492 41.0416 11.9669 43.1235C11.9758 44.0743 12.4236 44.6736 13.2971 44.9079C13.8114 43.5289 15.0706 42.6954 16.6002 41.6905C16.9638 41.4516 17.3363 41.2038 17.7265 40.9379C19.5 39.7123 20.3823 38.0045 20.7016 37.2654C20.1872 34.9538 20.4001 32.8585 21.247 31.1732C22.0228 29.6276 21.3045 27.5683 21.974 25.9597C21.6327 25.9957 20.9232 25.9326 20.8213 24.8286C20.6927 23.3778 22.2668 23.238 22.8476 23.0803C23.016 22.891 23.3618 22.5936 23.8318 22.2602L23.3131 21.2688C22.8031 20.5704 22.0583 20.9084 21.5307 19.9711C20.7769 18.6282 22.2977 17.9298 22.9362 17.6999C23.3309 17.3035 23.9293 17.0105 24.3018 16.8528C24.0935 16.7537 23.9293 16.5554 23.8939 16.2941C23.8496 16.0058 23.9871 15.7083 24.2353 15.5595C24.6387 15.3208 25.1354 15.519 25.2817 15.9426C25.3481 16.1364 25.3305 16.3391 25.2462 16.5103C25.6364 16.3932 26.2793 16.24 26.8336 16.2941C27.472 16.0597 29.0859 15.6361 29.3254 17.1592C29.4938 18.2226 28.7046 18.439 28.7401 19.3042L28.8775 20.0522C29.1923 20.0161 29.5027 20.0071 29.7998 20.0297C30.0392 20.0477 30.2342 20.0927 30.6022 20.2279C30.9569 20.3585 31.4402 19.9981 31.8748 19.8134C32.3093 19.6331 32.571 19.6106 32.7749 20.6109C32.9832 21.6158 32.2782 22.3187 32.2782 22.3187L32.9257 23.1794C33.5773 24.0445 34.81 24.743 35.2489 26.158C35.5326 27.0728 35.8254 28.2262 35.8563 29.2132H36.5702C36.4416 29.0689 36.3706 28.9022 36.3706 28.722V28.429V27.8341C36.3706 26.8384 37.1643 26.0272 38.1398 26.0272H39.2527C40.2281 26.0272 41.0217 26.8384 41.0217 27.8341V28.4245V28.722C41.0217 28.9022 40.9509 29.0689 40.8223 29.2132H56.58C56.4514 29.0689 56.3806 28.9022 56.3806 28.722V28.429V27.8341C56.3806 26.8384 57.1743 26.0272 58.1496 26.0272H59.2625C60.238 26.0272 61.0317 26.8384 61.0317 27.8341V28.4245V28.722C61.0317 28.9022 60.9607 29.0689 60.8321 29.2132H62.3884V32.9351C62.9514 33.0884 64.5566 33.2235 65.5231 33.0298C66.0419 31.8943 66.5651 31.0246 66.5651 31.0246C66.5651 31.0246 64.7782 30.8307 65.0442 28.6813C64.787 28.393 64.827 27.7757 64.8846 27.0907C64.9866 25.9597 64.7028 25.7389 64.7073 25.1351C64.7206 24.5944 64.8181 24.2203 65.266 23.6976C65.3413 23.4452 65.4832 23.0036 65.696 22.5891C65.8601 22.2602 66.1793 21.9131 66.4498 21.6518V21.6473C66.4498 21.6473 66.0773 20.8318 66.5651 20.0522C67.0484 19.2772 67.2612 19.3853 67.5715 19.6736C67.811 19.899 68.1833 20.2279 68.4672 20.3675L68.6666 19.2907C68.7022 18.421 67.9129 18.2046 68.0814 17.1458C68.3254 15.6227 69.9347 16.0462 70.5733 16.2806C71.1274 16.2265 71.7703 16.3797 72.1606 16.4968C72.0763 16.3256 72.0586 16.1229 72.125 15.9291C72.2714 15.501 72.768 15.3027 73.1715 15.546C73.4198 15.6948 73.5573 15.9876 73.5128 16.2806C73.473 16.5419 73.3088 16.7402 73.1049 16.8393C73.4774 16.997 74.076 17.29 74.4706 17.6864C75.1134 17.9118 76.6299 18.6147 75.876 19.9576C75.353 20.8904 74.6036 20.5569 74.0936 21.2553L73.8542 21.7149C74.4928 21.823 76.1156 22.1791 75.9427 23.4092C75.8184 24.3059 74.9051 24.1618 74.4529 24.4771C74.3775 25.9236 74.1514 26.3923 73.8942 27.1087C73.6237 27.8613 72.9009 28.4921 72.4886 29.0058C72.0896 29.506 71.9964 29.9837 71.9256 30.4568C71.7792 31.6239 73.003 32.6332 73.801 33.3497C75.4149 34.8007 76.1332 36.896 76.8737 38.2523C77.4723 39.086 78.3635 40.0953 79.6759 40.9244C79.8842 41.0552 80.0882 41.1813 80.2878 41.3075C82.1544 42.47 83.5776 43.3623 84.123 44.8988C84.9964 44.6646 85.4399 44.0698 85.4487 43.119C85.4665 41.0371 83.8925 39.5231 82.2209 37.9189C80.4074 36.1751 78.532 34.3726 78.532 31.6689C78.532 30.637 78.7847 28.8256 80.4917 28.3254C81.7554 27.9559 83.2894 28.4831 84.1186 29.2581C84.1363 29.2716 84.1495 29.2851 84.1673 29.3033C84.194 29.3303 84.2205 29.3528 84.2427 29.3797C86.3577 31.4932 85.236 32.1916 86.9739 33.2145C85.1739 33.6381 84.9875 31.2228 84.123 29.9791C84.092 29.9341 84.0565 29.8889 84.021 29.8395C84.0077 29.826 83.9988 29.8125 83.9855 29.7988C83.9545 29.7628 83.9234 29.7269 83.8925 29.6952C83.8836 29.6862 83.8702 29.6727 83.8615 29.6637C83.1608 28.9698 81.7198 28.4651 80.6247 28.7896C79.5606 29.1004 79.0019 30.1008 79.0019 31.6734C79.0019 34.1743 80.8021 35.9047 82.5446 37.5764C84.2117 39.1806 85.9365 40.8388 85.9187 43.128C85.9098 44.286 85.3201 45.0655 84.2605 45.3585C84.2959 45.5072 84.3226 45.6558 84.3402 45.8181C84.3624 46.0028 84.3758 46.183 84.3846 46.3633C84.6506 46.2551 85.0896 46.0434 85.5197 45.71C86.4198 45.0115 86.8764 44.1192 86.8764 43.0559C86.8764 40.6811 84.8724 38.7705 82.9347 36.9185C81.1125 35.1792 79.3922 33.539 79.3922 31.5923C79.3922 30.1188 79.9774 29.542 80.4696 29.3168C80.7578 29.1815 81.0947 29.1455 81.4405 29.1905C85.4797 29.3258 83.6751 34.3681 87.4839 33.8949C83.8702 35.6434 83.0013 33.2461 82.8283 32.4394C82.6377 31.5428 82.2563 30.3756 81.8973 30.0242C81.6312 29.7628 81.3562 29.6727 81.1523 29.6457C80.9794 29.6457 80.811 29.6817 80.6646 29.7493C80.1414 29.9927 79.862 30.628 79.862 31.5923L79.8444 31.5788ZM73.2247 20.3316C73.269 20.3585 73.3134 20.3902 73.3533 20.4172C73.4906 20.5118 73.6459 20.6199 73.7346 20.7055C73.9429 20.71 74.2 20.5659 74.4706 20.4487C74.8297 20.2369 75.1712 20.0927 75.3308 19.597C75.5348 18.9572 75.1356 18.5021 74.8253 18.2588C74.8519 18.3534 74.8651 18.448 74.8608 18.5471C74.8032 19.6376 73.7345 19.6781 73.2247 20.3316ZM71.8989 19.6691C72.2581 19.8089 72.5907 19.9666 72.8877 20.1288C72.9852 19.9441 73.2734 19.4349 73.5971 19.1104C74.0493 18.6644 74.3199 18.3264 73.6103 17.7316C73.2734 17.4476 73.0695 17.2764 72.7812 17.0916C72.7901 17.4161 72.7812 17.8847 72.6793 18.2543C72.5685 18.6507 72.1739 19.2682 71.8989 19.6646V19.6691ZM70.3471 17.9433C70.3958 18.3534 70.356 18.9167 70.3294 19.2005C70.6397 19.2592 70.9723 19.3493 71.3137 19.4574C71.3359 19.0383 71.4024 18.4165 71.5931 17.8622C71.7171 17.5017 72.0053 17.1323 72.2182 16.8889C71.8857 16.8483 71.6196 16.8528 71.1895 16.8574C70.2673 16.8709 70.2761 17.3035 70.3471 17.9388V17.9433ZM68.8441 18.4255C68.9815 18.6913 69.0923 18.9662 69.2609 19.0969C69.3849 19.0879 69.5713 19.1059 69.7353 19.1194C69.8018 19.1239 69.8682 19.1329 69.9392 19.1419C69.8771 18.3444 69.1189 17.5513 69.7175 16.7042C69.7752 16.6231 69.8417 16.5554 69.9214 16.5013C69.5268 16.4923 68.9372 16.5914 68.7022 17.2179C68.5204 17.6999 68.7022 18.0334 68.8484 18.43L68.8441 18.4255ZM67.4385 20.9084C67.5182 20.8857 67.8553 20.6019 68.2366 20.5433C67.8464 20.3226 67.505 20.0477 67.3277 19.7097C67.2346 20.1873 66.8045 20.7326 67.4341 20.9084H67.4385ZM66.7291 28.8752C66.7291 28.8752 66.9952 28.4876 66.8223 28.0054C66.6448 27.5368 66.3522 27.316 66.3655 27.0456C66.3833 26.7798 66.6848 26.604 66.9952 26.2796C67.3099 25.9597 67.5982 25.2883 67.4429 24.9728C67.2967 24.6484 67.0794 24.4005 66.7069 24.2744C66.339 24.1483 66.2369 23.9544 66.4009 23.6796C66.5606 23.3957 66.9863 23.4272 67.2745 23.7021C67.5538 23.9816 67.9972 24.5989 67.8464 25.3333C67.6913 26.0723 67.2389 26.5995 66.9819 26.9195C66.7158 27.235 67.0617 27.6584 67.6514 27.7937C68.2411 27.9379 68.6091 27.8883 68.6755 27.8072C68.742 27.726 68.7333 27.2123 68.8263 26.6265C68.9238 26.0454 69.8018 25.4415 70.5112 25.4595C71.2249 25.4685 71.655 25.6353 71.4999 26.1535C71.0963 26.8204 70.285 26.0317 70.285 26.0317C70.285 26.0317 69.5934 26.3923 69.3495 26.96C69.1145 27.5368 69.1942 28.1181 68.8484 28.2172C68.5115 28.3119 67.7267 28.055 67.5228 28.3254C67.3056 28.5957 67.2389 28.9968 67.2389 28.9968C67.2389 28.9968 68.3386 30.6505 69.4514 30.0107C69.9082 29.7493 70.5333 28.722 71.2738 28.357C72.0896 27.9559 73.0384 27.4152 73.0384 26.2211C73.0384 26.167 73.0208 25.7344 73.0208 25.5811C72.9676 24.7115 73.2113 24.5223 73.3177 24.378C73.637 23.9499 73.7878 23.8463 73.7745 23.1389C74.3642 22.8686 75.242 22.5756 75.7253 23.3912C76.0489 22.1115 73.912 21.9403 73.4906 21.9808C73.2602 22.0169 73.3798 22.2917 73.2779 22.2872C73.1803 22.2827 73.0162 22.1115 72.8255 21.9448C72.728 21.8591 71.7925 21.2643 71.0344 21.0525C69.9879 20.7641 68.7776 20.7416 68.4894 20.7686C68.2011 20.7956 67.7622 20.9174 67.4961 21.1562C67.27 21.3589 67.0173 21.5753 66.7469 21.7915C66.4763 22.0079 66.1572 22.3459 65.9576 22.7423C65.8822 22.8865 65.8157 23.0398 65.7625 23.1839C66.2369 22.7558 66.5872 22.6026 66.8088 22.5846C66.8842 22.5846 67.0306 22.6747 67.0306 22.6747C67.0306 22.6747 65.9754 23.1884 65.6383 23.8463C65.2925 24.4998 65.4832 25.437 65.594 26.0137C65.7093 26.595 65.5675 27.0907 65.39 27.4647C65.2082 27.8388 65.0221 28.3029 65.4035 28.7175C65.7803 29.132 66.7335 28.8752 66.7335 28.8752H66.7291ZM62.3706 37.7701L64.3259 38.4326C64.3259 38.4326 64.3526 35.8686 65.2217 33.7462C63.8693 33.9039 62.3751 33.6381 62.3751 33.6381V37.7656L62.3706 37.7701ZM64.3083 39.095C63.7894 38.9193 62.3973 38.4686 62.3662 38.4551V42.6458C62.752 42.2087 63.754 41.1633 64.4856 40.3071C64.3437 39.6222 64.3038 39.095 64.3038 39.095H64.3083ZM56.8283 27.8478C56.8283 28.5957 57.1387 28.7085 57.1654 28.5912C57.2407 28.2939 57.3826 28.064 57.5555 27.9784C57.5555 27.9784 57.5068 28.3885 57.5909 28.6363C57.653 28.8211 57.7151 28.9518 58.1363 28.9518C58.46 28.9518 58.5664 28.3975 58.6418 28.019C58.6507 27.9649 58.6861 27.9694 58.695 28.0235C58.7704 28.3975 58.9344 28.9247 59.2447 28.9518C59.5551 28.9788 59.6793 28.8256 59.7415 28.6363C59.8256 28.3885 59.7769 27.9784 59.7769 27.9784C59.9365 28.0595 60.0695 28.2622 60.1494 28.5282C60.2202 28.7579 60.5528 28.5957 60.5528 27.8523C60.5528 27.1087 59.9676 26.5184 59.2447 26.5184H58.1319C57.4136 26.5184 56.8239 27.1087 56.8239 27.8523L56.8283 27.8478ZM36.8229 27.8478C36.8229 28.5957 37.1333 28.7085 37.1599 28.5912C37.2353 28.2939 37.3772 28.064 37.5501 27.9784C37.5501 27.9784 37.5014 28.3885 37.5855 28.6363C37.6476 28.8211 37.7097 28.9518 38.1309 28.9518C38.4545 28.9518 38.561 28.3975 38.6363 28.019C38.6452 27.9649 38.6807 27.9694 38.6896 28.0235C38.7649 28.3975 38.9289 28.9247 39.2393 28.9518C39.5497 28.9788 39.6739 28.8256 39.736 28.6363C39.8201 28.3885 39.7715 27.9784 39.7715 27.9784C39.9311 28.0595 40.0641 28.2622 40.1438 28.5282C40.2148 28.7579 40.5473 28.5957 40.5473 27.8523C40.5473 27.1087 39.9622 26.5184 39.2393 26.5184H38.1265C37.4082 26.5184 36.8185 27.1087 36.8185 27.8523L36.8229 27.8478ZM30.824 20.4532C31.1965 20.6695 31.4402 21.0976 31.5156 21.1517C32.2384 21.2192 32.0034 20.4848 32.0877 19.9486C31.7773 20.2279 31.3116 20.3767 30.824 20.4532ZM27.4409 19.1644C27.5119 19.1554 27.5784 19.1509 27.6449 19.1419C27.8089 19.1284 27.9952 19.1104 28.1193 19.1194C28.2878 18.9887 28.3986 18.7138 28.5361 18.448C28.6868 18.0559 28.8598 17.7226 28.6825 17.2359C28.4475 16.6051 27.8577 16.5058 27.4631 16.5195C27.543 16.5734 27.6095 16.6411 27.6671 16.7222C28.2657 17.5693 27.5074 18.3624 27.4455 19.1599L27.4409 19.1644ZM25.162 16.9204C25.3748 17.1637 25.663 17.5332 25.7871 17.8938C25.9778 18.4435 26.0443 19.0698 26.0664 19.4889C26.4079 19.3808 26.7404 19.2907 27.0508 19.232C27.0241 18.9482 26.9843 18.3849 27.033 17.9749C27.1084 17.3395 27.1129 16.9069 26.1907 16.8934C25.7606 16.8889 25.4989 16.8844 25.162 16.9249V16.9204ZM23.7786 19.1419C24.1022 19.4664 24.3905 19.9756 24.488 20.1603C24.7807 19.9981 25.1176 19.8403 25.4767 19.7008C25.2019 19.2997 24.8073 18.6868 24.6965 18.2903C24.5944 17.9208 24.5855 17.4521 24.5944 17.1278C24.3062 17.3125 24.1022 17.4837 23.7653 17.7676C23.0559 18.3669 23.3263 18.7003 23.7786 19.1464V19.1419ZM24.0225 20.4487C24.0624 20.4217 24.1068 20.3902 24.1511 20.363C23.6456 19.7142 22.5726 19.6691 22.515 18.5787C22.5105 18.4795 22.5238 18.3849 22.5505 18.2903C22.2357 18.5336 21.8367 18.9887 22.045 19.6286C22.2046 20.1198 22.5461 20.2684 22.9052 20.4803C23.1756 20.5974 23.4328 20.7416 23.6411 20.7371C23.7299 20.6515 23.885 20.5479 24.0225 20.4487ZM23.446 23.0171C23.7742 22.9632 24.3505 23.1479 23.5348 24.2339C22.7987 25.2117 22.1869 26.2751 22.3421 27.8838C22.4929 29.497 23.1091 30.281 22.5505 31.8536C21.9918 33.4264 22.8387 35.3459 22.8387 35.3459C22.8387 35.3459 23.211 34.4086 23.4682 33.4985C24.0713 35.9632 25.3837 37.2025 25.3837 37.2025C25.3837 37.2025 25.0466 36.0308 25.7028 33.6201C26.1596 37.2295 30.1411 36.914 32.4335 38.8247C33.4533 39.6718 34.3755 40.8433 34.9829 41.686V29.2356H35.3508C35.2933 28.7941 35.1736 28.0054 34.9429 27.1719C34.6016 25.9416 34.0562 24.698 32.9122 23.4949C31.7728 22.2827 31.7108 22.0754 31.3561 21.3994C31.0014 20.7192 30.3983 20.3857 29.6224 20.3316C28.8465 20.2774 26.3281 20.665 23.4417 23.0216L23.446 23.0171ZM22.9495 24.5447C23.0959 24.36 23.6411 23.7202 23.6057 23.3778C23.353 23.2966 20.7105 23.3506 21.0296 24.8422C21.6504 23.8778 22.7544 24.5312 22.9495 24.5447ZM21.4464 49.8061C25.1531 51.3561 24.3329 55.6188 24.2974 56.2226C24.2221 57.588 25.4059 57.7729 26.3946 58.8001C27.7114 60.1746 28.9219 61.5985 29.0637 61.6481C29.454 61.7156 32.531 62.0807 32.7217 61.9499C31.8394 60.0259 27.6848 58.4442 26.8069 56.6913C26.1774 55.4386 26.164 54.1678 26.306 53.1946C26.4567 52.2258 27.401 46.9176 21.442 49.8061H21.4464ZM30.6467 45.408C30.2342 45.1963 29.9284 45.1062 29.9284 45.1062C24.9934 47.6025 22.8963 46.0524 20.604 49.5537C20.6794 49.5672 20.768 49.5852 20.8612 49.6077C21.1184 49.3508 21.6592 48.8913 22.5505 48.4587C23.885 47.8052 25.2152 47.58 26.9177 47.0708C28.4962 46.6066 29.9505 45.8722 30.6422 45.408H30.6467ZM61.6479 52.6269C61.5237 52.6449 61.3953 52.6584 61.2711 52.6629V57.3988H56.926L56.9082 57.3401L56.8815 57.241L56.8506 57.1239L56.8239 57.0203L56.7929 56.9121L56.7618 56.7995L56.7308 56.6958L56.6997 56.5877L56.6688 56.4795L56.6378 56.3714L56.6067 56.2588L56.5756 56.1507L56.5668 56.1145H51.991L51.9778 56.1507L51.9467 56.2588L51.9113 56.3714L51.8757 56.4795L51.8448 56.5877L51.8092 56.6958L51.7782 56.804L51.7428 56.9167L51.7073 57.0248L51.6763 57.1284L51.6409 57.2455L51.6098 57.3448L51.592 57.4033H46.1561V57.3448L46.1383 57.2455L46.1251 57.1284L46.1118 57.0248L46.0985 56.9167L46.0853 56.804L46.0719 56.7003L46.0586 56.5922L46.0453 56.484L46.0321 56.3759L46.0186 56.2633L46.0054 56.1552L45.9921 56.0424L45.9789 55.9343L45.9654 55.8262L45.9522 55.7181L45.9389 55.6053L45.9256 55.5017L45.9211 55.4476H41.3588V55.5017H41.3543L41.341 55.6053L41.3278 55.7181L41.3143 55.8262L41.3011 55.9343L41.2878 56.0424L41.2745 56.1552L41.2611 56.2633L41.2479 56.3759L41.2346 56.484L41.2213 56.5922L41.2081 56.7003L41.1946 56.8084L41.1814 56.9212L41.1681 57.0293L41.1549 57.1329L41.1414 57.25L41.1282 57.3493C41.1104 57.3132 41.0927 57.2817 41.0706 57.25C41.0484 57.2095 41.0217 57.1689 40.9952 57.1329C40.9685 57.0969 40.9464 57.0608 40.9198 57.0293C40.8888 56.9887 40.8488 56.9527 40.8134 56.9212C40.7735 56.8806 40.7248 56.8446 40.6803 56.8084C40.6271 56.768 40.574 56.7363 40.5163 56.7048C40.4365 56.6599 40.3523 56.6237 40.268 56.5967C40.1438 56.5561 40.0065 56.5381 39.869 56.5381C39.7315 56.5381 39.5986 56.5606 39.47 56.5967C39.3813 56.6237 39.2971 56.6599 39.2128 56.7048C39.1551 56.7363 39.102 56.7725 39.0488 56.8084C38.9999 56.8446 38.9556 56.8806 38.9157 56.9212C38.8803 56.9572 38.8448 56.9932 38.8138 57.0293C38.7871 57.0608 38.7606 57.0969 38.7384 57.1329C38.7117 57.1689 38.6852 57.2095 38.663 57.25C38.6452 57.2817 38.6274 57.3176 38.6142 57.3493C38.6053 57.3673 38.592 57.3898 38.5831 57.4078H36.0737V57.0293V56.7003V56.484V55.5062V55.1772V55.0736V54.5329V54.4247V54.3166V53.1269V53.0188V52.9107V52.7034C35.9451 52.6989 35.8209 52.6854 35.6968 52.6674V56.1776V60.4495C35.6968 62.4771 36.9515 63.4685 38.7695 63.4685H58.5531C60.371 63.4685 61.6258 62.4771 61.6258 60.4495V55.1727V52.6449L61.6479 52.6269ZM42.4672 52.8927L42.4627 53.0008L42.4583 53.109L42.454 53.2171V53.3253L42.4451 53.4334V53.5415L42.4317 53.6541V53.7624L42.4229 53.866L44.9235 53.8705L44.9191 53.7624V53.6541L44.9102 53.5415V53.4334L44.9013 53.3253V53.2171L44.8924 53.109L44.8881 53.0008L44.8837 52.8927L44.8792 52.78V52.6719L44.8703 52.5683V52.4557L44.8615 52.3519V52.2438L44.8526 52.1312L44.8481 52.0229V51.9193L44.8394 51.8067V51.6986L44.8305 51.5859V51.4822L44.8216 51.3741V51.266L44.8127 51.1623L44.8083 51.0542V50.9416H44.8038V50.8379L44.7949 50.7297V50.6216H44.7905L42.6047 50.6171V50.6261V50.7342L42.5913 50.8424V50.9461H42.5869V51.0587H42.5824V51.1669H42.578V51.2705L42.5691 51.3786V51.4867L42.5602 51.5904V51.7031L42.547 51.8112V51.9238L42.5381 52.0276V52.1357H42.5337V52.2483L42.5205 52.3564V52.4602L42.507 52.5728V52.6764L42.4983 52.7845V52.8972L42.4672 52.8927ZM44.8481 50.4279V50.3964V49.7474V49.6122H42.4672V49.7474V50.3964V50.4279H44.8481ZM42.1214 54.1453L42.1125 54.1995L42.0991 54.3031L42.0815 54.4112L42.0637 54.5195L42.0504 54.6276L42.0326 54.7357L42.015 54.8438L41.9972 54.9565L41.9839 55.0646L41.9707 55.1682L41.9618 55.2314H45.3492V55.1682H45.3403L45.327 55.0646L45.3138 54.9565L45.3003 54.8438L45.2871 54.7357L45.2738 54.6276L45.2606 54.5239L45.2473 54.4157L45.2339 54.3076L45.225 54.204V54.1498H42.1036L42.1214 54.1453ZM51.8314 55.3801V55.4927V55.8983H56.7707V55.4927V55.3756H51.8314V55.3801ZM56.4204 55.1413V55.0646V54.5239V54.4157V54.3076V54.1498H52.2171V54.3076V54.4157V54.5239V55.0691V55.1458H56.4204V55.1413ZM75.9205 49.7789C69.9614 46.8906 70.9058 52.2033 71.0565 53.1676C71.1984 54.1408 71.1851 55.4116 70.5555 56.6644C69.6775 58.4127 65.5186 59.9987 64.6408 61.9229C64.8359 62.0535 67.9085 61.6886 68.2987 61.621C68.4405 61.5715 69.6554 60.1475 70.9679 58.7731C71.9521 57.7457 73.1405 57.561 73.0651 56.1956C73.0295 55.5918 72.2093 51.329 75.916 49.7789H75.9205ZM76.7629 49.5311C74.2843 46.503 72.8123 46.5661 67.944 43.466C67.944 43.466 67.607 43.6507 67.1016 43.9976C68.3076 45.1241 73.3177 46.3724 76.5057 49.5852C76.6032 49.5627 76.6875 49.5447 76.7629 49.5311ZM83.7505 50.9685C83.5687 50.3333 83.6575 49.6077 83.7594 48.7652C83.8615 47.918 83.9766 46.9581 83.8481 45.8632C83.6265 43.9525 82.1101 43.0107 80.0173 41.7085C79.8177 41.5824 79.6138 41.4561 79.4054 41.3255C78.5453 40.7847 76.8826 39.1896 76.6964 39.0094C75.6012 37.9369 75.242 35.8236 73.8986 34.4448C73.3755 33.9084 73.0251 33.539 72.5108 32.872C70.9944 31.1372 71.4423 29.7628 71.8502 29.1275C72.0985 28.7444 72.6083 28.2532 72.5462 28.1903C72.5153 28.1586 72.2404 28.429 71.9699 28.5912C71.6817 28.7624 71.4556 28.857 71.0344 29.2626C70.8659 29.4294 70.693 29.5916 70.5201 29.7538C69.855 30.3756 68.5115 31.6779 66.8488 29.3572C66.8488 29.3572 66.2104 29.5691 65.6118 29.2988C65.7803 30.7722 66.871 30.6145 68.0682 30.7226C67.78 30.8352 67.5228 30.966 67.1149 31.0201C66.8134 32.07 64.5122 34.5529 64.9999 39.6672L65.4478 39.0544C65.3989 35.5396 66.4276 33.6606 67.5582 32.0159C67.5849 31.9754 67.6468 32.0159 67.6292 32.061C66.5961 34.2644 66.1305 35.7695 66.3922 37.6305C67.5406 35.4495 68.0858 35.0124 68.7998 34.7962C66.8266 36.522 67.5493 37.7746 64.6053 41.2984C64.3348 41.6229 63.1288 43.0604 62.6988 43.5741C62.5835 43.7093 62.4727 43.8444 62.3617 43.9707C62.0691 44.3086 61.8076 44.6059 61.639 44.7817V44.6601V43.4388V29.9206H35.7101V42.0916V42.3709V43.3577C35.7101 43.3577 35.7056 43.3577 35.7012 43.3577V45.3269C35.7012 45.3269 35.4307 44.8268 34.9785 44.1012C34.8278 43.8579 34.6592 43.592 34.4685 43.3082C33.3912 41.677 31.7684 39.5276 30.2342 38.7346C29.0016 38.0991 27.574 38.036 25.9379 36.229C25.8004 37.0086 26.1907 38.3425 26.1907 38.3425C26.1907 38.3425 24.2264 37.8829 23.4195 35.3774C23.2155 36.1434 23.0603 37.0807 21.5839 37.8874C20.8256 39.0544 19.9035 39.8024 19.1763 40.3296C18.8216 40.6856 18.4181 41.0371 17.9526 41.357C17.5579 41.6274 17.1811 41.8752 16.8175 42.1186C15.0129 43.3037 13.705 44.1644 13.501 45.9037C13.3724 47.0032 13.4877 47.963 13.5897 48.8056C13.6917 49.6438 13.7803 50.3737 13.5985 51.0092C13.3946 51.7301 12.5256 52.5321 11.8295 53.1811C11.4836 53.5011 11.1599 53.8029 11.0269 53.9966C10.8451 54.2581 10.9072 54.9655 11.0092 55.6909C11.2087 55.2945 11.5501 55.0331 11.8295 54.8754C11.9802 54.7898 12.1531 54.952 12.0822 55.1141C11.8339 55.6774 11.4393 56.7228 11.2974 57.9305C11.3063 58.2189 11.3063 58.5298 11.3063 58.8587C11.3063 59.769 11.3063 60.7964 11.5501 61.2921C11.6299 61.4587 11.7629 61.6346 11.9226 61.8193C11.9891 61.8915 12.0644 61.9589 12.1487 62.022C12.4014 62.2203 12.7473 62.3285 13.1108 62.4681C13.2438 62.5088 13.3946 62.5717 13.5542 62.6573C13.5941 62.6755 13.634 62.6935 13.6739 62.716C14.1572 62.9728 14.5075 63.171 14.8666 63.2522C15.1282 63.2973 15.3809 63.2838 15.6115 63.1982C15.6382 63.1892 15.6603 63.1802 15.6825 63.171C16.0238 62.9773 16.1613 62.6124 16.4716 62.6124C16.5116 62.6079 16.5515 62.6079 16.5959 62.6124H16.6048C16.9638 62.6304 17.2697 62.7025 17.425 62.5043C17.4782 62.4366 17.5181 62.3645 17.5447 62.2879C17.5447 62.2699 17.5535 62.2429 17.5579 62.2248C17.6111 61.6661 17.2653 61.6075 16.312 61.283C15.3588 60.9632 13.5099 60.8099 13.3015 59.1652C13.102 57.516 12.867 55.9794 14.4055 54.5419C15.9397 53.1 18.2762 53.3388 19.265 49.4546C20.2759 44.8853 22.5283 44.1779 22.5283 44.1779C22.5283 44.1779 21.1449 45.6378 20.8124 48.0756C22.9584 45.8271 25.7074 46.2192 28.3499 44.4032C25.4901 42.5287 27.676 38.6714 27.676 38.6714C27.676 38.6714 28.3765 41.5869 30.3096 42.7359C31.3116 43.3307 32.2428 44.1464 32.9344 45.1783C33.3202 45.7504 33.6305 46.3859 33.839 47.0888C34.2557 48.5083 34.3002 50.2341 34.9651 51.1128C35.1514 51.3606 35.3908 51.5364 35.6968 51.6265C35.812 51.658 35.9362 51.6805 36.0737 51.6851C36.0824 51.6851 36.0869 51.6851 36.0913 51.6851C36.1712 51.6851 36.2555 51.6851 36.3396 51.6851C36.65 51.676 37.1378 51.6535 37.3018 51.32C37.4082 51.0993 37.3151 50.838 37.2442 50.6216C37.1599 50.3647 37.0846 50.1034 37.0003 49.8465C36.7609 49.1166 36.5038 47.5394 36.486 47.5124H36.6102H36.681H37.1821H41.2967H43.4781V47.5214V47.5935V48.0937L43.416 48.1342L43.2475 48.2423L43.0835 48.3461L42.9106 48.4587L42.742 48.5668L42.5737 48.6749L42.454 48.7515H42.8308V49.396H44.489V48.7515H44.8348L44.7195 48.6749L44.5555 48.5668L44.3915 48.4587L44.223 48.3461L44.0633 48.2423L43.8993 48.1342L43.8239 48.0847V47.5079H49.8318H60.3355H60.4685H60.801C60.7745 47.58 60.3799 49.6348 60.3312 49.8195C60.2602 50.0809 60.1715 50.3377 60.0873 50.5946C60.0163 50.8108 59.9187 51.0722 60.0295 51.293C60.1937 51.6265 60.6814 51.649 60.9917 51.658C61.076 51.658 61.1557 51.658 61.24 51.658C61.2444 51.658 61.2489 51.658 61.2578 51.658C61.3953 51.6535 61.5193 51.631 61.6347 51.5995C61.9405 51.5139 62.1755 51.338 62.3617 51.0993C63.0357 50.2251 63.0756 48.4902 63.4968 47.0663C63.7229 46.2913 64.0776 45.5974 64.5166 44.9844C65.195 44.0336 66.0773 43.2767 67.0217 42.7134C68.9549 41.5644 72.2493 40.2757 72.8123 36.3823C73.0916 39.0364 71.6684 41.1363 69.1588 42.8711C71.0477 44.6556 73.9696 45.2323 76.5811 48.3821C76.284 45.8181 74.8032 44.1554 74.8032 44.1554C74.8032 44.1554 77.06 44.8628 78.0664 49.4319C79.0551 53.3117 81.3918 53.0775 82.9259 54.5195C84.4645 55.9613 84.2294 57.4934 84.0298 59.1426C83.8215 60.7874 81.9726 60.9405 81.0193 61.2605C80.066 61.585 79.7202 61.6436 79.7734 62.2023C79.7734 62.2203 79.7823 62.2474 79.7867 62.2654C79.8134 62.342 79.8533 62.4141 79.9065 62.4816C80.0616 62.68 80.3675 62.6079 80.7267 62.5899H80.7356C80.7799 62.5809 80.8199 62.5809 80.8553 62.5899C81.1701 62.5899 81.303 62.9548 81.649 63.1486C81.6711 63.1575 81.6933 63.1665 81.7198 63.1755C81.9505 63.2658 82.2031 63.2793 82.4648 63.2297C82.8239 63.153 83.1742 62.9548 83.6575 62.6935C83.6973 62.671 83.7373 62.6528 83.7772 62.6349C83.9368 62.5492 84.0876 62.4908 84.2205 62.4456C84.5841 62.3059 84.9299 62.1978 85.1828 61.9996C85.2669 61.9364 85.3422 61.8688 85.4089 61.7967C85.5729 61.612 85.7015 61.4317 85.7857 61.2695C86.0295 60.7739 86.0295 59.7465 86.0295 58.8363C86.0295 58.5073 86.0295 58.1963 86.0429 57.908C85.9054 56.7003 85.5064 55.6505 85.2581 55.0916C85.1871 54.9294 85.36 54.7672 85.5108 54.8528C85.7946 55.0105 86.1315 55.2719 86.3311 55.6684C86.433 54.9475 86.4951 54.2355 86.3133 53.9741C86.1802 53.7804 85.8522 53.4784 85.5108 53.1586C84.8146 52.5096 83.9456 51.7076 83.7416 50.9865L83.7505 50.9685Z" fill="white"/>
</g>
<defs>
<clipPath id="clip0_8088_1514">
<rect width="245" height="76" fill="white"/>
</clipPath>
</defs>
</svg>
