<svg width="34" height="34" viewBox="0 0 34 34" fill="none" xmlns="http://www.w3.org/2000/svg">
<path d="M32.5833 4.24996C31.2267 5.20689 29.7246 5.93878 28.135 6.41746C27.2818 5.43644 26.1478 4.74111 24.8866 4.42553C23.6253 4.10994 22.2976 4.18932 21.0829 4.65294C19.8682 5.11655 18.8253 5.94203 18.095 7.01773C17.3648 8.09343 16.9825 9.36744 17 10.6675V12.0841C14.5104 12.1487 12.0434 11.5965 9.81889 10.4768C7.59435 9.35716 5.68124 7.7047 4.24996 5.66663C4.24996 5.66663 -1.41671 18.4166 11.3333 24.0833C8.41571 26.0637 4.9401 27.0568 1.41663 26.9166C14.1666 34 29.75 26.9166 29.75 10.625C29.7487 10.2304 29.7107 9.83672 29.6366 9.44913C31.0825 8.02325 32.1028 6.22297 32.5833 4.24996Z" stroke="white" stroke-width="2" stroke-linecap="round" stroke-linejoin="round"/>
</svg>
